G04 #@! TF.GenerationSoftware,KiCad,Pcbnew,(6.0.1-0)*
G04 #@! TF.CreationDate,2022-07-26T14:00:11+03:00*
G04 #@! TF.ProjectId,hydrom_V1.0.1,68796472-6f6d-45f5-9631-2e302e312e6b,rev?*
G04 #@! TF.SameCoordinates,Original*
G04 #@! TF.FileFunction,Paste,Top*
G04 #@! TF.FilePolarity,Positive*
%FSLAX46Y46*%
G04 Gerber Fmt 4.6, Leading zero omitted, Abs format (unit mm)*
G04 Created by KiCad (PCBNEW (6.0.1-0)) date 2022-07-26 14:00:11*
%MOMM*%
%LPD*%
G01*
G04 APERTURE LIST*
G04 Aperture macros list*
%AMRoundRect*
0 Rectangle with rounded corners*
0 $1 Rounding radius*
0 $2 $3 $4 $5 $6 $7 $8 $9 X,Y pos of 4 corners*
0 Add a 4 corners polygon primitive as box body*
4,1,4,$2,$3,$4,$5,$6,$7,$8,$9,$2,$3,0*
0 Add four circle primitives for the rounded corners*
1,1,$1+$1,$2,$3*
1,1,$1+$1,$4,$5*
1,1,$1+$1,$6,$7*
1,1,$1+$1,$8,$9*
0 Add four rect primitives between the rounded corners*
20,1,$1+$1,$2,$3,$4,$5,0*
20,1,$1+$1,$4,$5,$6,$7,0*
20,1,$1+$1,$6,$7,$8,$9,0*
20,1,$1+$1,$8,$9,$2,$3,0*%
G04 Aperture macros list end*
%ADD10RoundRect,0.200000X0.200000X0.275000X-0.200000X0.275000X-0.200000X-0.275000X0.200000X-0.275000X0*%
%ADD11RoundRect,0.250000X-0.450000X-0.425000X0.450000X-0.425000X0.450000X0.425000X-0.450000X0.425000X0*%
%ADD12R,2.000000X0.900000*%
%ADD13R,0.900000X2.000000*%
%ADD14R,5.000000X5.000000*%
%ADD15RoundRect,0.225000X0.225000X0.250000X-0.225000X0.250000X-0.225000X-0.250000X0.225000X-0.250000X0*%
%ADD16RoundRect,0.225000X-0.225000X-0.250000X0.225000X-0.250000X0.225000X0.250000X-0.225000X0.250000X0*%
%ADD17RoundRect,0.250000X0.650000X-0.325000X0.650000X0.325000X-0.650000X0.325000X-0.650000X-0.325000X0*%
%ADD18RoundRect,0.075000X-0.075000X0.350000X-0.075000X-0.350000X0.075000X-0.350000X0.075000X0.350000X0*%
%ADD19RoundRect,0.075000X-0.350000X-0.075000X0.350000X-0.075000X0.350000X0.075000X-0.350000X0.075000X0*%
%ADD20RoundRect,0.243750X0.456250X-0.243750X0.456250X0.243750X-0.456250X0.243750X-0.456250X-0.243750X0*%
%ADD21RoundRect,0.200000X-0.275000X0.200000X-0.275000X-0.200000X0.275000X-0.200000X0.275000X0.200000X0*%
%ADD22RoundRect,0.200000X0.275000X-0.200000X0.275000X0.200000X-0.275000X0.200000X-0.275000X-0.200000X0*%
%ADD23R,1.525000X0.700000*%
%ADD24R,2.513000X3.402000*%
%ADD25RoundRect,0.200000X-0.200000X-0.275000X0.200000X-0.275000X0.200000X0.275000X-0.200000X0.275000X0*%
%ADD26R,0.711200X1.193800*%
%ADD27R,0.762000X1.193800*%
%ADD28R,0.812800X1.193800*%
%ADD29RoundRect,0.243750X-0.456250X0.243750X-0.456250X-0.243750X0.456250X-0.243750X0.456250X0.243750X0*%
%ADD30RoundRect,0.250000X0.425000X-0.450000X0.425000X0.450000X-0.425000X0.450000X-0.425000X-0.450000X0*%
%ADD31RoundRect,0.250000X-0.650000X0.325000X-0.650000X-0.325000X0.650000X-0.325000X0.650000X0.325000X0*%
%ADD32RoundRect,0.150000X0.512500X0.150000X-0.512500X0.150000X-0.512500X-0.150000X0.512500X-0.150000X0*%
G04 APERTURE END LIST*
D10*
X101126000Y-123140000D03*
X99476000Y-123140000D03*
D11*
X121509800Y-144703800D03*
X124209800Y-144703800D03*
D12*
X118199000Y-148815000D03*
X118199000Y-147545000D03*
X118199000Y-146275000D03*
X118199000Y-145005000D03*
X118199000Y-143735000D03*
X118199000Y-142465000D03*
X118199000Y-141195000D03*
X118199000Y-139925000D03*
X118199000Y-138655000D03*
X118199000Y-137385000D03*
X118199000Y-136115000D03*
X118199000Y-134845000D03*
X118199000Y-133575000D03*
X118199000Y-132305000D03*
D13*
X115414000Y-131305000D03*
X114144000Y-131305000D03*
X112874000Y-131305000D03*
X111604000Y-131305000D03*
X110334000Y-131305000D03*
X109064000Y-131305000D03*
X107794000Y-131305000D03*
X106524000Y-131305000D03*
X105254000Y-131305000D03*
X103984000Y-131305000D03*
D12*
X101199000Y-132305000D03*
X101199000Y-133575000D03*
X101199000Y-134845000D03*
X101199000Y-136115000D03*
X101199000Y-137385000D03*
X101199000Y-138655000D03*
X101199000Y-139925000D03*
X101199000Y-141195000D03*
X101199000Y-142465000D03*
X101199000Y-143735000D03*
X101199000Y-145005000D03*
X101199000Y-146275000D03*
X101199000Y-147545000D03*
X101199000Y-148815000D03*
D14*
X110699000Y-141315000D03*
D15*
X122649000Y-148863000D03*
X121099000Y-148863000D03*
X122649000Y-146803000D03*
X121099000Y-146803000D03*
D16*
X99543000Y-127975000D03*
X101093000Y-127975000D03*
D10*
X101143000Y-126365000D03*
X99493000Y-126365000D03*
X109987500Y-109150000D03*
X108337500Y-109150000D03*
X125065000Y-50950000D03*
X123415000Y-50950000D03*
D15*
X100647000Y-110363000D03*
X99097000Y-110363000D03*
X100647000Y-107315000D03*
X99097000Y-107315000D03*
D17*
X103975000Y-126575000D03*
X103975000Y-123625000D03*
D10*
X109975000Y-107600000D03*
X108325000Y-107600000D03*
D16*
X99526000Y-124740000D03*
X101076000Y-124740000D03*
D18*
X105820000Y-108252000D03*
X105320000Y-108252000D03*
X104820000Y-108252000D03*
X104320000Y-108252000D03*
X103820000Y-108252000D03*
X103320000Y-108252000D03*
D19*
X102620000Y-108952000D03*
X102620000Y-109452000D03*
X102620000Y-109952000D03*
X102620000Y-110452000D03*
X102620000Y-110952000D03*
X102620000Y-111452000D03*
D18*
X103320000Y-112152000D03*
X103820000Y-112152000D03*
X104320000Y-112152000D03*
X104820000Y-112152000D03*
X105320000Y-112152000D03*
X105820000Y-112152000D03*
D19*
X106520000Y-111452000D03*
X106520000Y-110952000D03*
X106520000Y-110452000D03*
X106520000Y-109952000D03*
X106520000Y-109452000D03*
X106520000Y-108952000D03*
D20*
X125476000Y-109776500D03*
X125476000Y-107901500D03*
D21*
X125167000Y-111683000D03*
X125167000Y-113333000D03*
X123617000Y-111683000D03*
X123617000Y-113333000D03*
D22*
X117602000Y-117157000D03*
X117602000Y-115507000D03*
D23*
X119458001Y-115836001D03*
X119458001Y-117106001D03*
X119458001Y-118376001D03*
X119458001Y-119646001D03*
X124882001Y-119646001D03*
X124882001Y-118376001D03*
X124882001Y-117106001D03*
X124882001Y-115836001D03*
D24*
X122170001Y-117741001D03*
D25*
X99047000Y-108894000D03*
X100697000Y-108894000D03*
X99047000Y-111887000D03*
X100697000Y-111887000D03*
D20*
X123317000Y-109776500D03*
X123317000Y-107901500D03*
D10*
X122872000Y-139700000D03*
X121222000Y-139700000D03*
D17*
X106350000Y-126555000D03*
X106350000Y-123605000D03*
D25*
X121222000Y-141224000D03*
X122872000Y-141224000D03*
D26*
X110371001Y-164732599D03*
D27*
X112391000Y-164732599D03*
D28*
X113621000Y-164732599D03*
D26*
X111370999Y-164732599D03*
D27*
X109351064Y-164732716D03*
D28*
X108121064Y-164732716D03*
D10*
X102044000Y-163195000D03*
X100394000Y-163195000D03*
D29*
X95061000Y-135695500D03*
X95061000Y-137570500D03*
X97311000Y-135745500D03*
X97311000Y-137620500D03*
D22*
X94996000Y-141033000D03*
X94996000Y-139383000D03*
X97282000Y-141033000D03*
X97282000Y-139383000D03*
D25*
X120005000Y-121480000D03*
X121655000Y-121480000D03*
D16*
X108375000Y-110700000D03*
X109925000Y-110700000D03*
D25*
X106109000Y-162814000D03*
X107759000Y-162814000D03*
D10*
X115379000Y-162814000D03*
X113729000Y-162814000D03*
D30*
X115590000Y-119800000D03*
X115590000Y-117100000D03*
D16*
X108455000Y-127230000D03*
X110005000Y-127230000D03*
D11*
X113390000Y-110050000D03*
X116090000Y-110050000D03*
D31*
X113220000Y-125423400D03*
X113220000Y-128373400D03*
D10*
X122875000Y-142800000D03*
X121225000Y-142800000D03*
X122925000Y-136500000D03*
X121275000Y-136500000D03*
X122900000Y-138050000D03*
X121250000Y-138050000D03*
D32*
X110777500Y-125550000D03*
X110777500Y-124600000D03*
X110777500Y-123650000D03*
X108502500Y-123650000D03*
X108502500Y-125550000D03*
M02*
