G04 #@! TF.GenerationSoftware,KiCad,Pcbnew,(6.0.1-0)*
G04 #@! TF.CreationDate,2022-07-26T14:00:10+03:00*
G04 #@! TF.ProjectId,hydrom_V1.0.1,68796472-6f6d-45f5-9631-2e302e312e6b,rev?*
G04 #@! TF.SameCoordinates,Original*
G04 #@! TF.FileFunction,Copper,L2,Bot*
G04 #@! TF.FilePolarity,Positive*
%FSLAX46Y46*%
G04 Gerber Fmt 4.6, Leading zero omitted, Abs format (unit mm)*
G04 Created by KiCad (PCBNEW (6.0.1-0)) date 2022-07-26 14:00:10*
%MOMM*%
%LPD*%
G01*
G04 APERTURE LIST*
G04 #@! TA.AperFunction,WasherPad*
%ADD10R,1.100000X1.900000*%
G04 #@! TD*
G04 #@! TA.AperFunction,ComponentPad*
%ADD11C,1.200000*%
G04 #@! TD*
G04 #@! TA.AperFunction,ComponentPad*
%ADD12C,2.100000*%
G04 #@! TD*
G04 #@! TA.AperFunction,ComponentPad*
%ADD13C,1.750000*%
G04 #@! TD*
G04 #@! TA.AperFunction,ComponentPad*
%ADD14O,1.092200X1.701800*%
G04 #@! TD*
G04 #@! TA.AperFunction,ComponentPad*
%ADD15R,1.700000X1.700000*%
G04 #@! TD*
G04 #@! TA.AperFunction,ComponentPad*
%ADD16O,1.700000X1.700000*%
G04 #@! TD*
G04 #@! TA.AperFunction,ComponentPad*
%ADD17C,2.000000*%
G04 #@! TD*
G04 #@! TA.AperFunction,ComponentPad*
%ADD18R,1.500000X1.500000*%
G04 #@! TD*
G04 #@! TA.AperFunction,ComponentPad*
%ADD19C,1.500000*%
G04 #@! TD*
G04 #@! TA.AperFunction,ComponentPad*
%ADD20R,5.100000X4.000000*%
G04 #@! TD*
G04 #@! TA.AperFunction,ComponentPad*
%ADD21R,3.200000X3.200000*%
G04 #@! TD*
G04 #@! TA.AperFunction,ViaPad*
%ADD22C,0.600000*%
G04 #@! TD*
G04 #@! TA.AperFunction,ViaPad*
%ADD23C,0.800000*%
G04 #@! TD*
G04 #@! TA.AperFunction,ViaPad*
%ADD24C,1.200000*%
G04 #@! TD*
G04 #@! TA.AperFunction,Conductor*
%ADD25C,0.250000*%
G04 #@! TD*
G04 #@! TA.AperFunction,Conductor*
%ADD26C,0.508000*%
G04 #@! TD*
G04 #@! TA.AperFunction,Conductor*
%ADD27C,0.400000*%
G04 #@! TD*
G04 APERTURE END LIST*
D10*
X126890000Y-169050000D03*
X118690000Y-169050000D03*
D11*
X120790000Y-169050000D03*
X124790000Y-169050000D03*
X122790000Y-169050000D03*
D12*
X95230000Y-166210000D03*
X102240000Y-166210000D03*
D13*
X100990000Y-168700000D03*
X96490000Y-168700000D03*
D14*
X106551000Y-164812600D03*
X115191000Y-164812600D03*
X106551000Y-168612599D03*
X115191000Y-168612599D03*
D15*
X96393000Y-110998000D03*
D16*
X96393000Y-113538000D03*
X96393000Y-116078000D03*
X96393000Y-118618000D03*
X96393000Y-121158000D03*
X96393000Y-123698000D03*
X96393000Y-126238000D03*
D17*
X110850000Y-90800000D03*
X110950000Y-85000000D03*
X120580000Y-76990000D03*
X120900000Y-125700000D03*
X123150000Y-128650000D03*
X117500000Y-106250000D03*
X126375000Y-99950000D03*
X126375000Y-88250000D03*
X126375000Y-96050000D03*
X126375000Y-92150000D03*
D18*
X125060000Y-42480000D03*
D19*
X125060000Y-45020000D03*
X125060000Y-47560000D03*
D20*
X110744000Y-97364500D03*
D21*
X110744000Y-113364500D03*
X110744000Y-41114500D03*
D20*
X110744000Y-57114500D03*
D22*
X116400000Y-115400000D03*
X117600000Y-114350000D03*
X122790000Y-120770000D03*
X123975000Y-138050000D03*
X123825000Y-142800000D03*
X93853000Y-148763000D03*
X119905500Y-147175500D03*
X113350000Y-108380000D03*
D23*
X126492000Y-120904000D03*
D22*
X128475000Y-140025000D03*
D23*
X126492000Y-119888000D03*
D22*
X123970000Y-139700000D03*
D23*
X124460000Y-120904000D03*
D22*
X119620000Y-79400000D03*
X99568000Y-138684000D03*
X106807000Y-108077000D03*
X102997000Y-136144000D03*
X102997000Y-134874000D03*
X106553000Y-107188000D03*
X96520000Y-132588000D03*
X99060000Y-143764000D03*
X99060000Y-145034000D03*
X97233413Y-132950000D03*
D23*
X118225000Y-129275000D03*
X112643000Y-60850000D03*
X111528000Y-53700000D03*
X107690000Y-60850000D03*
X113687000Y-53700000D03*
X106602000Y-37900000D03*
X109650000Y-37900000D03*
D22*
X115951000Y-147828000D03*
D23*
X113587000Y-43650000D03*
X109650000Y-43650000D03*
D22*
X110900000Y-110700000D03*
D23*
X108634000Y-37900000D03*
X109722000Y-60850000D03*
X106602000Y-43650000D03*
X106702000Y-53700000D03*
D22*
X114935000Y-147828000D03*
X102070000Y-125290000D03*
D23*
X112671000Y-53700000D03*
X112571000Y-37900000D03*
D22*
X113919000Y-147828000D03*
D23*
X111428000Y-43650000D03*
D22*
X104648000Y-107188000D03*
X123571000Y-146812000D03*
D23*
X108121064Y-165944932D03*
X108706000Y-60850000D03*
X108634000Y-43650000D03*
D22*
X123698000Y-148844000D03*
D23*
X111428000Y-37900000D03*
X113621000Y-166033008D03*
X111500000Y-60850000D03*
X106674000Y-60850000D03*
X107718000Y-53700000D03*
X107618000Y-37900000D03*
X108734000Y-53700000D03*
X113587000Y-37900000D03*
X112571000Y-43650000D03*
X113659000Y-60850000D03*
X107618000Y-43650000D03*
D22*
X102108000Y-128016000D03*
D23*
X109750000Y-53700000D03*
D22*
X115951000Y-146304000D03*
X100330000Y-130683000D03*
D24*
X122425000Y-164900000D03*
D22*
X103378000Y-113284000D03*
X101796010Y-108007990D03*
X103378000Y-115179000D03*
X99568000Y-147574000D03*
X103505000Y-139954000D03*
X102362000Y-113157000D03*
X120870000Y-120390000D03*
X120850000Y-115100000D03*
X119875000Y-133575000D03*
X119925000Y-132300000D03*
X114150000Y-133050000D03*
X106375000Y-133175000D03*
D25*
X124125480Y-94399520D02*
X124125480Y-101311198D01*
X116700000Y-131675000D02*
X114825000Y-131675000D01*
X124125480Y-101311198D02*
X127725960Y-104911678D01*
X114150000Y-132350000D02*
X114150000Y-133050000D01*
X127725960Y-104911678D02*
X127725960Y-129852604D01*
X126375000Y-92150000D02*
X124125480Y-94399520D01*
X127725960Y-129852604D02*
X125903075Y-131675489D01*
X125903075Y-131675489D02*
X116700489Y-131675489D01*
X116700489Y-131675489D02*
X116700000Y-131675000D01*
X114825000Y-131675000D02*
X114150000Y-132350000D01*
X126375000Y-88250000D02*
X123675960Y-90949040D01*
X123675960Y-90949040D02*
X123675960Y-101497395D01*
X123675960Y-101497395D02*
X127276440Y-105097876D01*
X127276440Y-105097876D02*
X127276440Y-129666406D01*
X127276440Y-129666406D02*
X125716877Y-131225969D01*
X125716877Y-131225969D02*
X119300000Y-131225969D01*
X119300000Y-131225969D02*
X119299511Y-131225480D01*
X119299511Y-131225480D02*
X107124520Y-131225480D01*
X107124520Y-131225480D02*
X106375000Y-131975000D01*
X106375000Y-131975000D02*
X106375000Y-133175000D01*
X99949000Y-114046000D02*
X99002010Y-114992990D01*
X105791000Y-107188000D02*
X105283000Y-107696000D01*
X105283000Y-107696000D02*
X105283000Y-113665000D01*
X104844009Y-125888597D02*
X104844010Y-133546010D01*
X104844010Y-133546010D02*
X104856001Y-133558001D01*
X105283000Y-113665000D02*
X104902000Y-114046000D01*
X99002010Y-122114600D02*
X100389400Y-123501990D01*
X106553000Y-107188000D02*
X105791000Y-107188000D01*
X99002010Y-114992990D02*
X99002010Y-122114600D01*
X100389400Y-123501990D02*
X102457402Y-123501990D01*
X104902000Y-114046000D02*
X99949000Y-114046000D01*
X102457402Y-123501990D02*
X104844009Y-125888597D01*
X104856001Y-133558001D02*
X104856001Y-134193999D01*
X104856001Y-134193999D02*
X104176000Y-134874000D01*
X104176000Y-134874000D02*
X102997000Y-134874000D01*
X106045000Y-108077000D02*
X105791000Y-108331000D01*
X105791000Y-108331000D02*
X105791000Y-113793410D01*
X106807000Y-108077000D02*
X106045000Y-108077000D01*
X105791000Y-113793410D02*
X105030410Y-114554000D01*
X100203000Y-114554000D02*
X99568000Y-115189000D01*
X99568000Y-115189000D02*
X99568000Y-121666000D01*
X99568000Y-121666000D02*
X100838000Y-122936000D01*
X100838000Y-122936000D02*
X102616000Y-122936000D01*
X105030410Y-114554000D02*
X100203000Y-114554000D01*
X102616000Y-122936000D02*
X105306011Y-125626011D01*
X105306011Y-125626011D02*
X105306011Y-135043989D01*
X105306011Y-135043989D02*
X104206000Y-136144000D01*
X104206000Y-136144000D02*
X102997000Y-136144000D01*
X100330000Y-130683000D02*
X100965000Y-130683000D01*
X100965000Y-130683000D02*
X101219000Y-130937000D01*
X101219000Y-130937000D02*
X101219000Y-144519000D01*
X101219000Y-144519000D02*
X103004000Y-146304000D01*
X103004000Y-146304000D02*
X115951000Y-146304000D01*
X119875000Y-133575000D02*
X127025000Y-133575000D01*
X127025000Y-133575000D02*
X128625000Y-131975000D01*
X128625000Y-131975000D02*
X128625000Y-102200000D01*
X128625000Y-102200000D02*
X126375000Y-99950000D01*
X128175480Y-130774520D02*
X128175480Y-104725480D01*
X124575000Y-101125000D02*
X124575000Y-97850000D01*
X119925000Y-132300000D02*
X126650000Y-132300000D01*
X126650000Y-132300000D02*
X128175480Y-130774520D01*
X128175480Y-104725480D02*
X124575000Y-101125000D01*
X124575000Y-97850000D02*
X126375000Y-96050000D01*
D26*
X117500000Y-106250000D02*
X117500000Y-112600000D01*
X117500000Y-112600000D02*
X118460000Y-113560000D01*
X118460000Y-113560000D02*
X121860000Y-113560000D01*
X121860000Y-113560000D02*
X122790000Y-114490000D01*
X122790000Y-114490000D02*
X122790000Y-120770000D01*
D27*
X116405500Y-147175500D02*
X116310000Y-147080000D01*
X116310000Y-147080000D02*
X102050000Y-147080000D01*
D25*
X122950000Y-139075000D02*
X122950000Y-140750000D01*
X122950000Y-141925000D02*
X123825000Y-142800000D01*
D27*
X100367000Y-148763000D02*
X93853000Y-148763000D01*
X102050000Y-147080000D02*
X100367000Y-148763000D01*
X119905500Y-147175500D02*
X116405500Y-147175500D01*
D25*
X123975000Y-138050000D02*
X122950000Y-139075000D01*
X122950000Y-140750000D02*
X122950000Y-141925000D01*
X127110000Y-139700000D02*
X128150000Y-139700000D01*
X128150000Y-139700000D02*
X128475000Y-140025000D01*
X123970000Y-139700000D02*
X127110000Y-139700000D01*
X116420000Y-80800000D02*
X117405718Y-80800000D01*
X98044000Y-85936000D02*
X98044000Y-84896000D01*
X99568000Y-138684000D02*
X99568000Y-124460000D01*
X117405718Y-80800000D02*
X118407859Y-79797859D01*
X98044000Y-122936000D02*
X98044000Y-85936000D01*
X118407859Y-79797859D02*
X118805718Y-79400000D01*
X99568000Y-124460000D02*
X98044000Y-122936000D01*
X98044000Y-84896000D02*
X102140000Y-80800000D01*
X102140000Y-80800000D02*
X116420000Y-80800000D01*
X118805718Y-79400000D02*
X119620000Y-79400000D01*
X99060000Y-143764000D02*
X96520000Y-141224000D01*
X96520000Y-141224000D02*
X96520000Y-132588000D01*
X99685001Y-144408999D02*
X99685001Y-143500001D01*
X99060000Y-145034000D02*
X99685001Y-144408999D01*
X99685001Y-143500001D02*
X97028000Y-140843000D01*
X97028000Y-140843000D02*
X97028000Y-133477000D01*
X97028000Y-133477000D02*
X97233413Y-133271587D01*
X97233413Y-133271587D02*
X97233413Y-132950000D01*
D26*
X122425000Y-164900000D02*
X122425000Y-168685000D01*
X122425000Y-168685000D02*
X122790000Y-169050000D01*
D25*
X103261000Y-115062000D02*
X100457000Y-115062000D01*
X100018010Y-121354010D02*
X101149990Y-122485990D01*
X101149990Y-122485990D02*
X102927990Y-122485990D01*
X103378000Y-112649000D02*
X101796010Y-111067010D01*
X106299000Y-125857000D02*
X121031000Y-125857000D01*
X100018010Y-115500990D02*
X100018010Y-121354010D01*
X103378000Y-115179000D02*
X103261000Y-115062000D01*
X101796010Y-111067010D02*
X101796010Y-108007990D01*
X102927990Y-122485990D02*
X106299000Y-125857000D01*
X100457000Y-115062000D02*
X100018010Y-115500990D01*
X103378000Y-113284000D02*
X103378000Y-112649000D01*
X97568001Y-116618001D02*
X97568001Y-109060999D01*
X98942999Y-124850999D02*
X97568001Y-123476001D01*
X100330000Y-145669000D02*
X100330000Y-143129000D01*
X97568001Y-109060999D02*
X97593990Y-109035010D01*
X97568001Y-121760999D02*
X97593990Y-121735010D01*
X99568000Y-146431000D02*
X100330000Y-145669000D01*
X97593990Y-116643990D02*
X97568001Y-116618001D01*
X98942999Y-141741999D02*
X98942999Y-124850999D01*
X97593990Y-109035010D02*
X97593990Y-84876010D01*
X99568000Y-147574000D02*
X99568000Y-146431000D01*
X97593990Y-84710292D02*
X101953803Y-80350480D01*
X97593990Y-84876010D02*
X97593990Y-84710292D01*
X97593990Y-121735010D02*
X97593990Y-116643990D01*
X117219520Y-80350480D02*
X120580000Y-76990000D01*
X97568001Y-123476001D02*
X97568001Y-121760999D01*
X100330000Y-143129000D02*
X98942999Y-141741999D01*
X101953803Y-80350480D02*
X117219520Y-80350480D01*
X100076000Y-113157000D02*
X102362000Y-113157000D01*
X103505000Y-137577002D02*
X102362000Y-136434002D01*
X103886000Y-133985000D02*
X104394000Y-133477000D01*
X102362000Y-134583998D02*
X102960998Y-133985000D01*
X104394000Y-126074998D02*
X102271002Y-123952000D01*
X102960998Y-133985000D02*
X103886000Y-133985000D01*
X100203000Y-123952000D02*
X98552000Y-122301000D01*
X98552000Y-122301000D02*
X98552000Y-114681000D01*
X103505000Y-139954000D02*
X103505000Y-137577002D01*
X104394000Y-133477000D02*
X104394000Y-126074998D01*
X102271002Y-123952000D02*
X100203000Y-123952000D01*
X102362000Y-136434002D02*
X102362000Y-134583998D01*
X98552000Y-114681000D02*
X100076000Y-113157000D01*
X120870000Y-115120000D02*
X120850000Y-115100000D01*
X120870000Y-120390000D02*
X120870000Y-115120000D01*
G04 #@! TA.AperFunction,Conductor*
G36*
X114173000Y-120397000D02*
G01*
X114152998Y-120465121D01*
X114099342Y-120511614D01*
X114047000Y-120523000D01*
X106933000Y-120523000D01*
X106864879Y-120502998D01*
X106818386Y-120449342D01*
X106807000Y-120397000D01*
X106807000Y-110693823D01*
X110394391Y-110693823D01*
X110395555Y-110702725D01*
X110395555Y-110702728D01*
X110396814Y-110712354D01*
X110412980Y-110835979D01*
X110470720Y-110967203D01*
X110476497Y-110974076D01*
X110476498Y-110974077D01*
X110483792Y-110982754D01*
X110562970Y-111076948D01*
X110682313Y-111156390D01*
X110819157Y-111199142D01*
X110828129Y-111199306D01*
X110828132Y-111199307D01*
X110893463Y-111200504D01*
X110962499Y-111201770D01*
X110971533Y-111199307D01*
X111092158Y-111166421D01*
X111092160Y-111166420D01*
X111100817Y-111164060D01*
X111222991Y-111089045D01*
X111319200Y-110982754D01*
X111381710Y-110853733D01*
X111405496Y-110712354D01*
X111405647Y-110700000D01*
X111385323Y-110558082D01*
X111325984Y-110427572D01*
X111307598Y-110406234D01*
X111238260Y-110325763D01*
X111238257Y-110325760D01*
X111232400Y-110318963D01*
X111112095Y-110240985D01*
X110974739Y-110199907D01*
X110965763Y-110199852D01*
X110965762Y-110199852D01*
X110905555Y-110199484D01*
X110831376Y-110199031D01*
X110693529Y-110238428D01*
X110572280Y-110314930D01*
X110477377Y-110422388D01*
X110416447Y-110552163D01*
X110394391Y-110693823D01*
X106807000Y-110693823D01*
X106807000Y-108692056D01*
X106827002Y-108623935D01*
X106880658Y-108577442D01*
X106899856Y-108570494D01*
X106934373Y-108561083D01*
X106999158Y-108543421D01*
X106999160Y-108543420D01*
X107007817Y-108541060D01*
X107129991Y-108466045D01*
X107226200Y-108359754D01*
X107288710Y-108230733D01*
X107312496Y-108089354D01*
X107312647Y-108077000D01*
X107292323Y-107935082D01*
X107232984Y-107804572D01*
X107187254Y-107751500D01*
X107145260Y-107702763D01*
X107145257Y-107702760D01*
X107139400Y-107695963D01*
X107022500Y-107620192D01*
X106976217Y-107566357D01*
X106966386Y-107496045D01*
X106977641Y-107459523D01*
X106986522Y-107441194D01*
X107034710Y-107341733D01*
X107058496Y-107200354D01*
X107058647Y-107188000D01*
X107038323Y-107046082D01*
X106978984Y-106915572D01*
X106885400Y-106806963D01*
X106864469Y-106793396D01*
X106818185Y-106739561D01*
X106807000Y-106687663D01*
X106807000Y-105410000D01*
X114173000Y-105410000D01*
X114173000Y-120397000D01*
G37*
G04 #@! TD.AperFunction*
G04 #@! TA.AperFunction,Conductor*
G36*
X114242121Y-88882002D02*
G01*
X114288614Y-88935658D01*
X114300000Y-88988000D01*
X114300000Y-103505000D01*
X125171048Y-103505000D01*
X125239169Y-103525002D01*
X125260143Y-103541905D01*
X126914035Y-105195798D01*
X126948061Y-105258110D01*
X126950940Y-105284893D01*
X126950940Y-121667000D01*
X126930938Y-121735121D01*
X126877282Y-121781614D01*
X126824940Y-121793000D01*
X124078000Y-121793000D01*
X124009879Y-121772998D01*
X123963386Y-121719342D01*
X123952000Y-121667000D01*
X123952000Y-105537000D01*
X118529126Y-105537000D01*
X118461005Y-105516998D01*
X118428168Y-105486389D01*
X118399420Y-105447891D01*
X118399420Y-105447890D01*
X118395967Y-105443267D01*
X118233949Y-105293499D01*
X118047350Y-105175764D01*
X117842421Y-105094006D01*
X117836761Y-105092880D01*
X117836757Y-105092879D01*
X117631691Y-105052089D01*
X117631688Y-105052089D01*
X117626024Y-105050962D01*
X117620249Y-105050886D01*
X117620245Y-105050886D01*
X117509504Y-105049437D01*
X117405406Y-105048074D01*
X117399709Y-105049053D01*
X117399708Y-105049053D01*
X117193654Y-105084459D01*
X117193653Y-105084459D01*
X117187957Y-105085438D01*
X116980957Y-105161804D01*
X116975996Y-105164756D01*
X116975995Y-105164756D01*
X116819082Y-105258110D01*
X116791341Y-105274614D01*
X116625457Y-105420090D01*
X116621890Y-105424615D01*
X116621885Y-105424620D01*
X116571128Y-105489006D01*
X116513247Y-105530119D01*
X116472178Y-105537000D01*
X106807000Y-105537000D01*
X106807000Y-104394000D01*
X105282000Y-104394000D01*
X105213879Y-104373998D01*
X105167386Y-104320342D01*
X105156000Y-104268000D01*
X105156000Y-88988000D01*
X105176002Y-88919879D01*
X105229658Y-88873386D01*
X105282000Y-88862000D01*
X114174000Y-88862000D01*
X114242121Y-88882002D01*
G37*
G04 #@! TD.AperFunction*
G04 #@! TA.AperFunction,Conductor*
G36*
X115311543Y-62734000D02*
G01*
X105217543Y-62734000D01*
X105217543Y-33909000D01*
X115311543Y-33909000D01*
X115311543Y-62734000D01*
G37*
G04 #@! TD.AperFunction*
G04 #@! TA.AperFunction,Conductor*
G36*
X111617806Y-31919355D02*
G01*
X111622374Y-31919567D01*
X112456078Y-31977435D01*
X112460632Y-31977857D01*
X113140655Y-32056750D01*
X113290774Y-32074167D01*
X113295297Y-32074797D01*
X114120172Y-32209353D01*
X114124644Y-32210190D01*
X114942389Y-32382692D01*
X114946801Y-32383729D01*
X115593031Y-32551564D01*
X115755702Y-32593812D01*
X115760101Y-32595063D01*
X116558454Y-32842284D01*
X116562790Y-32843738D01*
X117048350Y-33019057D01*
X117348835Y-33127552D01*
X117353093Y-33129201D01*
X118125210Y-33449023D01*
X118129393Y-33450870D01*
X118885917Y-33806010D01*
X118890011Y-33808049D01*
X119629298Y-34197734D01*
X119633294Y-34199959D01*
X120353838Y-34623396D01*
X120357726Y-34625804D01*
X121057906Y-35082040D01*
X121061679Y-35084624D01*
X121740061Y-35572725D01*
X121743711Y-35575481D01*
X122398839Y-36094401D01*
X122402357Y-36097323D01*
X123032794Y-36645922D01*
X123036174Y-36649003D01*
X123306163Y-36906797D01*
X123640634Y-37226162D01*
X123643836Y-37229364D01*
X123963201Y-37563835D01*
X124220995Y-37833824D01*
X124224076Y-37837204D01*
X124772675Y-38467641D01*
X124775597Y-38471159D01*
X125294517Y-39126287D01*
X125297267Y-39129929D01*
X125432222Y-39317495D01*
X125785374Y-39808319D01*
X125787958Y-39812092D01*
X126244194Y-40512272D01*
X126246602Y-40516160D01*
X126670039Y-41236704D01*
X126672264Y-41240700D01*
X127061949Y-41979987D01*
X127063988Y-41984081D01*
X127224440Y-42325878D01*
X127371076Y-42638243D01*
X127419128Y-42740605D01*
X127420972Y-42744781D01*
X127490879Y-42913552D01*
X127740797Y-43516905D01*
X127742449Y-43521170D01*
X128026260Y-44307208D01*
X128027714Y-44311544D01*
X128274935Y-45109897D01*
X128276186Y-45114296D01*
X128483300Y-45911763D01*
X128486264Y-45923177D01*
X128487306Y-45927609D01*
X128646408Y-46681829D01*
X128659806Y-46745343D01*
X128660645Y-46749826D01*
X128759658Y-47356809D01*
X128795201Y-47574698D01*
X128795832Y-47579228D01*
X128892141Y-48409366D01*
X128892563Y-48413920D01*
X128950431Y-49247624D01*
X128950643Y-49252192D01*
X128969237Y-50056960D01*
X128967361Y-50075375D01*
X128967355Y-50078779D01*
X128964857Y-50089642D01*
X128967317Y-50100514D01*
X128967317Y-50100516D01*
X128967559Y-50101583D01*
X128970000Y-50123432D01*
X128970000Y-101845666D01*
X128951093Y-101903857D01*
X128901593Y-101939821D01*
X128840407Y-101939821D01*
X128800996Y-101915670D01*
X127475300Y-100589974D01*
X127447523Y-100535457D01*
X127458928Y-100471595D01*
X127474190Y-100444343D01*
X127476410Y-100440379D01*
X127547331Y-100231452D01*
X127560156Y-100142999D01*
X127578571Y-100015997D01*
X127578571Y-100015991D01*
X127578991Y-100013098D01*
X127580643Y-99950000D01*
X127560454Y-99730289D01*
X127500565Y-99517936D01*
X127498557Y-99513864D01*
X127498555Y-99513859D01*
X127404988Y-99324125D01*
X127402980Y-99320053D01*
X127270967Y-99143267D01*
X127108949Y-98993499D01*
X126922350Y-98875764D01*
X126717421Y-98794006D01*
X126501024Y-98750962D01*
X126392347Y-98749539D01*
X126284946Y-98748133D01*
X126284941Y-98748133D01*
X126280406Y-98748074D01*
X126275933Y-98748843D01*
X126275928Y-98748843D01*
X126067435Y-98784668D01*
X126067429Y-98784670D01*
X126062957Y-98785438D01*
X126035176Y-98795687D01*
X125860220Y-98860231D01*
X125860217Y-98860232D01*
X125855957Y-98861804D01*
X125852054Y-98864126D01*
X125852052Y-98864127D01*
X125832492Y-98875764D01*
X125666341Y-98974614D01*
X125662926Y-98977609D01*
X125662923Y-98977611D01*
X125555036Y-99072225D01*
X125500457Y-99120090D01*
X125363863Y-99293360D01*
X125261131Y-99488620D01*
X125195703Y-99699333D01*
X125195169Y-99703843D01*
X125195169Y-99703844D01*
X125192039Y-99730289D01*
X125169770Y-99918440D01*
X125184200Y-100138604D01*
X125185316Y-100142997D01*
X125185316Y-100142999D01*
X125208873Y-100235754D01*
X125238511Y-100352452D01*
X125330883Y-100552821D01*
X125458222Y-100733002D01*
X125616264Y-100886961D01*
X125799717Y-101009540D01*
X126002436Y-101096635D01*
X126080165Y-101114223D01*
X126213206Y-101144328D01*
X126213211Y-101144329D01*
X126217632Y-101145329D01*
X126327865Y-101149660D01*
X126433565Y-101153813D01*
X126433566Y-101153813D01*
X126438098Y-101153991D01*
X126656452Y-101122331D01*
X126660751Y-101120872D01*
X126660754Y-101120871D01*
X126861078Y-101052870D01*
X126865379Y-101051410D01*
X126896595Y-101033928D01*
X126956605Y-101021990D01*
X127014974Y-101050300D01*
X128270504Y-102305830D01*
X128298281Y-102360347D01*
X128299500Y-102375834D01*
X128299500Y-104150166D01*
X128280593Y-104208357D01*
X128231093Y-104244321D01*
X128169907Y-104244321D01*
X128130496Y-104220170D01*
X124929496Y-101019170D01*
X124901719Y-100964653D01*
X124900500Y-100949166D01*
X124900500Y-98025834D01*
X124919407Y-97967643D01*
X124929496Y-97955830D01*
X125735538Y-97149789D01*
X125790055Y-97122012D01*
X125844622Y-97128833D01*
X125892009Y-97149192D01*
X126002436Y-97196635D01*
X126080165Y-97214223D01*
X126213206Y-97244328D01*
X126213211Y-97244329D01*
X126217632Y-97245329D01*
X126327865Y-97249660D01*
X126433565Y-97253813D01*
X126433566Y-97253813D01*
X126438098Y-97253991D01*
X126656452Y-97222331D01*
X126660751Y-97220872D01*
X126660754Y-97220871D01*
X126861078Y-97152870D01*
X126865379Y-97151410D01*
X126957259Y-97099955D01*
X127053925Y-97045819D01*
X127057884Y-97043602D01*
X127227518Y-96902518D01*
X127368602Y-96732884D01*
X127476410Y-96540379D01*
X127547331Y-96331452D01*
X127560156Y-96242999D01*
X127578571Y-96115997D01*
X127578571Y-96115991D01*
X127578991Y-96113098D01*
X127580643Y-96050000D01*
X127560454Y-95830289D01*
X127500565Y-95617936D01*
X127498557Y-95613864D01*
X127498555Y-95613859D01*
X127404988Y-95424125D01*
X127402980Y-95420053D01*
X127270967Y-95243267D01*
X127108949Y-95093499D01*
X126922350Y-94975764D01*
X126717421Y-94894006D01*
X126501024Y-94850962D01*
X126392347Y-94849539D01*
X126284946Y-94848133D01*
X126284941Y-94848133D01*
X126280406Y-94848074D01*
X126275933Y-94848843D01*
X126275928Y-94848843D01*
X126067435Y-94884668D01*
X126067429Y-94884670D01*
X126062957Y-94885438D01*
X126035176Y-94895687D01*
X125860220Y-94960231D01*
X125860217Y-94960232D01*
X125855957Y-94961804D01*
X125852054Y-94964126D01*
X125852052Y-94964127D01*
X125832492Y-94975764D01*
X125666341Y-95074614D01*
X125662926Y-95077609D01*
X125662923Y-95077611D01*
X125555036Y-95172225D01*
X125500457Y-95220090D01*
X125363863Y-95393360D01*
X125261131Y-95588620D01*
X125195703Y-95799333D01*
X125195169Y-95803843D01*
X125195169Y-95803844D01*
X125192039Y-95830289D01*
X125169770Y-96018440D01*
X125184200Y-96238604D01*
X125185316Y-96242997D01*
X125185316Y-96242999D01*
X125208873Y-96335754D01*
X125238511Y-96452452D01*
X125240407Y-96456565D01*
X125240410Y-96456573D01*
X125295990Y-96577134D01*
X125303182Y-96637895D01*
X125276088Y-96688585D01*
X124918855Y-97045819D01*
X124619984Y-97344690D01*
X124565467Y-97372467D01*
X124505035Y-97362896D01*
X124461770Y-97319631D01*
X124450980Y-97274686D01*
X124450980Y-94575354D01*
X124469887Y-94517163D01*
X124479976Y-94505350D01*
X125735537Y-93249789D01*
X125790054Y-93222012D01*
X125844620Y-93228833D01*
X125998262Y-93294842D01*
X125998265Y-93294843D01*
X126002436Y-93296635D01*
X126080165Y-93314223D01*
X126213206Y-93344328D01*
X126213211Y-93344329D01*
X126217632Y-93345329D01*
X126327865Y-93349660D01*
X126433565Y-93353813D01*
X126433566Y-93353813D01*
X126438098Y-93353991D01*
X126656452Y-93322331D01*
X126660751Y-93320872D01*
X126660754Y-93320871D01*
X126861078Y-93252870D01*
X126865379Y-93251410D01*
X126957259Y-93199955D01*
X127053925Y-93145819D01*
X127057884Y-93143602D01*
X127227518Y-93002518D01*
X127368602Y-92832884D01*
X127476410Y-92640379D01*
X127506257Y-92552452D01*
X127545871Y-92435754D01*
X127545872Y-92435751D01*
X127547331Y-92431452D01*
X127560156Y-92342999D01*
X127578571Y-92215997D01*
X127578571Y-92215991D01*
X127578991Y-92213098D01*
X127580643Y-92150000D01*
X127560454Y-91930289D01*
X127500565Y-91717936D01*
X127498557Y-91713864D01*
X127498555Y-91713859D01*
X127404988Y-91524125D01*
X127402980Y-91520053D01*
X127270967Y-91343267D01*
X127108949Y-91193499D01*
X126922350Y-91075764D01*
X126717421Y-90994006D01*
X126501024Y-90950962D01*
X126392347Y-90949539D01*
X126284946Y-90948133D01*
X126284941Y-90948133D01*
X126280406Y-90948074D01*
X126275933Y-90948843D01*
X126275928Y-90948843D01*
X126067435Y-90984668D01*
X126067429Y-90984670D01*
X126062957Y-90985438D01*
X126035176Y-90995687D01*
X125860220Y-91060231D01*
X125860217Y-91060232D01*
X125855957Y-91061804D01*
X125852054Y-91064126D01*
X125852052Y-91064127D01*
X125832492Y-91075764D01*
X125666341Y-91174614D01*
X125662926Y-91177609D01*
X125662923Y-91177611D01*
X125555036Y-91272225D01*
X125500457Y-91320090D01*
X125363863Y-91493360D01*
X125261131Y-91688620D01*
X125195703Y-91899333D01*
X125195169Y-91903843D01*
X125195169Y-91903844D01*
X125192039Y-91930289D01*
X125169770Y-92118440D01*
X125184200Y-92338604D01*
X125185316Y-92342997D01*
X125185316Y-92342999D01*
X125208873Y-92435754D01*
X125238511Y-92552452D01*
X125295991Y-92677136D01*
X125303183Y-92737894D01*
X125276089Y-92788585D01*
X124170464Y-93894210D01*
X124115947Y-93921987D01*
X124055515Y-93912416D01*
X124012250Y-93869151D01*
X124001460Y-93824206D01*
X124001460Y-91124874D01*
X124020367Y-91066683D01*
X124030456Y-91054870D01*
X125735537Y-89349789D01*
X125790054Y-89322012D01*
X125844620Y-89328833D01*
X125998262Y-89394842D01*
X125998265Y-89394843D01*
X126002436Y-89396635D01*
X126080165Y-89414223D01*
X126213206Y-89444328D01*
X126213211Y-89444329D01*
X126217632Y-89445329D01*
X126327865Y-89449660D01*
X126433565Y-89453813D01*
X126433566Y-89453813D01*
X126438098Y-89453991D01*
X126656452Y-89422331D01*
X126660751Y-89420872D01*
X126660754Y-89420871D01*
X126861078Y-89352870D01*
X126865379Y-89351410D01*
X126957259Y-89299955D01*
X127053925Y-89245819D01*
X127057884Y-89243602D01*
X127227518Y-89102518D01*
X127368602Y-88932884D01*
X127442751Y-88800482D01*
X127474192Y-88744340D01*
X127474193Y-88744338D01*
X127476410Y-88740379D01*
X127506257Y-88652452D01*
X127545871Y-88535754D01*
X127545872Y-88535751D01*
X127547331Y-88531452D01*
X127560156Y-88442999D01*
X127578571Y-88315997D01*
X127578571Y-88315991D01*
X127578991Y-88313098D01*
X127580643Y-88250000D01*
X127560454Y-88030289D01*
X127500565Y-87817936D01*
X127498557Y-87813864D01*
X127498555Y-87813859D01*
X127404988Y-87624125D01*
X127402980Y-87620053D01*
X127270967Y-87443267D01*
X127108949Y-87293499D01*
X126922350Y-87175764D01*
X126717421Y-87094006D01*
X126501024Y-87050962D01*
X126392347Y-87049539D01*
X126284946Y-87048133D01*
X126284941Y-87048133D01*
X126280406Y-87048074D01*
X126275933Y-87048843D01*
X126275928Y-87048843D01*
X126067435Y-87084668D01*
X126067429Y-87084670D01*
X126062957Y-87085438D01*
X126035176Y-87095687D01*
X125860220Y-87160231D01*
X125860217Y-87160232D01*
X125855957Y-87161804D01*
X125852054Y-87164126D01*
X125852052Y-87164127D01*
X125832492Y-87175764D01*
X125666341Y-87274614D01*
X125662926Y-87277609D01*
X125662923Y-87277611D01*
X125555036Y-87372225D01*
X125500457Y-87420090D01*
X125363863Y-87593360D01*
X125261131Y-87788620D01*
X125195703Y-87999333D01*
X125195169Y-88003843D01*
X125195169Y-88003844D01*
X125192039Y-88030289D01*
X125169770Y-88218440D01*
X125184200Y-88438604D01*
X125185316Y-88442997D01*
X125185316Y-88442999D01*
X125208873Y-88535754D01*
X125238511Y-88652452D01*
X125295991Y-88777136D01*
X125303183Y-88837894D01*
X125276089Y-88888585D01*
X123458903Y-90705771D01*
X123452536Y-90711605D01*
X123422766Y-90736585D01*
X123418437Y-90744084D01*
X123403333Y-90770245D01*
X123398692Y-90777529D01*
X123376406Y-90809356D01*
X123374164Y-90817724D01*
X123371698Y-90823011D01*
X123369702Y-90828496D01*
X123365372Y-90835995D01*
X123363869Y-90844521D01*
X123363868Y-90844523D01*
X123358626Y-90874256D01*
X123356756Y-90882690D01*
X123346696Y-90920233D01*
X123347451Y-90928862D01*
X123350083Y-90958945D01*
X123350460Y-90967574D01*
X123350460Y-101478861D01*
X123350083Y-101487490D01*
X123346696Y-101526202D01*
X123348938Y-101534569D01*
X123356756Y-101563744D01*
X123358626Y-101572178D01*
X123365372Y-101610440D01*
X123369702Y-101617939D01*
X123371698Y-101623424D01*
X123374164Y-101628711D01*
X123376406Y-101637079D01*
X123396973Y-101666451D01*
X123398692Y-101668906D01*
X123403331Y-101676187D01*
X123422766Y-101709850D01*
X123452531Y-101734826D01*
X123458899Y-101740660D01*
X124854234Y-103135996D01*
X124882011Y-103190513D01*
X124872440Y-103250945D01*
X124829175Y-103294210D01*
X124784230Y-103305000D01*
X114599000Y-103305000D01*
X114540809Y-103286093D01*
X114504845Y-103236593D01*
X114500000Y-103206000D01*
X114500000Y-88988000D01*
X114495430Y-88945488D01*
X114484044Y-88893146D01*
X114481622Y-88883238D01*
X114439764Y-88804686D01*
X114393271Y-88751030D01*
X114376149Y-88733555D01*
X114355914Y-88722236D01*
X114303319Y-88692817D01*
X114298467Y-88690103D01*
X114230346Y-88670101D01*
X114174000Y-88662000D01*
X105282000Y-88662000D01*
X105262374Y-88664110D01*
X105242128Y-88666286D01*
X105242124Y-88666287D01*
X105239488Y-88666570D01*
X105187146Y-88677956D01*
X105177238Y-88680378D01*
X105098686Y-88722236D01*
X105045030Y-88768729D01*
X105027555Y-88785851D01*
X105024099Y-88792030D01*
X105024098Y-88792031D01*
X105014275Y-88809592D01*
X104984103Y-88863533D01*
X104964101Y-88931654D01*
X104956000Y-88988000D01*
X104956000Y-104268000D01*
X104960570Y-104310512D01*
X104971956Y-104362854D01*
X104974378Y-104372762D01*
X105016236Y-104451314D01*
X105062729Y-104504970D01*
X105079851Y-104522445D01*
X105157533Y-104565897D01*
X105225654Y-104585899D01*
X105282000Y-104594000D01*
X106508000Y-104594000D01*
X106566191Y-104612907D01*
X106602155Y-104662407D01*
X106607000Y-104693000D01*
X106607000Y-106588174D01*
X106588093Y-106646365D01*
X106538593Y-106682329D01*
X106507397Y-106687172D01*
X106493356Y-106687086D01*
X106491426Y-106687074D01*
X106484376Y-106687031D01*
X106477599Y-106688968D01*
X106477598Y-106688968D01*
X106353309Y-106724490D01*
X106353307Y-106724491D01*
X106346529Y-106726428D01*
X106225280Y-106802930D01*
X106220613Y-106808214D01*
X106220611Y-106808216D01*
X106202226Y-106829034D01*
X106149534Y-106860134D01*
X106128022Y-106862500D01*
X105809522Y-106862500D01*
X105800893Y-106862123D01*
X105770822Y-106859492D01*
X105762193Y-106858737D01*
X105724657Y-106868795D01*
X105716231Y-106870663D01*
X105707038Y-106872284D01*
X105677955Y-106877412D01*
X105670450Y-106881745D01*
X105664973Y-106883738D01*
X105659682Y-106886205D01*
X105651316Y-106888447D01*
X105619484Y-106910736D01*
X105612206Y-106915372D01*
X105586044Y-106930476D01*
X105586042Y-106930477D01*
X105578545Y-106934806D01*
X105553569Y-106964571D01*
X105547735Y-106970938D01*
X105065949Y-107452725D01*
X105059581Y-107458561D01*
X105029806Y-107483545D01*
X105012512Y-107513500D01*
X105010373Y-107517205D01*
X105005732Y-107524489D01*
X104983446Y-107556316D01*
X104981204Y-107564684D01*
X104978738Y-107569971D01*
X104976742Y-107575456D01*
X104972412Y-107582955D01*
X104970909Y-107591481D01*
X104970908Y-107591483D01*
X104965666Y-107621216D01*
X104963796Y-107629650D01*
X104953736Y-107667193D01*
X104954491Y-107675822D01*
X104957123Y-107705905D01*
X104957500Y-107714534D01*
X104957500Y-113489166D01*
X104938593Y-113547357D01*
X104928504Y-113559169D01*
X104796171Y-113691503D01*
X104741654Y-113719281D01*
X104726167Y-113720500D01*
X103878483Y-113720500D01*
X103820292Y-113701593D01*
X103784328Y-113652093D01*
X103784328Y-113590907D01*
X103794834Y-113569368D01*
X103797200Y-113566754D01*
X103859710Y-113437733D01*
X103883496Y-113296354D01*
X103883647Y-113284000D01*
X103863323Y-113142082D01*
X103803984Y-113011572D01*
X103727500Y-112922808D01*
X103703840Y-112866386D01*
X103703500Y-112858187D01*
X103703500Y-112667534D01*
X103703877Y-112658905D01*
X103706509Y-112628822D01*
X103707264Y-112620193D01*
X103697204Y-112582650D01*
X103695334Y-112574216D01*
X103690092Y-112544483D01*
X103690091Y-112544481D01*
X103688588Y-112535955D01*
X103684258Y-112528456D01*
X103682262Y-112522971D01*
X103679796Y-112517684D01*
X103677554Y-112509316D01*
X103655268Y-112477489D01*
X103650627Y-112470205D01*
X103635523Y-112444044D01*
X103631194Y-112436545D01*
X103601429Y-112411569D01*
X103595061Y-112405735D01*
X102150506Y-110961180D01*
X102122729Y-110906663D01*
X102121510Y-110891176D01*
X102121510Y-108432414D01*
X102140417Y-108374223D01*
X102147112Y-108365978D01*
X102210478Y-108295972D01*
X102215210Y-108290744D01*
X102277720Y-108161723D01*
X102281885Y-108136972D01*
X102300872Y-108024114D01*
X102300872Y-108024110D01*
X102301506Y-108020344D01*
X102301657Y-108007990D01*
X102281333Y-107866072D01*
X102252299Y-107802214D01*
X102224915Y-107741986D01*
X102224914Y-107741985D01*
X102221994Y-107735562D01*
X102128410Y-107626953D01*
X102008105Y-107548975D01*
X101870749Y-107507897D01*
X101787507Y-107507388D01*
X101734437Y-107507064D01*
X101734436Y-107507064D01*
X101727386Y-107507021D01*
X101720609Y-107508958D01*
X101720608Y-107508958D01*
X101596319Y-107544480D01*
X101596317Y-107544481D01*
X101589539Y-107546418D01*
X101468290Y-107622920D01*
X101463623Y-107628204D01*
X101463621Y-107628206D01*
X101378054Y-107725093D01*
X101378052Y-107725095D01*
X101373387Y-107730378D01*
X101370391Y-107736760D01*
X101370390Y-107736761D01*
X101357233Y-107764785D01*
X101312457Y-107860153D01*
X101290401Y-108001813D01*
X101291316Y-108008810D01*
X101291316Y-108008811D01*
X101292824Y-108020344D01*
X101308990Y-108143969D01*
X101311831Y-108150425D01*
X101311831Y-108150426D01*
X101319596Y-108168072D01*
X101366730Y-108275193D01*
X101384197Y-108295972D01*
X101447293Y-108371035D01*
X101470263Y-108427745D01*
X101470510Y-108434737D01*
X101470510Y-111048476D01*
X101470133Y-111057105D01*
X101466746Y-111095817D01*
X101468988Y-111104184D01*
X101476806Y-111133359D01*
X101478676Y-111141793D01*
X101485422Y-111180055D01*
X101489752Y-111187554D01*
X101491748Y-111193039D01*
X101494214Y-111198326D01*
X101496456Y-111206694D01*
X101517023Y-111236066D01*
X101518742Y-111238521D01*
X101523381Y-111245802D01*
X101542816Y-111279465D01*
X101572581Y-111304441D01*
X101578949Y-111310275D01*
X103023504Y-112754830D01*
X103051281Y-112809347D01*
X103052500Y-112824834D01*
X103052500Y-112858959D01*
X103033593Y-112917150D01*
X103027716Y-112924479D01*
X102982542Y-112975629D01*
X102929852Y-113006728D01*
X102868943Y-113000916D01*
X102823083Y-112960414D01*
X102818218Y-112951069D01*
X102813927Y-112941630D01*
X102796346Y-112902963D01*
X102790905Y-112890996D01*
X102790904Y-112890995D01*
X102787984Y-112884572D01*
X102719060Y-112804582D01*
X102699005Y-112781307D01*
X102699004Y-112781306D01*
X102694400Y-112775963D01*
X102574095Y-112697985D01*
X102436739Y-112656907D01*
X102353497Y-112656398D01*
X102300427Y-112656074D01*
X102300426Y-112656074D01*
X102293376Y-112656031D01*
X102286599Y-112657968D01*
X102286598Y-112657968D01*
X102162309Y-112693490D01*
X102162307Y-112693491D01*
X102155529Y-112695428D01*
X102034280Y-112771930D01*
X102029613Y-112777214D01*
X102029611Y-112777216D01*
X102011226Y-112798034D01*
X101958534Y-112829134D01*
X101937022Y-112831500D01*
X100094522Y-112831500D01*
X100085893Y-112831123D01*
X100055822Y-112828492D01*
X100047193Y-112827737D01*
X100009657Y-112837795D01*
X100001231Y-112839663D01*
X99992038Y-112841284D01*
X99962955Y-112846412D01*
X99955450Y-112850745D01*
X99949973Y-112852738D01*
X99944682Y-112855205D01*
X99936316Y-112857447D01*
X99904484Y-112879736D01*
X99897208Y-112884371D01*
X99891178Y-112887852D01*
X99871044Y-112899476D01*
X99871042Y-112899477D01*
X99863545Y-112903806D01*
X99847598Y-112922811D01*
X99838574Y-112933565D01*
X99832740Y-112939933D01*
X99111726Y-113660948D01*
X98538504Y-114234170D01*
X98483987Y-114261947D01*
X98423555Y-114252376D01*
X98380290Y-114209111D01*
X98369500Y-114164166D01*
X98369500Y-85950978D01*
X110216983Y-85950978D01*
X110216990Y-85951023D01*
X110222513Y-85957239D01*
X110371178Y-86056575D01*
X110379133Y-86060893D01*
X110573412Y-86144362D01*
X110582024Y-86147160D01*
X110788272Y-86193829D01*
X110797232Y-86195009D01*
X111008544Y-86203311D01*
X111017556Y-86202839D01*
X111226848Y-86172494D01*
X111235630Y-86170385D01*
X111435878Y-86102410D01*
X111444134Y-86098734D01*
X111628638Y-85995406D01*
X111636092Y-85990283D01*
X111674293Y-85958511D01*
X111681413Y-85947227D01*
X111681227Y-85944397D01*
X111679225Y-85941357D01*
X110961086Y-85223218D01*
X110949203Y-85217164D01*
X110944172Y-85217960D01*
X110223037Y-85939095D01*
X110216983Y-85950978D01*
X98369500Y-85950978D01*
X98369500Y-85071834D01*
X98388407Y-85013643D01*
X98398496Y-85001830D01*
X98427345Y-84972981D01*
X109745569Y-84972981D01*
X109759399Y-85184000D01*
X109760812Y-85192921D01*
X109812866Y-85397882D01*
X109815886Y-85406410D01*
X109904416Y-85598446D01*
X109908937Y-85606277D01*
X109992085Y-85723928D01*
X110002772Y-85731908D01*
X110003521Y-85731918D01*
X110009652Y-85728216D01*
X110726782Y-85011086D01*
X110732024Y-85000797D01*
X111167164Y-85000797D01*
X111167960Y-85005828D01*
X111887397Y-85725265D01*
X111899280Y-85731319D01*
X111902083Y-85730875D01*
X111904927Y-85728603D01*
X111940283Y-85686092D01*
X111945406Y-85678638D01*
X112048734Y-85494134D01*
X112052410Y-85485878D01*
X112120385Y-85285630D01*
X112122494Y-85276848D01*
X112153072Y-85065949D01*
X112153565Y-85060161D01*
X112155065Y-85002913D01*
X112154875Y-84997101D01*
X112135376Y-84784898D01*
X112133729Y-84776012D01*
X112076328Y-84572486D01*
X112073087Y-84564042D01*
X111979560Y-84374388D01*
X111974835Y-84366678D01*
X111907532Y-84276548D01*
X111896638Y-84268849D01*
X111895189Y-84268868D01*
X111890098Y-84272034D01*
X111173218Y-84988914D01*
X111167164Y-85000797D01*
X110732024Y-85000797D01*
X110732836Y-84999203D01*
X110732040Y-84994172D01*
X110013062Y-84275194D01*
X110001179Y-84269140D01*
X109999062Y-84269475D01*
X109995332Y-84272536D01*
X109942094Y-84340068D01*
X109937170Y-84347651D01*
X109838705Y-84534802D01*
X109835251Y-84543142D01*
X109772541Y-84745098D01*
X109770660Y-84753948D01*
X109745805Y-84963948D01*
X109745569Y-84972981D01*
X98427345Y-84972981D01*
X99348725Y-84051601D01*
X110217578Y-84051601D01*
X110217902Y-84055118D01*
X110219271Y-84057139D01*
X110938914Y-84776782D01*
X110950797Y-84782836D01*
X110955828Y-84782040D01*
X111677924Y-84059944D01*
X111683978Y-84048061D01*
X111683368Y-84044209D01*
X111679807Y-84041477D01*
X111500960Y-83928633D01*
X111492907Y-83924530D01*
X111296491Y-83846168D01*
X111287833Y-83843603D01*
X111080426Y-83802347D01*
X111071433Y-83801402D01*
X110859985Y-83798633D01*
X110850970Y-83799343D01*
X110642556Y-83835155D01*
X110633832Y-83837493D01*
X110435436Y-83910684D01*
X110427268Y-83914580D01*
X110245538Y-84022698D01*
X110238224Y-84028012D01*
X110224397Y-84040139D01*
X110217578Y-84051601D01*
X99348725Y-84051601D01*
X102245830Y-81154496D01*
X102300347Y-81126719D01*
X102315834Y-81125500D01*
X117387184Y-81125500D01*
X117395813Y-81125877D01*
X117434525Y-81129264D01*
X117444023Y-81126719D01*
X117472067Y-81119204D01*
X117480502Y-81117334D01*
X117510235Y-81112092D01*
X117510237Y-81112091D01*
X117518763Y-81110588D01*
X117526262Y-81106258D01*
X117531747Y-81104262D01*
X117537034Y-81101796D01*
X117545402Y-81099554D01*
X117577229Y-81077268D01*
X117584513Y-81072627D01*
X117618173Y-81053194D01*
X117643148Y-81023430D01*
X117648982Y-81017062D01*
X118658157Y-80007888D01*
X118658159Y-80007885D01*
X118911548Y-79754496D01*
X118966065Y-79726719D01*
X118981552Y-79725500D01*
X119193612Y-79725500D01*
X119251803Y-79744407D01*
X119269394Y-79760797D01*
X119282970Y-79776948D01*
X119288841Y-79780856D01*
X119288842Y-79780857D01*
X119301143Y-79789045D01*
X119402313Y-79856390D01*
X119502920Y-79887821D01*
X119532425Y-79897039D01*
X119532426Y-79897039D01*
X119539157Y-79899142D01*
X119610828Y-79900456D01*
X119675445Y-79901641D01*
X119675447Y-79901641D01*
X119682499Y-79901770D01*
X119689302Y-79899915D01*
X119689304Y-79899915D01*
X119764503Y-79879413D01*
X119820817Y-79864060D01*
X119942991Y-79789045D01*
X119950403Y-79780857D01*
X120034468Y-79687982D01*
X120039200Y-79682754D01*
X120101710Y-79553733D01*
X120125496Y-79412354D01*
X120125647Y-79400000D01*
X120105323Y-79258082D01*
X120045984Y-79127572D01*
X119952400Y-79018963D01*
X119832095Y-78940985D01*
X119694739Y-78899907D01*
X119611497Y-78899398D01*
X119558427Y-78899074D01*
X119558426Y-78899074D01*
X119551376Y-78899031D01*
X119544599Y-78900968D01*
X119544598Y-78900968D01*
X119420309Y-78936490D01*
X119420307Y-78936491D01*
X119413529Y-78938428D01*
X119292280Y-79014930D01*
X119290918Y-79012771D01*
X119281344Y-79016719D01*
X119270652Y-79039420D01*
X119269230Y-79041029D01*
X119216542Y-79072133D01*
X119195022Y-79074500D01*
X119194834Y-79074500D01*
X119136643Y-79055593D01*
X119100679Y-79006093D01*
X119100679Y-78944907D01*
X119124830Y-78905496D01*
X119126437Y-78903889D01*
X119151552Y-78891092D01*
X119167294Y-78863033D01*
X119940538Y-78089789D01*
X119995055Y-78062012D01*
X120049622Y-78068833D01*
X120097009Y-78089192D01*
X120207436Y-78136635D01*
X120285165Y-78154223D01*
X120418206Y-78184328D01*
X120418211Y-78184329D01*
X120422632Y-78185329D01*
X120532865Y-78189660D01*
X120638565Y-78193813D01*
X120638566Y-78193813D01*
X120643098Y-78193991D01*
X120861452Y-78162331D01*
X120865751Y-78160872D01*
X120865754Y-78160871D01*
X121066078Y-78092870D01*
X121070379Y-78091410D01*
X121162259Y-78039955D01*
X121258925Y-77985819D01*
X121262884Y-77983602D01*
X121432518Y-77842518D01*
X121573602Y-77672884D01*
X121681410Y-77480379D01*
X121752331Y-77271452D01*
X121765156Y-77182999D01*
X121783571Y-77055997D01*
X121783571Y-77055991D01*
X121783991Y-77053098D01*
X121785643Y-76990000D01*
X121765454Y-76770289D01*
X121705565Y-76557936D01*
X121703557Y-76553864D01*
X121703555Y-76553859D01*
X121609988Y-76364125D01*
X121607980Y-76360053D01*
X121475967Y-76183267D01*
X121313949Y-76033499D01*
X121127350Y-75915764D01*
X120922421Y-75834006D01*
X120706024Y-75790962D01*
X120597347Y-75789539D01*
X120489946Y-75788133D01*
X120489941Y-75788133D01*
X120485406Y-75788074D01*
X120480933Y-75788843D01*
X120480928Y-75788843D01*
X120272435Y-75824668D01*
X120272429Y-75824670D01*
X120267957Y-75825438D01*
X120240176Y-75835687D01*
X120065220Y-75900231D01*
X120065217Y-75900232D01*
X120060957Y-75901804D01*
X120057054Y-75904126D01*
X120057052Y-75904127D01*
X120037492Y-75915764D01*
X119871341Y-76014614D01*
X119867926Y-76017609D01*
X119867923Y-76017611D01*
X119760036Y-76112225D01*
X119705457Y-76160090D01*
X119568863Y-76333360D01*
X119466131Y-76528620D01*
X119400703Y-76739333D01*
X119400169Y-76743843D01*
X119400169Y-76743844D01*
X119397039Y-76770289D01*
X119374770Y-76958440D01*
X119389200Y-77178604D01*
X119390316Y-77182997D01*
X119390316Y-77182999D01*
X119413873Y-77275754D01*
X119443511Y-77392452D01*
X119445407Y-77396565D01*
X119445410Y-77396573D01*
X119500990Y-77517134D01*
X119508182Y-77577895D01*
X119481088Y-77628585D01*
X117113690Y-79995984D01*
X117059173Y-80023761D01*
X117043686Y-80024980D01*
X101972337Y-80024980D01*
X101963708Y-80024603D01*
X101933625Y-80021971D01*
X101924996Y-80021216D01*
X101916629Y-80023458D01*
X101887454Y-80031276D01*
X101879019Y-80033146D01*
X101849286Y-80038388D01*
X101849284Y-80038389D01*
X101840758Y-80039892D01*
X101833259Y-80044222D01*
X101827774Y-80046218D01*
X101822487Y-80048684D01*
X101814119Y-80050926D01*
X101784747Y-80071493D01*
X101782292Y-80073212D01*
X101775011Y-80077851D01*
X101741348Y-80097286D01*
X101735781Y-80103921D01*
X101716372Y-80127051D01*
X101710538Y-80133419D01*
X97376933Y-84467023D01*
X97370566Y-84472857D01*
X97340796Y-84497837D01*
X97336467Y-84505336D01*
X97321363Y-84531497D01*
X97316722Y-84538781D01*
X97294436Y-84570608D01*
X97292194Y-84578976D01*
X97289728Y-84584263D01*
X97287732Y-84589748D01*
X97283402Y-84597247D01*
X97281899Y-84605773D01*
X97281898Y-84605775D01*
X97276656Y-84635508D01*
X97274786Y-84643942D01*
X97264726Y-84681485D01*
X97265481Y-84690114D01*
X97268113Y-84720197D01*
X97268490Y-84728826D01*
X97268490Y-108904463D01*
X97262519Y-108938324D01*
X97261745Y-108940451D01*
X97257413Y-108947954D01*
X97255909Y-108956485D01*
X97250667Y-108986215D01*
X97248797Y-108994649D01*
X97238737Y-109032192D01*
X97239492Y-109040821D01*
X97242124Y-109070904D01*
X97242501Y-109079533D01*
X97242501Y-109848500D01*
X97223594Y-109906691D01*
X97174094Y-109942655D01*
X97143501Y-109947500D01*
X95523252Y-109947500D01*
X95497005Y-109952721D01*
X95474334Y-109957230D01*
X95474332Y-109957231D01*
X95464769Y-109959133D01*
X95398448Y-110003448D01*
X95354133Y-110069769D01*
X95342500Y-110128252D01*
X95342500Y-111867748D01*
X95354133Y-111926231D01*
X95398448Y-111992552D01*
X95464769Y-112036867D01*
X95474332Y-112038769D01*
X95474334Y-112038770D01*
X95497005Y-112043279D01*
X95523252Y-112048500D01*
X97143501Y-112048500D01*
X97201692Y-112067407D01*
X97237656Y-112116907D01*
X97242501Y-112147500D01*
X97242501Y-112666947D01*
X97223594Y-112725138D01*
X97174094Y-112761102D01*
X97112908Y-112761102D01*
X97080398Y-112743229D01*
X96995611Y-112673087D01*
X96987002Y-112665965D01*
X96987000Y-112665964D01*
X96983275Y-112662882D01*
X96871123Y-112602242D01*
X96806309Y-112567197D01*
X96806308Y-112567197D01*
X96802055Y-112564897D01*
X96736108Y-112544483D01*
X96609875Y-112505407D01*
X96609871Y-112505406D01*
X96605254Y-112503977D01*
X96600446Y-112503472D01*
X96600443Y-112503471D01*
X96405185Y-112482949D01*
X96405183Y-112482949D01*
X96400369Y-112482443D01*
X96340354Y-112487905D01*
X96200022Y-112500675D01*
X96200017Y-112500676D01*
X96195203Y-112501114D01*
X95997572Y-112559280D01*
X95993288Y-112561519D01*
X95993287Y-112561520D01*
X95952868Y-112582651D01*
X95815002Y-112654726D01*
X95811231Y-112657758D01*
X95658220Y-112780781D01*
X95658217Y-112780783D01*
X95654447Y-112783815D01*
X95651333Y-112787526D01*
X95651332Y-112787527D01*
X95548196Y-112910440D01*
X95522024Y-112941630D01*
X95422776Y-113122162D01*
X95421313Y-113126775D01*
X95421311Y-113126779D01*
X95401210Y-113190147D01*
X95360484Y-113318532D01*
X95359944Y-113323344D01*
X95359944Y-113323345D01*
X95338133Y-113517799D01*
X95337520Y-113523262D01*
X95343200Y-113590907D01*
X95354083Y-113720500D01*
X95354759Y-113728553D01*
X95356092Y-113733201D01*
X95356092Y-113733202D01*
X95409495Y-113919439D01*
X95411544Y-113926586D01*
X95505712Y-114109818D01*
X95633677Y-114271270D01*
X95637357Y-114274402D01*
X95637359Y-114274404D01*
X95670283Y-114302424D01*
X95790564Y-114404791D01*
X95794787Y-114407151D01*
X95794791Y-114407154D01*
X95834342Y-114429258D01*
X95970398Y-114505297D01*
X95974996Y-114506791D01*
X96161724Y-114567463D01*
X96161726Y-114567464D01*
X96166329Y-114568959D01*
X96370894Y-114593351D01*
X96375716Y-114592980D01*
X96375719Y-114592980D01*
X96443541Y-114587761D01*
X96576300Y-114577546D01*
X96774725Y-114522145D01*
X96779038Y-114519966D01*
X96779044Y-114519964D01*
X96954289Y-114431441D01*
X96954291Y-114431440D01*
X96958610Y-114429258D01*
X96976407Y-114415354D01*
X97053850Y-114354849D01*
X97082551Y-114332425D01*
X97140046Y-114311498D01*
X97198861Y-114328363D01*
X97236531Y-114376578D01*
X97242501Y-114410438D01*
X97242501Y-115206947D01*
X97223594Y-115265138D01*
X97174094Y-115301102D01*
X97112908Y-115301102D01*
X97080398Y-115283229D01*
X96983275Y-115202882D01*
X96822819Y-115116124D01*
X96806309Y-115107197D01*
X96806308Y-115107197D01*
X96802055Y-115104897D01*
X96738855Y-115085333D01*
X96609875Y-115045407D01*
X96609871Y-115045406D01*
X96605254Y-115043977D01*
X96600446Y-115043472D01*
X96600443Y-115043471D01*
X96405185Y-115022949D01*
X96405183Y-115022949D01*
X96400369Y-115022443D01*
X96340354Y-115027905D01*
X96200022Y-115040675D01*
X96200017Y-115040676D01*
X96195203Y-115041114D01*
X95997572Y-115099280D01*
X95993288Y-115101519D01*
X95993287Y-115101520D01*
X95925528Y-115136944D01*
X95815002Y-115194726D01*
X95811231Y-115197758D01*
X95658220Y-115320781D01*
X95658217Y-115320783D01*
X95654447Y-115323815D01*
X95651333Y-115327526D01*
X95651332Y-115327527D01*
X95525953Y-115476948D01*
X95522024Y-115481630D01*
X95422776Y-115662162D01*
X95421313Y-115666775D01*
X95421311Y-115666779D01*
X95416914Y-115680641D01*
X95360484Y-115858532D01*
X95337520Y-116063262D01*
X95354759Y-116268553D01*
X95356092Y-116273201D01*
X95356092Y-116273202D01*
X95398609Y-116421475D01*
X95411544Y-116466586D01*
X95505712Y-116649818D01*
X95633677Y-116811270D01*
X95637357Y-116814402D01*
X95637359Y-116814404D01*
X95733555Y-116896273D01*
X95790564Y-116944791D01*
X95794787Y-116947151D01*
X95794791Y-116947154D01*
X95834342Y-116969258D01*
X95970398Y-117045297D01*
X95974996Y-117046791D01*
X96161724Y-117107463D01*
X96161726Y-117107464D01*
X96166329Y-117108959D01*
X96370894Y-117133351D01*
X96375716Y-117132980D01*
X96375719Y-117132980D01*
X96443541Y-117127761D01*
X96576300Y-117117546D01*
X96774725Y-117062145D01*
X96779038Y-117059966D01*
X96779044Y-117059964D01*
X96954289Y-116971441D01*
X96954291Y-116971440D01*
X96958610Y-116969258D01*
X97108541Y-116852120D01*
X97166035Y-116831193D01*
X97224850Y-116848058D01*
X97262520Y-116896273D01*
X97268490Y-116930133D01*
X97268490Y-117768447D01*
X97249583Y-117826638D01*
X97200083Y-117862602D01*
X97138897Y-117862602D01*
X97106387Y-117844729D01*
X96983275Y-117742882D01*
X96802055Y-117644897D01*
X96738855Y-117625333D01*
X96609875Y-117585407D01*
X96609871Y-117585406D01*
X96605254Y-117583977D01*
X96600446Y-117583472D01*
X96600443Y-117583471D01*
X96405185Y-117562949D01*
X96405183Y-117562949D01*
X96400369Y-117562443D01*
X96340354Y-117567905D01*
X96200022Y-117580675D01*
X96200017Y-117580676D01*
X96195203Y-117581114D01*
X95997572Y-117639280D01*
X95993288Y-117641519D01*
X95993287Y-117641520D01*
X95982428Y-117647197D01*
X95815002Y-117734726D01*
X95811231Y-117737758D01*
X95658220Y-117860781D01*
X95658217Y-117860783D01*
X95654447Y-117863815D01*
X95651333Y-117867526D01*
X95651332Y-117867527D01*
X95527289Y-118015356D01*
X95522024Y-118021630D01*
X95422776Y-118202162D01*
X95421313Y-118206775D01*
X95421311Y-118206779D01*
X95382632Y-118328712D01*
X95360484Y-118398532D01*
X95337520Y-118603262D01*
X95354759Y-118808553D01*
X95411544Y-119006586D01*
X95505712Y-119189818D01*
X95633677Y-119351270D01*
X95637357Y-119354402D01*
X95637359Y-119354404D01*
X95733555Y-119436273D01*
X95790564Y-119484791D01*
X95794787Y-119487151D01*
X95794791Y-119487154D01*
X95834342Y-119509258D01*
X95970398Y-119585297D01*
X95974996Y-119586791D01*
X96161724Y-119647463D01*
X96161726Y-119647464D01*
X96166329Y-119648959D01*
X96370894Y-119673351D01*
X96375716Y-119672980D01*
X96375719Y-119672980D01*
X96443541Y-119667761D01*
X96576300Y-119657546D01*
X96774725Y-119602145D01*
X96779038Y-119599966D01*
X96779044Y-119599964D01*
X96954289Y-119511441D01*
X96954291Y-119511440D01*
X96958610Y-119509258D01*
X97108541Y-119392120D01*
X97166035Y-119371193D01*
X97224850Y-119388058D01*
X97262520Y-119436273D01*
X97268490Y-119470133D01*
X97268490Y-120308447D01*
X97249583Y-120366638D01*
X97200083Y-120402602D01*
X97138897Y-120402602D01*
X97106387Y-120384729D01*
X96994221Y-120291937D01*
X96987002Y-120285965D01*
X96987000Y-120285964D01*
X96983275Y-120282882D01*
X96802055Y-120184897D01*
X96738855Y-120165333D01*
X96609875Y-120125407D01*
X96609871Y-120125406D01*
X96605254Y-120123977D01*
X96600446Y-120123472D01*
X96600443Y-120123471D01*
X96405185Y-120102949D01*
X96405183Y-120102949D01*
X96400369Y-120102443D01*
X96349119Y-120107107D01*
X96200022Y-120120675D01*
X96200017Y-120120676D01*
X96195203Y-120121114D01*
X95997572Y-120179280D01*
X95993288Y-120181519D01*
X95993287Y-120181520D01*
X95982428Y-120187197D01*
X95815002Y-120274726D01*
X95811231Y-120277758D01*
X95658220Y-120400781D01*
X95658217Y-120400783D01*
X95654447Y-120403815D01*
X95651333Y-120407526D01*
X95651332Y-120407527D01*
X95551654Y-120526319D01*
X95522024Y-120561630D01*
X95519689Y-120565878D01*
X95519688Y-120565879D01*
X95512026Y-120579816D01*
X95422776Y-120742162D01*
X95421313Y-120746775D01*
X95421311Y-120746779D01*
X95393276Y-120835158D01*
X95360484Y-120938532D01*
X95359944Y-120943344D01*
X95359944Y-120943345D01*
X95346080Y-121066951D01*
X95337520Y-121143262D01*
X95340452Y-121178176D01*
X95348368Y-121272441D01*
X95354759Y-121348553D01*
X95356092Y-121353201D01*
X95356092Y-121353202D01*
X95377671Y-121428455D01*
X95411544Y-121546586D01*
X95413759Y-121550896D01*
X95427504Y-121577641D01*
X95505712Y-121729818D01*
X95633677Y-121891270D01*
X95637357Y-121894402D01*
X95637359Y-121894404D01*
X95680945Y-121931498D01*
X95790564Y-122024791D01*
X95794787Y-122027151D01*
X95794791Y-122027154D01*
X95911702Y-122092493D01*
X95970398Y-122125297D01*
X95974996Y-122126791D01*
X96161724Y-122187463D01*
X96161726Y-122187464D01*
X96166329Y-122188959D01*
X96370894Y-122213351D01*
X96375716Y-122212980D01*
X96375719Y-122212980D01*
X96443541Y-122207761D01*
X96576300Y-122197546D01*
X96774725Y-122142145D01*
X96779038Y-122139966D01*
X96779044Y-122139964D01*
X96954289Y-122051441D01*
X96954291Y-122051440D01*
X96958610Y-122049258D01*
X97082551Y-121952425D01*
X97140046Y-121931498D01*
X97198861Y-121948363D01*
X97236531Y-121996578D01*
X97242501Y-122030438D01*
X97242501Y-122826947D01*
X97223594Y-122885138D01*
X97174094Y-122921102D01*
X97112908Y-122921102D01*
X97080398Y-122903229D01*
X96983275Y-122822882D01*
X96802055Y-122724897D01*
X96738855Y-122705333D01*
X96609875Y-122665407D01*
X96609871Y-122665406D01*
X96605254Y-122663977D01*
X96600446Y-122663472D01*
X96600443Y-122663471D01*
X96405185Y-122642949D01*
X96405183Y-122642949D01*
X96400369Y-122642443D01*
X96340354Y-122647905D01*
X96200022Y-122660675D01*
X96200017Y-122660676D01*
X96195203Y-122661114D01*
X95997572Y-122719280D01*
X95993288Y-122721519D01*
X95993287Y-122721520D01*
X95982428Y-122727197D01*
X95815002Y-122814726D01*
X95811231Y-122817758D01*
X95658220Y-122940781D01*
X95658217Y-122940783D01*
X95654447Y-122943815D01*
X95522024Y-123101630D01*
X95422776Y-123282162D01*
X95360484Y-123478532D01*
X95337520Y-123683262D01*
X95354759Y-123888553D01*
X95356092Y-123893201D01*
X95356092Y-123893202D01*
X95366292Y-123928772D01*
X95411544Y-124086586D01*
X95505712Y-124269818D01*
X95633677Y-124431270D01*
X95637357Y-124434402D01*
X95637359Y-124434404D01*
X95712241Y-124498133D01*
X95790564Y-124564791D01*
X95794787Y-124567151D01*
X95794791Y-124567154D01*
X95899662Y-124625764D01*
X95970398Y-124665297D01*
X95974996Y-124666791D01*
X96161724Y-124727463D01*
X96161726Y-124727464D01*
X96166329Y-124728959D01*
X96370894Y-124753351D01*
X96375716Y-124752980D01*
X96375719Y-124752980D01*
X96443541Y-124747761D01*
X96576300Y-124737546D01*
X96774725Y-124682145D01*
X96779038Y-124679966D01*
X96779044Y-124679964D01*
X96954289Y-124591441D01*
X96954291Y-124591440D01*
X96958610Y-124589258D01*
X97014379Y-124545687D01*
X97117135Y-124465406D01*
X97117139Y-124465402D01*
X97120951Y-124462424D01*
X97140461Y-124439822D01*
X97187582Y-124385231D01*
X97255564Y-124306472D01*
X97271215Y-124278921D01*
X97354934Y-124131550D01*
X97354935Y-124131547D01*
X97357323Y-124127344D01*
X97406997Y-123978019D01*
X97443305Y-123928772D01*
X97501626Y-123910271D01*
X97559683Y-123929584D01*
X97570939Y-123939265D01*
X98588503Y-124956829D01*
X98616280Y-125011346D01*
X98617499Y-125026833D01*
X98617499Y-141723465D01*
X98617124Y-141732076D01*
X98616342Y-141741012D01*
X98592438Y-141797332D01*
X98539993Y-141828847D01*
X98479041Y-141823517D01*
X98447715Y-141802389D01*
X97382496Y-140737170D01*
X97354719Y-140682653D01*
X97353500Y-140667166D01*
X97353500Y-133652834D01*
X97372407Y-133594643D01*
X97382496Y-133582830D01*
X97450470Y-133514856D01*
X97456838Y-133509021D01*
X97486607Y-133484042D01*
X97506042Y-133450379D01*
X97510681Y-133443098D01*
X97519252Y-133430857D01*
X97532967Y-133411271D01*
X97535209Y-133402903D01*
X97537675Y-133397616D01*
X97539671Y-133392131D01*
X97544001Y-133384632D01*
X97546029Y-133373130D01*
X97548207Y-133368679D01*
X97548468Y-133367962D01*
X97548544Y-133367990D01*
X97570127Y-133323884D01*
X97647881Y-133237982D01*
X97652613Y-133232754D01*
X97693762Y-133147823D01*
X97712047Y-133110082D01*
X97715123Y-133103733D01*
X97719795Y-133075968D01*
X97738275Y-132966124D01*
X97738275Y-132966120D01*
X97738909Y-132962354D01*
X97739060Y-132950000D01*
X97718736Y-132808082D01*
X97665272Y-132690494D01*
X97662318Y-132683996D01*
X97662317Y-132683995D01*
X97659397Y-132677572D01*
X97592172Y-132599554D01*
X97570418Y-132574307D01*
X97570417Y-132574306D01*
X97565813Y-132568963D01*
X97445508Y-132490985D01*
X97308152Y-132449907D01*
X97224910Y-132449398D01*
X97171840Y-132449074D01*
X97171839Y-132449074D01*
X97164789Y-132449031D01*
X97158012Y-132450968D01*
X97158011Y-132450968D01*
X97106868Y-132465585D01*
X97045722Y-132463396D01*
X96997540Y-132425685D01*
X96989541Y-132411371D01*
X96948906Y-132321998D01*
X96948905Y-132321996D01*
X96945984Y-132315572D01*
X96852400Y-132206963D01*
X96732095Y-132128985D01*
X96594739Y-132087907D01*
X96511497Y-132087398D01*
X96458427Y-132087074D01*
X96458426Y-132087074D01*
X96451376Y-132087031D01*
X96444599Y-132088968D01*
X96444598Y-132088968D01*
X96320309Y-132124490D01*
X96320307Y-132124491D01*
X96313529Y-132126428D01*
X96192280Y-132202930D01*
X96187613Y-132208214D01*
X96187611Y-132208216D01*
X96102044Y-132305103D01*
X96102042Y-132305105D01*
X96097377Y-132310388D01*
X96036447Y-132440163D01*
X96035362Y-132447132D01*
X96035361Y-132447135D01*
X96023483Y-132523429D01*
X96014391Y-132581823D01*
X96015306Y-132588820D01*
X96015306Y-132588821D01*
X96026830Y-132676948D01*
X96032980Y-132723979D01*
X96035821Y-132730435D01*
X96035821Y-132730436D01*
X96073248Y-132815494D01*
X96090720Y-132855203D01*
X96141040Y-132915066D01*
X96171283Y-132951045D01*
X96194253Y-133007755D01*
X96194500Y-133014747D01*
X96194500Y-141205466D01*
X96194123Y-141214095D01*
X96190736Y-141252807D01*
X96192978Y-141261174D01*
X96200796Y-141290349D01*
X96202666Y-141298783D01*
X96209412Y-141337045D01*
X96213742Y-141344544D01*
X96215738Y-141350029D01*
X96218204Y-141355316D01*
X96220446Y-141363684D01*
X96241013Y-141393056D01*
X96242732Y-141395511D01*
X96247371Y-141402792D01*
X96266806Y-141436455D01*
X96296571Y-141461431D01*
X96302939Y-141467265D01*
X98526353Y-143690680D01*
X98554130Y-143745197D01*
X98554838Y-143754952D01*
X98554391Y-143757823D01*
X98572980Y-143899979D01*
X98630720Y-144031203D01*
X98676845Y-144086076D01*
X98718431Y-144135549D01*
X98718434Y-144135551D01*
X98722970Y-144140948D01*
X98842313Y-144220390D01*
X98942920Y-144251821D01*
X98972425Y-144261039D01*
X98972426Y-144261039D01*
X98979157Y-144263142D01*
X99044301Y-144264336D01*
X99115441Y-144265641D01*
X99115444Y-144265641D01*
X99119818Y-144265721D01*
X99119819Y-144265721D01*
X99122499Y-144265770D01*
X99122490Y-144266235D01*
X99177927Y-144276910D01*
X99219735Y-144321585D01*
X99227298Y-144382301D01*
X99200088Y-144433586D01*
X99129226Y-144504448D01*
X99074709Y-144532225D01*
X99058617Y-144533442D01*
X98998427Y-144533074D01*
X98998426Y-144533074D01*
X98991376Y-144533031D01*
X98984599Y-144534968D01*
X98984598Y-144534968D01*
X98860309Y-144570490D01*
X98860307Y-144570491D01*
X98853529Y-144572428D01*
X98732280Y-144648930D01*
X98727613Y-144654214D01*
X98727611Y-144654216D01*
X98642044Y-144751103D01*
X98642042Y-144751105D01*
X98637377Y-144756388D01*
X98576447Y-144886163D01*
X98575362Y-144893132D01*
X98575361Y-144893135D01*
X98562278Y-144977164D01*
X98554391Y-145027823D01*
X98555306Y-145034820D01*
X98555306Y-145034821D01*
X98556814Y-145046354D01*
X98572980Y-145169979D01*
X98575821Y-145176435D01*
X98575821Y-145176436D01*
X98583586Y-145194082D01*
X98630720Y-145301203D01*
X98643792Y-145316754D01*
X98718431Y-145405549D01*
X98718434Y-145405551D01*
X98722970Y-145410948D01*
X98728841Y-145414856D01*
X98728842Y-145414857D01*
X98741143Y-145423045D01*
X98842313Y-145490390D01*
X98942920Y-145521821D01*
X98972425Y-145531039D01*
X98972426Y-145531039D01*
X98979157Y-145533142D01*
X99050828Y-145534456D01*
X99115445Y-145535641D01*
X99115447Y-145535641D01*
X99122499Y-145535770D01*
X99129302Y-145533915D01*
X99129304Y-145533915D01*
X99204503Y-145513413D01*
X99260817Y-145498060D01*
X99382991Y-145423045D01*
X99390403Y-145414857D01*
X99474468Y-145321982D01*
X99479200Y-145316754D01*
X99541710Y-145187733D01*
X99545875Y-145162982D01*
X99564862Y-145050124D01*
X99564862Y-145050120D01*
X99565496Y-145046354D01*
X99565647Y-145034000D01*
X99566136Y-145034006D01*
X99580601Y-144977164D01*
X99594299Y-144960027D01*
X99835496Y-144718830D01*
X99890013Y-144691053D01*
X99950445Y-144700624D01*
X99993710Y-144743889D01*
X100004500Y-144788834D01*
X100004500Y-145493166D01*
X99985593Y-145551357D01*
X99975504Y-145563170D01*
X99350943Y-146187731D01*
X99344576Y-146193565D01*
X99314806Y-146218545D01*
X99310477Y-146226044D01*
X99295373Y-146252205D01*
X99290732Y-146259489D01*
X99268446Y-146291316D01*
X99266204Y-146299684D01*
X99263738Y-146304971D01*
X99261742Y-146310456D01*
X99257412Y-146317955D01*
X99255909Y-146326481D01*
X99255908Y-146326483D01*
X99250666Y-146356216D01*
X99248796Y-146364650D01*
X99238736Y-146402193D01*
X99239491Y-146410822D01*
X99242123Y-146440905D01*
X99242500Y-146449534D01*
X99242500Y-147148959D01*
X99223593Y-147207150D01*
X99217716Y-147214479D01*
X99145377Y-147296388D01*
X99084447Y-147426163D01*
X99083362Y-147433132D01*
X99083361Y-147433135D01*
X99075987Y-147480500D01*
X99062391Y-147567823D01*
X99063306Y-147574820D01*
X99063306Y-147574821D01*
X99070258Y-147627982D01*
X99080980Y-147709979D01*
X99083821Y-147716435D01*
X99083821Y-147716436D01*
X99091586Y-147734082D01*
X99138720Y-147841203D01*
X99151792Y-147856754D01*
X99226431Y-147945549D01*
X99226434Y-147945551D01*
X99230970Y-147950948D01*
X99236841Y-147954856D01*
X99236842Y-147954857D01*
X99249143Y-147963045D01*
X99350313Y-148030390D01*
X99450920Y-148061821D01*
X99480425Y-148071039D01*
X99480426Y-148071039D01*
X99487157Y-148073142D01*
X99558828Y-148074456D01*
X99623445Y-148075641D01*
X99623447Y-148075641D01*
X99630499Y-148075770D01*
X99637302Y-148073915D01*
X99637304Y-148073915D01*
X99712503Y-148053413D01*
X99768817Y-148038060D01*
X99890991Y-147963045D01*
X99898403Y-147954857D01*
X99982468Y-147861982D01*
X99987200Y-147856754D01*
X100049710Y-147727733D01*
X100053875Y-147702982D01*
X100072862Y-147590124D01*
X100072862Y-147590120D01*
X100073496Y-147586354D01*
X100073647Y-147574000D01*
X100053323Y-147432082D01*
X99993984Y-147301572D01*
X99917500Y-147212808D01*
X99893840Y-147156386D01*
X99893500Y-147148187D01*
X99893500Y-146606834D01*
X99912407Y-146548643D01*
X99922496Y-146536830D01*
X100547057Y-145912269D01*
X100553425Y-145906434D01*
X100583194Y-145881455D01*
X100602629Y-145847792D01*
X100607268Y-145840511D01*
X100608987Y-145838056D01*
X100629554Y-145808684D01*
X100631796Y-145800316D01*
X100634262Y-145795029D01*
X100636258Y-145789544D01*
X100640588Y-145782045D01*
X100647334Y-145743783D01*
X100649204Y-145735349D01*
X100657022Y-145706174D01*
X100659264Y-145697807D01*
X100655877Y-145659091D01*
X100655500Y-145650463D01*
X100655500Y-143147534D01*
X100655877Y-143138905D01*
X100658509Y-143108822D01*
X100659264Y-143100193D01*
X100649204Y-143062650D01*
X100647334Y-143054216D01*
X100642092Y-143024483D01*
X100642091Y-143024481D01*
X100640588Y-143015955D01*
X100636258Y-143008456D01*
X100634262Y-143002971D01*
X100631796Y-142997684D01*
X100629554Y-142989316D01*
X100607268Y-142957489D01*
X100602627Y-142950205D01*
X100587523Y-142924044D01*
X100583194Y-142916545D01*
X100553429Y-142891569D01*
X100547061Y-142885735D01*
X99297495Y-141636169D01*
X99269718Y-141581652D01*
X99268499Y-141566165D01*
X99268499Y-139249478D01*
X99287406Y-139191287D01*
X99336906Y-139155323D01*
X99397020Y-139154982D01*
X99398112Y-139155323D01*
X99480425Y-139181039D01*
X99480426Y-139181039D01*
X99487157Y-139183142D01*
X99558828Y-139184456D01*
X99623445Y-139185641D01*
X99623447Y-139185641D01*
X99630499Y-139185770D01*
X99637302Y-139183915D01*
X99637304Y-139183915D01*
X99712503Y-139163413D01*
X99768817Y-139148060D01*
X99890991Y-139073045D01*
X99907486Y-139054822D01*
X99982468Y-138971982D01*
X99987200Y-138966754D01*
X100028349Y-138881823D01*
X100046634Y-138844082D01*
X100049710Y-138837733D01*
X100073496Y-138696354D01*
X100073647Y-138684000D01*
X100053323Y-138542082D01*
X99993984Y-138411572D01*
X99917500Y-138322808D01*
X99893840Y-138266386D01*
X99893500Y-138258187D01*
X99893500Y-131178563D01*
X99912407Y-131120372D01*
X99961907Y-131084408D01*
X100023093Y-131084408D01*
X100047358Y-131096152D01*
X100112313Y-131139390D01*
X100212920Y-131170821D01*
X100242425Y-131180039D01*
X100242426Y-131180039D01*
X100249157Y-131182142D01*
X100320828Y-131183456D01*
X100385445Y-131184641D01*
X100385447Y-131184641D01*
X100392499Y-131184770D01*
X100399302Y-131182915D01*
X100399304Y-131182915D01*
X100474503Y-131162413D01*
X100530817Y-131147060D01*
X100652991Y-131072045D01*
X100679429Y-131042837D01*
X100681035Y-131041063D01*
X100734103Y-131010610D01*
X100754432Y-131008500D01*
X100789167Y-131008500D01*
X100847358Y-131027407D01*
X100859177Y-131037503D01*
X100864510Y-131042837D01*
X100892283Y-131097356D01*
X100893500Y-131112834D01*
X100893500Y-144500466D01*
X100893123Y-144509095D01*
X100889736Y-144547807D01*
X100891978Y-144556174D01*
X100899796Y-144585349D01*
X100901666Y-144593784D01*
X100906545Y-144621454D01*
X100908412Y-144632045D01*
X100912742Y-144639544D01*
X100914738Y-144645029D01*
X100917204Y-144650316D01*
X100919446Y-144658684D01*
X100940013Y-144688056D01*
X100941732Y-144690511D01*
X100946371Y-144697792D01*
X100965806Y-144731455D01*
X100995520Y-144756388D01*
X100995571Y-144756431D01*
X101001939Y-144762265D01*
X102750169Y-146510496D01*
X102777946Y-146565013D01*
X102768375Y-146625445D01*
X102725110Y-146668710D01*
X102680165Y-146679500D01*
X102018481Y-146679500D01*
X102018477Y-146679501D01*
X101986567Y-146679501D01*
X101979160Y-146681907D01*
X101979157Y-146681908D01*
X101963627Y-146686954D01*
X101948525Y-146690580D01*
X101924696Y-146694354D01*
X101903210Y-146705302D01*
X101903206Y-146705304D01*
X101888856Y-146711249D01*
X101865910Y-146718704D01*
X101846386Y-146732889D01*
X101833156Y-146740996D01*
X101811658Y-146751950D01*
X101789091Y-146774517D01*
X100230103Y-148333504D01*
X100175586Y-148361281D01*
X100160099Y-148362500D01*
X94184650Y-148362500D01*
X94130803Y-148346575D01*
X94071016Y-148307823D01*
X94071017Y-148307823D01*
X94065095Y-148303985D01*
X93927739Y-148262907D01*
X93844497Y-148262398D01*
X93791427Y-148262074D01*
X93791426Y-148262074D01*
X93784376Y-148262031D01*
X93777599Y-148263968D01*
X93777598Y-148263968D01*
X93653309Y-148299490D01*
X93653307Y-148299491D01*
X93646529Y-148301428D01*
X93525280Y-148377930D01*
X93520613Y-148383214D01*
X93520611Y-148383216D01*
X93435044Y-148480103D01*
X93435042Y-148480105D01*
X93430377Y-148485388D01*
X93369447Y-148615163D01*
X93347391Y-148756823D01*
X93365980Y-148898979D01*
X93423720Y-149030203D01*
X93469845Y-149085076D01*
X93511431Y-149134549D01*
X93511434Y-149134551D01*
X93515970Y-149139948D01*
X93521841Y-149143856D01*
X93521842Y-149143857D01*
X93530868Y-149149865D01*
X93635313Y-149219390D01*
X93735920Y-149250821D01*
X93765425Y-149260039D01*
X93765426Y-149260039D01*
X93772157Y-149262142D01*
X93843828Y-149263456D01*
X93908445Y-149264641D01*
X93908447Y-149264641D01*
X93915499Y-149264770D01*
X93922302Y-149262915D01*
X93922304Y-149262915D01*
X93997503Y-149242413D01*
X94053817Y-149227060D01*
X94133501Y-149178134D01*
X94185302Y-149163500D01*
X100430433Y-149163500D01*
X100453380Y-149156044D01*
X100468481Y-149152419D01*
X100484609Y-149149865D01*
X100484611Y-149149864D01*
X100492304Y-149148646D01*
X100513797Y-149137695D01*
X100528143Y-149131752D01*
X100543679Y-149126704D01*
X100551090Y-149124296D01*
X100570607Y-149110116D01*
X100583846Y-149102002D01*
X100605342Y-149091050D01*
X100627905Y-149068487D01*
X100627909Y-149068484D01*
X102186896Y-147509496D01*
X102241413Y-147481719D01*
X102256900Y-147480500D01*
X116105339Y-147480500D01*
X116162767Y-147499159D01*
X116167158Y-147503550D01*
X116188656Y-147514504D01*
X116201886Y-147522611D01*
X116221410Y-147536796D01*
X116228820Y-147539204D01*
X116228821Y-147539204D01*
X116244355Y-147544251D01*
X116258704Y-147550195D01*
X116280196Y-147561146D01*
X116287892Y-147562365D01*
X116304024Y-147564920D01*
X116319127Y-147568546D01*
X116334657Y-147573592D01*
X116334660Y-147573593D01*
X116342067Y-147575999D01*
X116373977Y-147575999D01*
X116373981Y-147576000D01*
X119573914Y-147576000D01*
X119628772Y-147592589D01*
X119687813Y-147631890D01*
X119788420Y-147663321D01*
X119817925Y-147672539D01*
X119817926Y-147672539D01*
X119824657Y-147674642D01*
X119896328Y-147675956D01*
X119960945Y-147677141D01*
X119960947Y-147677141D01*
X119967999Y-147677270D01*
X119974802Y-147675415D01*
X119974804Y-147675415D01*
X120050003Y-147654913D01*
X120106317Y-147639560D01*
X120228491Y-147564545D01*
X120278319Y-147509496D01*
X120319968Y-147463482D01*
X120324700Y-147458254D01*
X120387210Y-147329233D01*
X120393625Y-147291107D01*
X120410362Y-147191624D01*
X120410362Y-147191620D01*
X120410996Y-147187854D01*
X120411147Y-147175500D01*
X120390823Y-147033582D01*
X120331484Y-146903072D01*
X120237900Y-146794463D01*
X120117595Y-146716485D01*
X119980239Y-146675407D01*
X119896997Y-146674898D01*
X119843927Y-146674574D01*
X119843926Y-146674574D01*
X119836876Y-146674531D01*
X119830099Y-146676468D01*
X119830098Y-146676468D01*
X119705809Y-146711990D01*
X119705807Y-146711991D01*
X119699029Y-146713928D01*
X119693064Y-146717692D01*
X119693061Y-146717693D01*
X119626440Y-146759727D01*
X119573613Y-146775000D01*
X116610162Y-146775000D01*
X116552733Y-146756341D01*
X116548342Y-146751950D01*
X116526846Y-146740998D01*
X116513605Y-146732883D01*
X116500395Y-146723285D01*
X116494090Y-146718704D01*
X116471143Y-146711248D01*
X116456794Y-146705304D01*
X116435304Y-146694354D01*
X116435303Y-146694354D01*
X116435752Y-146693472D01*
X116392004Y-146661687D01*
X116373096Y-146603497D01*
X116383002Y-146560330D01*
X116384522Y-146557194D01*
X116432710Y-146457733D01*
X116434090Y-146449534D01*
X116455862Y-146320124D01*
X116455862Y-146320120D01*
X116456496Y-146316354D01*
X116456647Y-146304000D01*
X116436323Y-146162082D01*
X116376984Y-146031572D01*
X116283400Y-145922963D01*
X116163095Y-145844985D01*
X116025739Y-145803907D01*
X115942497Y-145803398D01*
X115889427Y-145803074D01*
X115889426Y-145803074D01*
X115882376Y-145803031D01*
X115875599Y-145804968D01*
X115875598Y-145804968D01*
X115751309Y-145840490D01*
X115751307Y-145840491D01*
X115744529Y-145842428D01*
X115623280Y-145918930D01*
X115618613Y-145924214D01*
X115618611Y-145924216D01*
X115600226Y-145945034D01*
X115547534Y-145976134D01*
X115526022Y-145978500D01*
X103179835Y-145978500D01*
X103121644Y-145959593D01*
X103109831Y-145949504D01*
X101573496Y-144413170D01*
X101545719Y-144358653D01*
X101544500Y-144343166D01*
X101544500Y-141953807D01*
X122620736Y-141953807D01*
X122622978Y-141962174D01*
X122630796Y-141991349D01*
X122632666Y-141999783D01*
X122639412Y-142038045D01*
X122643742Y-142045544D01*
X122645738Y-142051029D01*
X122648204Y-142056316D01*
X122650446Y-142064684D01*
X122671013Y-142094056D01*
X122672732Y-142096511D01*
X122677371Y-142103792D01*
X122696806Y-142137455D01*
X122726571Y-142162431D01*
X122732939Y-142168265D01*
X123291353Y-142726679D01*
X123319130Y-142781196D01*
X123319838Y-142790951D01*
X123319391Y-142793823D01*
X123320306Y-142800820D01*
X123320306Y-142800822D01*
X123332173Y-142891569D01*
X123337980Y-142935979D01*
X123340821Y-142942435D01*
X123340821Y-142942436D01*
X123391880Y-143058475D01*
X123395720Y-143067203D01*
X123408792Y-143082754D01*
X123483431Y-143171549D01*
X123483434Y-143171551D01*
X123487970Y-143176948D01*
X123493841Y-143180856D01*
X123493842Y-143180857D01*
X123506143Y-143189045D01*
X123607313Y-143256390D01*
X123707040Y-143287546D01*
X123737425Y-143297039D01*
X123737426Y-143297039D01*
X123744157Y-143299142D01*
X123815828Y-143300456D01*
X123880445Y-143301641D01*
X123880447Y-143301641D01*
X123887499Y-143301770D01*
X123894302Y-143299915D01*
X123894304Y-143299915D01*
X123969503Y-143279413D01*
X124025817Y-143264060D01*
X124147991Y-143189045D01*
X124155403Y-143180857D01*
X124239468Y-143087982D01*
X124244200Y-143082754D01*
X124306710Y-142953733D01*
X124310875Y-142928982D01*
X124329862Y-142816124D01*
X124329862Y-142816120D01*
X124330496Y-142812354D01*
X124330647Y-142800000D01*
X124310323Y-142658082D01*
X124250984Y-142527572D01*
X124157400Y-142418963D01*
X124037095Y-142340985D01*
X123899739Y-142299907D01*
X123877266Y-142299770D01*
X123825182Y-142299451D01*
X123767108Y-142280188D01*
X123755783Y-142270457D01*
X123304496Y-141819170D01*
X123276719Y-141764653D01*
X123275500Y-141749166D01*
X123275500Y-139769925D01*
X123294407Y-139711734D01*
X123312382Y-139698674D01*
X123286409Y-139672837D01*
X123275500Y-139627661D01*
X123275500Y-139250834D01*
X123294407Y-139192643D01*
X123304496Y-139180830D01*
X123905677Y-138579649D01*
X123960194Y-138551872D01*
X123977494Y-138550670D01*
X123994439Y-138550981D01*
X124030446Y-138551641D01*
X124030448Y-138551641D01*
X124037499Y-138551770D01*
X124044302Y-138549915D01*
X124044304Y-138549915D01*
X124119503Y-138529413D01*
X124175817Y-138514060D01*
X124297991Y-138439045D01*
X124317044Y-138417996D01*
X124389468Y-138337982D01*
X124394200Y-138332754D01*
X124456710Y-138203733D01*
X124480496Y-138062354D01*
X124480647Y-138050000D01*
X124460323Y-137908082D01*
X124400984Y-137777572D01*
X124340582Y-137707472D01*
X124312005Y-137674307D01*
X124312004Y-137674306D01*
X124307400Y-137668963D01*
X124187095Y-137590985D01*
X124049739Y-137549907D01*
X123966497Y-137549398D01*
X123913427Y-137549074D01*
X123913426Y-137549074D01*
X123906376Y-137549031D01*
X123899599Y-137550968D01*
X123899598Y-137550968D01*
X123775309Y-137586490D01*
X123775307Y-137586491D01*
X123768529Y-137588428D01*
X123647280Y-137664930D01*
X123642613Y-137670214D01*
X123642611Y-137670216D01*
X123557044Y-137767103D01*
X123557042Y-137767105D01*
X123552377Y-137772388D01*
X123491447Y-137902163D01*
X123469391Y-138043823D01*
X123470306Y-138050822D01*
X123470260Y-138054608D01*
X123450643Y-138112564D01*
X123441271Y-138123403D01*
X122732943Y-138831731D01*
X122726576Y-138837565D01*
X122696806Y-138862545D01*
X122692477Y-138870044D01*
X122677373Y-138896205D01*
X122672732Y-138903489D01*
X122650446Y-138935316D01*
X122648204Y-138943684D01*
X122645738Y-138948971D01*
X122643742Y-138954456D01*
X122639412Y-138961955D01*
X122637909Y-138970481D01*
X122637908Y-138970483D01*
X122632666Y-139000216D01*
X122630796Y-139008650D01*
X122620736Y-139046193D01*
X122621491Y-139054822D01*
X122624123Y-139084905D01*
X122624500Y-139093534D01*
X122624500Y-141906466D01*
X122624123Y-141915095D01*
X122620736Y-141953807D01*
X101544500Y-141953807D01*
X101544500Y-130955526D01*
X101544877Y-130946898D01*
X101546277Y-130930893D01*
X101548263Y-130908193D01*
X101546022Y-130899830D01*
X101546022Y-130899827D01*
X101538206Y-130870656D01*
X101536337Y-130862228D01*
X101531092Y-130832485D01*
X101529588Y-130823955D01*
X101525257Y-130816454D01*
X101523258Y-130810960D01*
X101520795Y-130805678D01*
X101518554Y-130797316D01*
X101496259Y-130765475D01*
X101491636Y-130758219D01*
X101472194Y-130724545D01*
X101442429Y-130699569D01*
X101436062Y-130693735D01*
X101208275Y-130465949D01*
X101202439Y-130459581D01*
X101201156Y-130458052D01*
X101177455Y-130429806D01*
X101143792Y-130410371D01*
X101136511Y-130405732D01*
X101134056Y-130404013D01*
X101104684Y-130383446D01*
X101096316Y-130381204D01*
X101091029Y-130378738D01*
X101085544Y-130376742D01*
X101078045Y-130372412D01*
X101069519Y-130370909D01*
X101069517Y-130370908D01*
X101039784Y-130365666D01*
X101031349Y-130363796D01*
X101002174Y-130355978D01*
X100993807Y-130353736D01*
X100985178Y-130354491D01*
X100955095Y-130357123D01*
X100946466Y-130357500D01*
X100755632Y-130357500D01*
X100697441Y-130338593D01*
X100680634Y-130323124D01*
X100667006Y-130307308D01*
X100667004Y-130307306D01*
X100662400Y-130301963D01*
X100542095Y-130223985D01*
X100404739Y-130182907D01*
X100321497Y-130182398D01*
X100268427Y-130182074D01*
X100268426Y-130182074D01*
X100261376Y-130182031D01*
X100254599Y-130183968D01*
X100254598Y-130183968D01*
X100130309Y-130219490D01*
X100130307Y-130219491D01*
X100123529Y-130221428D01*
X100113394Y-130227823D01*
X100045328Y-130270769D01*
X99986025Y-130285830D01*
X99929195Y-130263157D01*
X99896546Y-130211411D01*
X99893500Y-130187042D01*
X99893500Y-124478522D01*
X99893877Y-124469893D01*
X99896508Y-124439822D01*
X99897263Y-124431193D01*
X99887205Y-124393657D01*
X99885337Y-124385231D01*
X99880092Y-124355486D01*
X99878588Y-124346955D01*
X99874473Y-124339827D01*
X99872346Y-124278921D01*
X99906561Y-124228196D01*
X99964057Y-124207270D01*
X100017014Y-124220475D01*
X100024210Y-124224630D01*
X100031489Y-124229268D01*
X100063316Y-124251554D01*
X100071684Y-124253796D01*
X100076971Y-124256262D01*
X100082456Y-124258258D01*
X100089955Y-124262588D01*
X100098481Y-124264091D01*
X100098483Y-124264092D01*
X100128216Y-124269334D01*
X100136650Y-124271204D01*
X100174193Y-124281264D01*
X100212908Y-124277877D01*
X100221537Y-124277500D01*
X102095168Y-124277500D01*
X102153359Y-124296407D01*
X102165172Y-124306496D01*
X104039504Y-126180828D01*
X104067281Y-126235345D01*
X104068500Y-126250832D01*
X104068500Y-133301166D01*
X104049593Y-133359357D01*
X104039504Y-133371169D01*
X103780171Y-133630503D01*
X103725654Y-133658281D01*
X103710167Y-133659500D01*
X102979524Y-133659500D01*
X102970896Y-133659123D01*
X102967574Y-133658832D01*
X102932191Y-133655737D01*
X102923828Y-133657978D01*
X102923825Y-133657978D01*
X102894654Y-133665794D01*
X102886227Y-133667663D01*
X102847953Y-133674412D01*
X102840450Y-133678743D01*
X102834959Y-133680742D01*
X102829679Y-133683204D01*
X102821314Y-133685446D01*
X102794843Y-133703982D01*
X102789487Y-133707732D01*
X102782206Y-133712371D01*
X102748543Y-133731806D01*
X102742976Y-133738441D01*
X102723567Y-133761571D01*
X102717733Y-133767939D01*
X102144943Y-134340729D01*
X102138576Y-134346563D01*
X102108806Y-134371543D01*
X102095689Y-134394263D01*
X102089373Y-134405203D01*
X102084732Y-134412487D01*
X102062446Y-134444314D01*
X102060204Y-134452682D01*
X102057738Y-134457969D01*
X102055742Y-134463454D01*
X102051412Y-134470953D01*
X102049909Y-134479479D01*
X102049908Y-134479481D01*
X102044666Y-134509214D01*
X102042796Y-134517648D01*
X102032736Y-134555191D01*
X102033491Y-134563820D01*
X102036123Y-134593903D01*
X102036500Y-134602532D01*
X102036500Y-136415468D01*
X102036123Y-136424097D01*
X102032736Y-136462809D01*
X102034978Y-136471176D01*
X102042796Y-136500351D01*
X102044666Y-136508785D01*
X102051412Y-136547047D01*
X102055742Y-136554546D01*
X102057738Y-136560031D01*
X102060204Y-136565318D01*
X102062446Y-136573686D01*
X102083013Y-136603058D01*
X102084732Y-136605513D01*
X102089371Y-136612794D01*
X102108806Y-136646457D01*
X102120415Y-136656198D01*
X102138571Y-136671433D01*
X102144939Y-136677267D01*
X103150504Y-137682832D01*
X103178281Y-137737349D01*
X103179500Y-137752836D01*
X103179500Y-139528959D01*
X103160593Y-139587150D01*
X103154716Y-139594479D01*
X103082377Y-139676388D01*
X103021447Y-139806163D01*
X103020362Y-139813132D01*
X103020361Y-139813135D01*
X103015799Y-139842436D01*
X102999391Y-139947823D01*
X103000306Y-139954820D01*
X103000306Y-139954821D01*
X103015570Y-140071549D01*
X103017980Y-140089979D01*
X103020821Y-140096435D01*
X103020821Y-140096436D01*
X103067113Y-140201641D01*
X103075720Y-140221203D01*
X103121845Y-140276075D01*
X103163431Y-140325549D01*
X103163434Y-140325551D01*
X103167970Y-140330948D01*
X103173841Y-140334856D01*
X103173842Y-140334857D01*
X103186143Y-140343045D01*
X103287313Y-140410390D01*
X103387920Y-140441821D01*
X103417425Y-140451039D01*
X103417426Y-140451039D01*
X103424157Y-140453142D01*
X103495828Y-140454456D01*
X103560445Y-140455641D01*
X103560447Y-140455641D01*
X103567499Y-140455770D01*
X103574302Y-140453915D01*
X103574304Y-140453915D01*
X103649503Y-140433413D01*
X103705817Y-140418060D01*
X103827991Y-140343045D01*
X103835403Y-140334857D01*
X103919468Y-140241982D01*
X103924200Y-140236754D01*
X103986710Y-140107733D01*
X103990735Y-140083813D01*
X104009862Y-139970124D01*
X104009862Y-139970120D01*
X104010496Y-139966354D01*
X104010647Y-139954000D01*
X103990323Y-139812082D01*
X103944698Y-139711734D01*
X103933905Y-139687996D01*
X103933904Y-139687995D01*
X103930984Y-139681572D01*
X103854500Y-139592808D01*
X103830840Y-139536386D01*
X103830500Y-139528187D01*
X103830500Y-137595528D01*
X103830877Y-137586900D01*
X103833508Y-137556822D01*
X103834263Y-137548195D01*
X103832022Y-137539832D01*
X103832022Y-137539829D01*
X103824206Y-137510658D01*
X103822337Y-137502230D01*
X103817092Y-137472487D01*
X103815588Y-137463957D01*
X103811257Y-137456454D01*
X103809258Y-137450963D01*
X103806796Y-137445683D01*
X103804554Y-137437318D01*
X103782268Y-137405491D01*
X103777627Y-137398207D01*
X103762523Y-137372046D01*
X103758194Y-137364547D01*
X103728429Y-137339571D01*
X103722061Y-137333737D01*
X103159471Y-136771147D01*
X103131694Y-136716630D01*
X103141265Y-136656198D01*
X103190156Y-136610286D01*
X103191014Y-136609915D01*
X103197817Y-136608060D01*
X103297187Y-136547047D01*
X103313978Y-136536737D01*
X103319991Y-136533045D01*
X103324727Y-136527813D01*
X103348035Y-136502063D01*
X103401103Y-136471610D01*
X103421432Y-136469500D01*
X104187466Y-136469500D01*
X104196095Y-136469877D01*
X104234807Y-136473264D01*
X104272350Y-136463204D01*
X104280784Y-136461334D01*
X104310517Y-136456092D01*
X104310519Y-136456091D01*
X104319045Y-136454588D01*
X104326544Y-136450258D01*
X104332029Y-136448262D01*
X104337316Y-136445796D01*
X104345684Y-136443554D01*
X104377511Y-136421268D01*
X104384795Y-136416627D01*
X104418455Y-136397194D01*
X104443440Y-136367419D01*
X104449264Y-136361063D01*
X105523080Y-135287247D01*
X105529435Y-135281424D01*
X105559205Y-135256444D01*
X105578640Y-135222781D01*
X105583280Y-135215498D01*
X105591847Y-135203264D01*
X105605564Y-135183673D01*
X105607806Y-135175307D01*
X105610273Y-135170016D01*
X105612266Y-135164539D01*
X105616599Y-135157034D01*
X105623348Y-135118758D01*
X105625217Y-135110326D01*
X105628673Y-135097429D01*
X105635274Y-135072796D01*
X105631888Y-135034092D01*
X105631511Y-135025464D01*
X105631511Y-128618440D01*
X121944770Y-128618440D01*
X121959200Y-128838604D01*
X121960316Y-128842997D01*
X121960316Y-128842999D01*
X121983873Y-128935754D01*
X122013511Y-129052452D01*
X122105883Y-129252821D01*
X122233222Y-129433002D01*
X122391264Y-129586961D01*
X122574717Y-129709540D01*
X122777436Y-129796635D01*
X122855165Y-129814223D01*
X122988206Y-129844328D01*
X122988211Y-129844329D01*
X122992632Y-129845329D01*
X123102865Y-129849660D01*
X123208565Y-129853813D01*
X123208566Y-129853813D01*
X123213098Y-129853991D01*
X123431452Y-129822331D01*
X123435751Y-129820872D01*
X123435754Y-129820871D01*
X123636078Y-129752870D01*
X123640379Y-129751410D01*
X123711944Y-129711332D01*
X123828925Y-129645819D01*
X123832884Y-129643602D01*
X124002518Y-129502518D01*
X124143602Y-129332884D01*
X124251410Y-129140379D01*
X124322331Y-128931452D01*
X124335156Y-128842999D01*
X124353571Y-128715997D01*
X124353571Y-128715991D01*
X124353991Y-128713098D01*
X124355643Y-128650000D01*
X124335454Y-128430289D01*
X124275565Y-128217936D01*
X124273557Y-128213864D01*
X124273555Y-128213859D01*
X124179988Y-128024125D01*
X124177980Y-128020053D01*
X124045967Y-127843267D01*
X123883949Y-127693499D01*
X123697350Y-127575764D01*
X123492421Y-127494006D01*
X123276024Y-127450962D01*
X123167347Y-127449539D01*
X123059946Y-127448133D01*
X123059941Y-127448133D01*
X123055406Y-127448074D01*
X123050933Y-127448843D01*
X123050928Y-127448843D01*
X122842435Y-127484668D01*
X122842429Y-127484670D01*
X122837957Y-127485438D01*
X122810176Y-127495687D01*
X122635220Y-127560231D01*
X122635217Y-127560232D01*
X122630957Y-127561804D01*
X122627054Y-127564126D01*
X122627052Y-127564127D01*
X122607492Y-127575764D01*
X122441341Y-127674614D01*
X122437926Y-127677609D01*
X122437923Y-127677611D01*
X122330036Y-127772225D01*
X122275457Y-127820090D01*
X122138863Y-127993360D01*
X122036131Y-128188620D01*
X121970703Y-128399333D01*
X121970169Y-128403843D01*
X121970169Y-128403844D01*
X121967039Y-128430289D01*
X121944770Y-128618440D01*
X105631511Y-128618440D01*
X105631511Y-125888845D01*
X105650418Y-125830654D01*
X105699918Y-125794690D01*
X105761104Y-125794690D01*
X105800515Y-125818841D01*
X106055731Y-126074057D01*
X106061565Y-126080424D01*
X106086545Y-126110194D01*
X106120205Y-126129627D01*
X106127489Y-126134268D01*
X106159316Y-126156554D01*
X106167684Y-126158796D01*
X106172971Y-126161262D01*
X106178456Y-126163258D01*
X106185955Y-126167588D01*
X106194481Y-126169091D01*
X106194483Y-126169092D01*
X106224216Y-126174334D01*
X106232650Y-126176204D01*
X106270193Y-126186264D01*
X106278822Y-126185509D01*
X106308905Y-126182877D01*
X106317534Y-126182500D01*
X119737040Y-126182500D01*
X119795231Y-126201407D01*
X119826946Y-126240052D01*
X119855883Y-126302821D01*
X119983222Y-126483002D01*
X120141264Y-126636961D01*
X120324717Y-126759540D01*
X120527436Y-126846635D01*
X120605165Y-126864223D01*
X120738206Y-126894328D01*
X120738211Y-126894329D01*
X120742632Y-126895329D01*
X120852865Y-126899660D01*
X120958565Y-126903813D01*
X120958566Y-126903813D01*
X120963098Y-126903991D01*
X121181452Y-126872331D01*
X121185751Y-126870872D01*
X121185754Y-126870871D01*
X121386078Y-126802870D01*
X121390379Y-126801410D01*
X121461944Y-126761332D01*
X121578925Y-126695819D01*
X121582884Y-126693602D01*
X121752518Y-126552518D01*
X121893602Y-126382884D01*
X121976228Y-126235345D01*
X121999192Y-126194340D01*
X121999193Y-126194338D01*
X122001410Y-126190379D01*
X122008636Y-126169092D01*
X122070871Y-125985754D01*
X122070872Y-125985751D01*
X122072331Y-125981452D01*
X122076051Y-125955795D01*
X122103571Y-125765997D01*
X122103571Y-125765991D01*
X122103991Y-125763098D01*
X122105643Y-125700000D01*
X122085454Y-125480289D01*
X122025565Y-125267936D01*
X122023557Y-125263864D01*
X122023555Y-125263859D01*
X121929988Y-125074125D01*
X121927980Y-125070053D01*
X121795967Y-124893267D01*
X121644607Y-124753351D01*
X121637279Y-124746577D01*
X121637278Y-124746576D01*
X121633949Y-124743499D01*
X121625103Y-124737917D01*
X121451187Y-124628185D01*
X121447350Y-124625764D01*
X121242421Y-124544006D01*
X121026024Y-124500962D01*
X120917347Y-124499539D01*
X120809946Y-124498133D01*
X120809941Y-124498133D01*
X120805406Y-124498074D01*
X120800933Y-124498843D01*
X120800928Y-124498843D01*
X120592435Y-124534668D01*
X120592429Y-124534670D01*
X120587957Y-124535438D01*
X120560176Y-124545687D01*
X120385220Y-124610231D01*
X120385217Y-124610232D01*
X120380957Y-124611804D01*
X120377054Y-124614126D01*
X120377052Y-124614127D01*
X120357492Y-124625764D01*
X120191341Y-124724614D01*
X120187926Y-124727609D01*
X120187923Y-124727611D01*
X120080036Y-124822225D01*
X120025457Y-124870090D01*
X120022649Y-124873652D01*
X119901892Y-125026833D01*
X119888863Y-125043360D01*
X119886749Y-125047378D01*
X119802061Y-125208343D01*
X119786131Y-125238620D01*
X119720703Y-125449333D01*
X119720241Y-125453237D01*
X119689739Y-125506070D01*
X119633844Y-125530957D01*
X119623494Y-125531500D01*
X106474834Y-125531500D01*
X106416643Y-125512593D01*
X106404830Y-125502504D01*
X103171259Y-122268933D01*
X103165424Y-122262565D01*
X103140445Y-122232796D01*
X103106782Y-122213361D01*
X103099501Y-122208722D01*
X103097046Y-122207003D01*
X103067674Y-122186436D01*
X103059306Y-122184194D01*
X103054019Y-122181728D01*
X103048534Y-122179732D01*
X103041035Y-122175402D01*
X103032509Y-122173899D01*
X103032507Y-122173898D01*
X103002774Y-122168656D01*
X102994339Y-122166786D01*
X102965164Y-122158968D01*
X102956797Y-122156726D01*
X102948168Y-122157481D01*
X102918085Y-122160113D01*
X102909456Y-122160490D01*
X101325825Y-122160490D01*
X101267634Y-122141583D01*
X101255821Y-122131494D01*
X100372506Y-121248180D01*
X100344729Y-121193663D01*
X100343510Y-121178176D01*
X100343510Y-118985572D01*
X100744511Y-118985572D01*
X100744675Y-118988553D01*
X100744675Y-118988560D01*
X100762571Y-119313735D01*
X100762735Y-119316712D01*
X100820608Y-119643265D01*
X100821479Y-119646123D01*
X100821480Y-119646127D01*
X100830016Y-119674133D01*
X100917294Y-119960500D01*
X100918499Y-119963226D01*
X100918501Y-119963231D01*
X101013412Y-120177915D01*
X101051391Y-120263821D01*
X101220957Y-120548836D01*
X101222777Y-120551195D01*
X101222781Y-120551201D01*
X101308727Y-120662602D01*
X101423536Y-120811415D01*
X101656193Y-121047756D01*
X101658521Y-121049611D01*
X101658522Y-121049612D01*
X101770012Y-121138454D01*
X101915558Y-121254434D01*
X101918098Y-121255999D01*
X101918097Y-121255999D01*
X102195336Y-121426891D01*
X102195341Y-121426894D01*
X102197874Y-121428455D01*
X102200582Y-121429704D01*
X102200585Y-121429705D01*
X102308048Y-121479246D01*
X102499051Y-121567300D01*
X102501895Y-121568216D01*
X102501898Y-121568217D01*
X102527371Y-121576420D01*
X102814728Y-121668957D01*
X102817647Y-121669522D01*
X102817648Y-121669522D01*
X103137416Y-121731389D01*
X103137419Y-121731389D01*
X103140332Y-121731953D01*
X103143294Y-121732163D01*
X103143296Y-121732163D01*
X103183860Y-121735035D01*
X103402279Y-121750500D01*
X103583386Y-121750500D01*
X103584840Y-121750412D01*
X103584852Y-121750412D01*
X103828075Y-121735749D01*
X103828079Y-121735748D01*
X103831040Y-121735570D01*
X104157285Y-121675987D01*
X104186228Y-121667000D01*
X104471163Y-121578525D01*
X104471167Y-121578523D01*
X104474009Y-121577641D01*
X104476728Y-121576422D01*
X104476733Y-121576420D01*
X104773905Y-121443178D01*
X104773911Y-121443175D01*
X104776625Y-121441958D01*
X104796978Y-121429705D01*
X105058192Y-121272441D01*
X105058194Y-121272440D01*
X105060748Y-121270902D01*
X105063100Y-121269068D01*
X105063104Y-121269065D01*
X105319903Y-121068792D01*
X105319908Y-121068788D01*
X105322263Y-121066951D01*
X105557382Y-120833060D01*
X105656725Y-120707044D01*
X105760851Y-120574962D01*
X105760856Y-120574955D01*
X105762699Y-120572617D01*
X105776428Y-120550082D01*
X105877713Y-120383823D01*
X105935240Y-120289393D01*
X105984287Y-120181520D01*
X106071270Y-119990212D01*
X106071271Y-119990208D01*
X106072506Y-119987493D01*
X106172509Y-119671288D01*
X106178332Y-119640323D01*
X106233248Y-119348290D01*
X106233248Y-119348287D01*
X106233799Y-119345359D01*
X106255489Y-119014428D01*
X106255058Y-119006586D01*
X106237429Y-118686265D01*
X106237429Y-118686262D01*
X106237265Y-118683288D01*
X106179392Y-118356735D01*
X106082706Y-118039500D01*
X106076685Y-118025879D01*
X105949817Y-117738911D01*
X105949816Y-117738908D01*
X105948609Y-117736179D01*
X105779043Y-117451164D01*
X105777223Y-117448805D01*
X105777219Y-117448799D01*
X105578283Y-117190943D01*
X105576464Y-117188585D01*
X105343807Y-116952244D01*
X105337420Y-116947154D01*
X105086776Y-116747426D01*
X105084442Y-116745566D01*
X105052181Y-116725680D01*
X104804664Y-116573109D01*
X104804659Y-116573106D01*
X104802126Y-116571545D01*
X104776166Y-116559577D01*
X104564349Y-116461928D01*
X104500949Y-116432700D01*
X104498105Y-116431784D01*
X104498102Y-116431783D01*
X104400991Y-116400511D01*
X104185272Y-116331043D01*
X104153506Y-116324897D01*
X103862584Y-116268611D01*
X103862581Y-116268611D01*
X103859668Y-116268047D01*
X103856706Y-116267837D01*
X103856704Y-116267837D01*
X103787208Y-116262917D01*
X103597721Y-116249500D01*
X103416614Y-116249500D01*
X103415160Y-116249588D01*
X103415148Y-116249588D01*
X103171925Y-116264251D01*
X103171921Y-116264252D01*
X103168960Y-116264430D01*
X102842715Y-116324013D01*
X102839868Y-116324897D01*
X102528837Y-116421475D01*
X102528833Y-116421477D01*
X102525991Y-116422359D01*
X102523272Y-116423578D01*
X102523267Y-116423580D01*
X102226095Y-116556822D01*
X102226089Y-116556825D01*
X102223375Y-116558042D01*
X102220828Y-116559576D01*
X102220825Y-116559577D01*
X101941808Y-116727559D01*
X101939252Y-116729098D01*
X101936900Y-116730932D01*
X101936896Y-116730935D01*
X101680097Y-116931208D01*
X101680092Y-116931212D01*
X101677737Y-116933049D01*
X101442618Y-117166940D01*
X101423696Y-117190943D01*
X101239149Y-117425038D01*
X101239144Y-117425045D01*
X101237301Y-117427383D01*
X101235753Y-117429925D01*
X101235751Y-117429927D01*
X101221248Y-117453734D01*
X101064760Y-117710607D01*
X101063526Y-117713321D01*
X100990379Y-117874200D01*
X100927494Y-118012507D01*
X100827491Y-118328712D01*
X100766201Y-118654641D01*
X100744511Y-118985572D01*
X100343510Y-118985572D01*
X100343510Y-115676824D01*
X100362417Y-115618633D01*
X100372506Y-115606820D01*
X100562830Y-115416496D01*
X100617347Y-115388719D01*
X100632834Y-115387500D01*
X102858369Y-115387500D01*
X102916560Y-115406407D01*
X102942418Y-115434185D01*
X102945878Y-115439745D01*
X102948720Y-115446203D01*
X102953258Y-115451601D01*
X102953260Y-115451605D01*
X103036431Y-115550549D01*
X103036434Y-115550551D01*
X103040970Y-115555948D01*
X103046841Y-115559856D01*
X103046842Y-115559857D01*
X103059143Y-115568045D01*
X103160313Y-115635390D01*
X103232413Y-115657915D01*
X103290425Y-115676039D01*
X103290426Y-115676039D01*
X103297157Y-115678142D01*
X103368828Y-115679456D01*
X103433445Y-115680641D01*
X103433447Y-115680641D01*
X103440499Y-115680770D01*
X103447302Y-115678915D01*
X103447304Y-115678915D01*
X103524330Y-115657915D01*
X103578817Y-115643060D01*
X103700991Y-115568045D01*
X103708403Y-115559857D01*
X103792468Y-115466982D01*
X103797200Y-115461754D01*
X103859710Y-115332733D01*
X103861211Y-115323815D01*
X103882862Y-115195124D01*
X103882862Y-115195120D01*
X103883496Y-115191354D01*
X103883647Y-115179000D01*
X103863323Y-115037082D01*
X103855318Y-115019476D01*
X103848445Y-114958678D01*
X103878620Y-114905451D01*
X103934319Y-114880127D01*
X103945440Y-114879500D01*
X105011876Y-114879500D01*
X105020505Y-114879877D01*
X105059217Y-114883264D01*
X105096760Y-114873204D01*
X105105194Y-114871334D01*
X105134927Y-114866092D01*
X105134929Y-114866091D01*
X105143455Y-114864588D01*
X105150954Y-114860258D01*
X105156439Y-114858262D01*
X105161726Y-114855796D01*
X105170094Y-114853554D01*
X105201921Y-114831268D01*
X105209205Y-114826627D01*
X105242865Y-114807194D01*
X105267841Y-114777429D01*
X105273675Y-114771061D01*
X106008057Y-114036679D01*
X106014425Y-114030844D01*
X106044194Y-114005865D01*
X106063629Y-113972202D01*
X106068268Y-113964921D01*
X106070445Y-113961812D01*
X106090554Y-113933094D01*
X106092796Y-113924726D01*
X106095262Y-113919439D01*
X106097258Y-113913954D01*
X106101588Y-113906455D01*
X106103598Y-113895059D01*
X106108334Y-113868194D01*
X106110204Y-113859759D01*
X106118022Y-113830584D01*
X106120264Y-113822217D01*
X106116877Y-113783501D01*
X106116500Y-113774873D01*
X106116500Y-108506833D01*
X106135407Y-108448642D01*
X106145503Y-108436823D01*
X106150837Y-108431490D01*
X106205356Y-108403717D01*
X106220834Y-108402500D01*
X106380612Y-108402500D01*
X106438803Y-108421407D01*
X106456394Y-108437797D01*
X106469970Y-108453948D01*
X106475841Y-108457856D01*
X106475842Y-108457857D01*
X106575354Y-108524098D01*
X106613317Y-108572082D01*
X106615274Y-108628517D01*
X106616849Y-108628860D01*
X106616097Y-108632319D01*
X106615101Y-108635710D01*
X106607000Y-108692056D01*
X106607000Y-120397000D01*
X106611570Y-120439512D01*
X106622956Y-120491854D01*
X106625378Y-120501762D01*
X106667236Y-120580314D01*
X106713729Y-120633970D01*
X106730851Y-120651445D01*
X106737030Y-120654901D01*
X106737031Y-120654902D01*
X106778293Y-120677982D01*
X106808533Y-120694897D01*
X106876654Y-120714899D01*
X106933000Y-120723000D01*
X114047000Y-120723000D01*
X114066626Y-120720890D01*
X114086872Y-120718714D01*
X114086876Y-120718713D01*
X114089512Y-120718430D01*
X114141854Y-120707044D01*
X114151762Y-120704622D01*
X114230314Y-120662764D01*
X114283970Y-120616271D01*
X114301445Y-120599149D01*
X114311981Y-120580314D01*
X114342183Y-120526319D01*
X114344897Y-120521467D01*
X114364899Y-120453346D01*
X114373000Y-120397000D01*
X114373000Y-115093823D01*
X120344391Y-115093823D01*
X120345306Y-115100820D01*
X120345306Y-115100821D01*
X120346814Y-115112354D01*
X120362980Y-115235979D01*
X120365821Y-115242435D01*
X120365821Y-115242436D01*
X120373586Y-115260082D01*
X120420720Y-115367203D01*
X120462155Y-115416496D01*
X120508432Y-115471550D01*
X120508434Y-115471552D01*
X120512970Y-115476948D01*
X120513084Y-115477024D01*
X120542265Y-115527164D01*
X120544500Y-115548083D01*
X120544500Y-119964959D01*
X120525593Y-120023150D01*
X120519716Y-120030479D01*
X120447377Y-120112388D01*
X120444381Y-120118770D01*
X120444380Y-120118771D01*
X120424847Y-120160374D01*
X120386447Y-120242163D01*
X120364391Y-120383823D01*
X120365306Y-120390820D01*
X120365306Y-120390821D01*
X120366814Y-120402354D01*
X120382980Y-120525979D01*
X120385821Y-120532435D01*
X120385821Y-120532436D01*
X120430972Y-120635048D01*
X120440720Y-120657203D01*
X120478132Y-120701710D01*
X120528431Y-120761549D01*
X120528434Y-120761551D01*
X120532970Y-120766948D01*
X120538841Y-120770856D01*
X120538842Y-120770857D01*
X120550374Y-120778533D01*
X120652313Y-120846390D01*
X120752920Y-120877821D01*
X120782425Y-120887039D01*
X120782426Y-120887039D01*
X120789157Y-120889142D01*
X120860828Y-120890456D01*
X120925445Y-120891641D01*
X120925447Y-120891641D01*
X120932499Y-120891770D01*
X120939302Y-120889915D01*
X120939304Y-120889915D01*
X121014503Y-120869413D01*
X121070817Y-120854060D01*
X121192991Y-120779045D01*
X121200403Y-120770857D01*
X121284468Y-120677982D01*
X121289200Y-120672754D01*
X121351710Y-120543733D01*
X121355875Y-120518982D01*
X121374862Y-120406124D01*
X121374862Y-120406120D01*
X121375496Y-120402354D01*
X121375562Y-120397000D01*
X121375600Y-120393826D01*
X121375647Y-120390000D01*
X121355323Y-120248082D01*
X121323420Y-120177915D01*
X121298905Y-120123996D01*
X121298904Y-120123995D01*
X121295984Y-120117572D01*
X121219500Y-120028808D01*
X121195840Y-119972386D01*
X121195500Y-119964187D01*
X121195500Y-115502328D01*
X121214407Y-115444137D01*
X121221102Y-115435892D01*
X121264468Y-115387982D01*
X121264468Y-115387981D01*
X121269200Y-115382754D01*
X121331710Y-115253733D01*
X121335875Y-115228982D01*
X121354862Y-115116124D01*
X121354862Y-115116120D01*
X121355496Y-115112354D01*
X121355647Y-115100000D01*
X121335323Y-114958082D01*
X121311393Y-114905451D01*
X121278905Y-114833996D01*
X121278904Y-114833995D01*
X121275984Y-114827572D01*
X121182400Y-114718963D01*
X121062095Y-114640985D01*
X120924739Y-114599907D01*
X120841497Y-114599398D01*
X120788427Y-114599074D01*
X120788426Y-114599074D01*
X120781376Y-114599031D01*
X120774599Y-114600968D01*
X120774598Y-114600968D01*
X120650309Y-114636490D01*
X120650307Y-114636491D01*
X120643529Y-114638428D01*
X120522280Y-114714930D01*
X120517613Y-114720214D01*
X120517611Y-114720216D01*
X120432044Y-114817103D01*
X120432042Y-114817105D01*
X120427377Y-114822388D01*
X120424381Y-114828770D01*
X120424380Y-114828771D01*
X120423208Y-114831268D01*
X120366447Y-114952163D01*
X120365362Y-114959132D01*
X120365361Y-114959135D01*
X120355436Y-115022882D01*
X120344391Y-115093823D01*
X114373000Y-115093823D01*
X114373000Y-105836000D01*
X114391907Y-105777809D01*
X114441407Y-105741845D01*
X114472000Y-105737000D01*
X116267756Y-105737000D01*
X116325947Y-105755907D01*
X116361911Y-105805407D01*
X116362303Y-105865357D01*
X116322051Y-105994991D01*
X116320703Y-105999333D01*
X116320169Y-106003843D01*
X116320169Y-106003844D01*
X116317039Y-106030289D01*
X116294770Y-106218440D01*
X116309200Y-106438604D01*
X116310316Y-106442997D01*
X116310316Y-106442999D01*
X116333873Y-106535754D01*
X116363511Y-106652452D01*
X116455883Y-106852821D01*
X116583222Y-107033002D01*
X116741264Y-107186961D01*
X116924717Y-107309540D01*
X116985582Y-107335689D01*
X117031581Y-107376030D01*
X117045500Y-107426648D01*
X117045500Y-112567137D01*
X117044814Y-112578773D01*
X117040593Y-112614438D01*
X117048543Y-112657968D01*
X117051304Y-112673087D01*
X117051815Y-112676154D01*
X117059180Y-112725138D01*
X117060685Y-112735151D01*
X117063814Y-112741668D01*
X117063848Y-112741772D01*
X117065147Y-112748883D01*
X117085221Y-112787527D01*
X117092635Y-112801800D01*
X117094025Y-112804582D01*
X117110511Y-112838913D01*
X117119846Y-112858353D01*
X117123960Y-112862803D01*
X117125546Y-112865157D01*
X117128148Y-112870166D01*
X117132494Y-112875254D01*
X117170482Y-112913242D01*
X117173175Y-112916044D01*
X117212617Y-112958712D01*
X117218724Y-112962260D01*
X117226150Y-112968910D01*
X118115385Y-113858145D01*
X118123126Y-113866857D01*
X118145359Y-113895059D01*
X118184236Y-113921928D01*
X118194429Y-113928973D01*
X118196953Y-113930777D01*
X118244924Y-113966209D01*
X118251743Y-113968604D01*
X118251845Y-113968656D01*
X118257789Y-113972764D01*
X118264845Y-113974995D01*
X118264846Y-113974996D01*
X118314661Y-113990750D01*
X118317613Y-113991735D01*
X118366888Y-114009040D01*
X118366890Y-114009040D01*
X118373874Y-114011493D01*
X118379937Y-114011731D01*
X118382712Y-114012272D01*
X118388097Y-114013975D01*
X118394768Y-114014500D01*
X118448464Y-114014500D01*
X118452350Y-114014576D01*
X118503043Y-114016568D01*
X118503046Y-114016568D01*
X118510437Y-114016858D01*
X118517265Y-114015048D01*
X118527216Y-114014500D01*
X121630732Y-114014500D01*
X121688923Y-114033407D01*
X121700736Y-114043496D01*
X122306504Y-114649264D01*
X122334281Y-114703781D01*
X122335500Y-114719268D01*
X122335500Y-120538200D01*
X122326114Y-120580274D01*
X122321095Y-120590965D01*
X122306447Y-120622163D01*
X122305362Y-120629132D01*
X122305361Y-120629135D01*
X122291414Y-120718714D01*
X122284391Y-120763823D01*
X122285306Y-120770820D01*
X122285306Y-120770821D01*
X122286814Y-120782354D01*
X122302980Y-120905979D01*
X122305821Y-120912435D01*
X122305821Y-120912436D01*
X122317304Y-120938532D01*
X122360720Y-121037203D01*
X122406845Y-121092075D01*
X122448431Y-121141549D01*
X122448434Y-121141551D01*
X122452970Y-121146948D01*
X122458841Y-121150856D01*
X122458842Y-121150857D01*
X122471143Y-121159045D01*
X122572313Y-121226390D01*
X122667088Y-121255999D01*
X122702425Y-121267039D01*
X122702426Y-121267039D01*
X122709157Y-121269142D01*
X122780828Y-121270456D01*
X122845445Y-121271641D01*
X122845447Y-121271641D01*
X122852499Y-121271770D01*
X122859302Y-121269915D01*
X122859304Y-121269915D01*
X122939026Y-121248180D01*
X122990817Y-121234060D01*
X123112991Y-121159045D01*
X123120403Y-121150857D01*
X123204468Y-121057982D01*
X123209200Y-121052754D01*
X123271710Y-120923733D01*
X123275875Y-120898982D01*
X123294862Y-120786124D01*
X123294862Y-120786120D01*
X123295496Y-120782354D01*
X123295647Y-120770000D01*
X123275323Y-120628082D01*
X123253378Y-120579816D01*
X123244500Y-120538840D01*
X123244500Y-114522870D01*
X123245186Y-114511234D01*
X123248538Y-114482910D01*
X123249408Y-114475563D01*
X123248079Y-114468287D01*
X123248079Y-114468283D01*
X123238694Y-114416899D01*
X123238183Y-114413832D01*
X123230415Y-114362164D01*
X123230415Y-114362163D01*
X123229315Y-114354849D01*
X123226186Y-114348332D01*
X123226152Y-114348228D01*
X123224853Y-114341117D01*
X123197367Y-114288204D01*
X123195978Y-114285425D01*
X123173359Y-114238320D01*
X123173357Y-114238317D01*
X123170154Y-114231647D01*
X123166036Y-114227193D01*
X123164455Y-114224846D01*
X123161852Y-114219835D01*
X123157506Y-114214746D01*
X123119518Y-114176758D01*
X123116824Y-114173955D01*
X123082406Y-114136722D01*
X123082407Y-114136722D01*
X123077383Y-114131288D01*
X123071276Y-114127740D01*
X123063850Y-114121090D01*
X122204615Y-113261855D01*
X122196873Y-113253142D01*
X122179222Y-113230752D01*
X122174641Y-113224941D01*
X122125563Y-113191022D01*
X122123040Y-113189218D01*
X122096147Y-113169354D01*
X122075076Y-113153791D01*
X122068257Y-113151396D01*
X122068155Y-113151344D01*
X122062211Y-113147236D01*
X122055155Y-113145005D01*
X122055154Y-113145004D01*
X122005339Y-113129250D01*
X122002387Y-113128265D01*
X121953112Y-113110960D01*
X121953110Y-113110960D01*
X121946126Y-113108507D01*
X121940063Y-113108269D01*
X121937288Y-113107728D01*
X121931903Y-113106025D01*
X121925232Y-113105500D01*
X121871536Y-113105500D01*
X121867650Y-113105424D01*
X121816957Y-113103432D01*
X121816954Y-113103432D01*
X121809563Y-113103142D01*
X121802735Y-113104952D01*
X121792784Y-113105500D01*
X118689268Y-113105500D01*
X118631077Y-113086593D01*
X118619264Y-113076504D01*
X117983496Y-112440736D01*
X117955719Y-112386219D01*
X117954500Y-112370732D01*
X117954500Y-107429528D01*
X117973407Y-107371337D01*
X118005127Y-107343151D01*
X118178921Y-107245822D01*
X118178926Y-107245819D01*
X118182884Y-107243602D01*
X118352518Y-107102518D01*
X118493602Y-106932884D01*
X118551761Y-106829034D01*
X118599192Y-106744340D01*
X118599193Y-106744338D01*
X118601410Y-106740379D01*
X118632749Y-106648058D01*
X118670871Y-106535754D01*
X118670872Y-106535751D01*
X118672331Y-106531452D01*
X118685156Y-106442999D01*
X118703571Y-106315997D01*
X118703571Y-106315991D01*
X118703991Y-106313098D01*
X118705643Y-106250000D01*
X118685454Y-106030289D01*
X118638238Y-105862872D01*
X118640640Y-105801734D01*
X118678520Y-105753684D01*
X118733521Y-105737000D01*
X123653000Y-105737000D01*
X123711191Y-105755907D01*
X123747155Y-105805407D01*
X123752000Y-105836000D01*
X123752000Y-121667000D01*
X123756570Y-121709512D01*
X123767956Y-121761854D01*
X123770378Y-121771762D01*
X123812236Y-121850314D01*
X123858729Y-121903970D01*
X123875851Y-121921445D01*
X123953533Y-121964897D01*
X124021654Y-121984899D01*
X124078000Y-121993000D01*
X126824940Y-121993000D01*
X126841359Y-121991235D01*
X126901237Y-122003815D01*
X126942285Y-122049187D01*
X126950940Y-122089668D01*
X126950940Y-129490572D01*
X126932033Y-129548763D01*
X126921944Y-129560576D01*
X125611047Y-130871473D01*
X125556530Y-130899250D01*
X125541043Y-130900469D01*
X119357222Y-130900469D01*
X119345340Y-130898905D01*
X119345313Y-130899213D01*
X119336686Y-130898458D01*
X119328318Y-130896216D01*
X119302693Y-130898458D01*
X119289606Y-130899603D01*
X119280977Y-130899980D01*
X107143043Y-130899980D01*
X107134414Y-130899603D01*
X107129956Y-130899213D01*
X107095713Y-130896217D01*
X107087350Y-130898458D01*
X107087347Y-130898458D01*
X107058176Y-130906274D01*
X107049749Y-130908143D01*
X107011475Y-130914892D01*
X107003974Y-130919223D01*
X106998480Y-130921222D01*
X106993198Y-130923685D01*
X106984836Y-130925926D01*
X106954885Y-130946898D01*
X106952998Y-130948219D01*
X106945739Y-130952844D01*
X106912065Y-130972286D01*
X106906495Y-130978924D01*
X106887094Y-131002045D01*
X106881260Y-131008413D01*
X106157943Y-131731731D01*
X106151575Y-131737566D01*
X106121806Y-131762545D01*
X106117477Y-131770044D01*
X106102373Y-131796205D01*
X106097732Y-131803489D01*
X106075446Y-131835316D01*
X106073204Y-131843684D01*
X106070738Y-131848971D01*
X106068742Y-131854456D01*
X106064412Y-131861955D01*
X106062909Y-131870481D01*
X106062908Y-131870483D01*
X106057666Y-131900216D01*
X106055796Y-131908650D01*
X106045736Y-131946193D01*
X106046491Y-131954822D01*
X106049123Y-131984905D01*
X106049500Y-131993534D01*
X106049500Y-132749959D01*
X106030593Y-132808150D01*
X106024716Y-132815479D01*
X105952377Y-132897388D01*
X105891447Y-133027163D01*
X105890362Y-133034132D01*
X105890361Y-133034135D01*
X105878016Y-133113428D01*
X105869391Y-133168823D01*
X105870306Y-133175820D01*
X105870306Y-133175821D01*
X105879781Y-133248281D01*
X105887980Y-133310979D01*
X105890821Y-133317435D01*
X105890821Y-133317436D01*
X105942169Y-133434132D01*
X105945720Y-133442203D01*
X105958792Y-133457754D01*
X106033431Y-133546549D01*
X106033434Y-133546551D01*
X106037970Y-133551948D01*
X106043841Y-133555856D01*
X106043842Y-133555857D01*
X106052844Y-133561849D01*
X106157313Y-133631390D01*
X106242418Y-133657978D01*
X106287425Y-133672039D01*
X106287426Y-133672039D01*
X106294157Y-133674142D01*
X106365828Y-133675456D01*
X106430445Y-133676641D01*
X106430447Y-133676641D01*
X106437499Y-133676770D01*
X106444302Y-133674915D01*
X106444304Y-133674915D01*
X106525295Y-133652834D01*
X106575817Y-133639060D01*
X106697991Y-133564045D01*
X106705403Y-133555857D01*
X106789468Y-133462982D01*
X106794200Y-133457754D01*
X106856710Y-133328733D01*
X106860875Y-133303982D01*
X106879862Y-133191124D01*
X106879862Y-133191120D01*
X106880496Y-133187354D01*
X106880647Y-133175000D01*
X106860323Y-133033082D01*
X106822548Y-132950000D01*
X106803905Y-132908996D01*
X106803904Y-132908995D01*
X106800984Y-132902572D01*
X106724500Y-132813808D01*
X106700840Y-132757386D01*
X106700500Y-132749187D01*
X106700500Y-132150834D01*
X106719407Y-132092643D01*
X106729496Y-132080830D01*
X107230351Y-131579976D01*
X107284868Y-131552199D01*
X107300355Y-131550980D01*
X114249685Y-131550980D01*
X114307876Y-131569887D01*
X114343840Y-131619387D01*
X114343840Y-131680573D01*
X114319689Y-131719983D01*
X113932943Y-132106730D01*
X113926575Y-132112566D01*
X113896806Y-132137545D01*
X113877373Y-132171205D01*
X113872732Y-132178489D01*
X113850446Y-132210316D01*
X113848204Y-132218684D01*
X113845738Y-132223971D01*
X113843742Y-132229456D01*
X113839412Y-132236955D01*
X113837909Y-132245481D01*
X113837908Y-132245483D01*
X113832666Y-132275216D01*
X113830796Y-132283650D01*
X113820736Y-132321193D01*
X113821491Y-132329822D01*
X113824123Y-132359905D01*
X113824500Y-132368534D01*
X113824500Y-132624959D01*
X113805593Y-132683150D01*
X113799716Y-132690479D01*
X113727377Y-132772388D01*
X113666447Y-132902163D01*
X113665362Y-132909132D01*
X113665361Y-132909135D01*
X113650680Y-133003430D01*
X113644391Y-133043823D01*
X113645306Y-133050820D01*
X113645306Y-133050821D01*
X113646814Y-133062354D01*
X113662980Y-133185979D01*
X113665821Y-133192435D01*
X113665821Y-133192436D01*
X113714903Y-133303982D01*
X113720720Y-133317203D01*
X113756154Y-133359357D01*
X113808431Y-133421549D01*
X113808434Y-133421551D01*
X113812970Y-133426948D01*
X113818841Y-133430856D01*
X113818842Y-133430857D01*
X113842554Y-133446641D01*
X113932313Y-133506390D01*
X114032920Y-133537821D01*
X114062425Y-133547039D01*
X114062426Y-133547039D01*
X114069157Y-133549142D01*
X114140828Y-133550456D01*
X114205445Y-133551641D01*
X114205447Y-133551641D01*
X114212499Y-133551770D01*
X114219302Y-133549915D01*
X114219304Y-133549915D01*
X114294503Y-133529413D01*
X114350817Y-133514060D01*
X114472991Y-133439045D01*
X114480403Y-133430857D01*
X114564468Y-133337982D01*
X114569200Y-133332754D01*
X114615117Y-133237982D01*
X114628634Y-133210082D01*
X114631710Y-133203733D01*
X114633832Y-133191124D01*
X114654862Y-133066124D01*
X114654862Y-133066120D01*
X114655496Y-133062354D01*
X114655647Y-133050000D01*
X114635323Y-132908082D01*
X114613543Y-132860180D01*
X114578905Y-132783996D01*
X114578904Y-132783995D01*
X114575984Y-132777572D01*
X114499500Y-132688808D01*
X114475840Y-132632386D01*
X114475500Y-132624187D01*
X114475500Y-132525833D01*
X114494407Y-132467642D01*
X114504497Y-132455829D01*
X114930831Y-132029496D01*
X114985347Y-132001719D01*
X115000834Y-132000500D01*
X116642778Y-132000500D01*
X116654660Y-132002064D01*
X116654687Y-132001756D01*
X116663314Y-132002511D01*
X116671682Y-132004753D01*
X116710397Y-132001366D01*
X116719026Y-132000989D01*
X119356575Y-132000989D01*
X119414766Y-132019896D01*
X119450730Y-132069396D01*
X119450730Y-132130582D01*
X119446189Y-132142063D01*
X119441447Y-132152163D01*
X119440362Y-132159132D01*
X119440361Y-132159135D01*
X119432393Y-132210316D01*
X119419391Y-132293823D01*
X119437980Y-132435979D01*
X119440821Y-132442435D01*
X119440821Y-132442436D01*
X119491461Y-132557523D01*
X119495720Y-132567203D01*
X119513892Y-132588821D01*
X119583431Y-132671549D01*
X119583434Y-132671551D01*
X119587970Y-132676948D01*
X119593841Y-132680856D01*
X119593842Y-132680857D01*
X119611689Y-132692737D01*
X119707313Y-132756390D01*
X119807920Y-132787821D01*
X119837425Y-132797039D01*
X119837426Y-132797039D01*
X119844157Y-132799142D01*
X119915828Y-132800456D01*
X119980445Y-132801641D01*
X119980447Y-132801641D01*
X119987499Y-132801770D01*
X119994302Y-132799915D01*
X119994304Y-132799915D01*
X120114644Y-132767106D01*
X120125817Y-132764060D01*
X120247991Y-132689045D01*
X120253327Y-132683150D01*
X120276035Y-132658063D01*
X120329103Y-132627610D01*
X120349432Y-132625500D01*
X126631466Y-132625500D01*
X126640095Y-132625877D01*
X126678807Y-132629264D01*
X126694873Y-132624959D01*
X126716349Y-132619204D01*
X126724784Y-132617334D01*
X126754517Y-132612092D01*
X126754519Y-132612091D01*
X126763045Y-132610588D01*
X126770544Y-132606258D01*
X126776029Y-132604262D01*
X126781316Y-132601796D01*
X126789684Y-132599554D01*
X126821511Y-132577268D01*
X126828795Y-132572627D01*
X126862455Y-132553194D01*
X126887431Y-132523429D01*
X126893265Y-132517061D01*
X128130496Y-131279830D01*
X128185013Y-131252053D01*
X128245445Y-131261624D01*
X128288710Y-131304889D01*
X128299500Y-131349834D01*
X128299500Y-131799166D01*
X128280593Y-131857357D01*
X128270504Y-131869170D01*
X126919170Y-133220504D01*
X126864653Y-133248281D01*
X126849166Y-133249500D01*
X120300632Y-133249500D01*
X120242441Y-133230593D01*
X120225634Y-133215124D01*
X120212006Y-133199308D01*
X120212004Y-133199306D01*
X120207400Y-133193963D01*
X120087095Y-133115985D01*
X119949739Y-133074907D01*
X119866497Y-133074398D01*
X119813427Y-133074074D01*
X119813426Y-133074074D01*
X119806376Y-133074031D01*
X119799599Y-133075968D01*
X119799598Y-133075968D01*
X119675309Y-133111490D01*
X119675307Y-133111491D01*
X119668529Y-133113428D01*
X119547280Y-133189930D01*
X119542613Y-133195214D01*
X119542611Y-133195216D01*
X119457044Y-133292103D01*
X119457042Y-133292105D01*
X119452377Y-133297388D01*
X119391447Y-133427163D01*
X119369391Y-133568823D01*
X119370306Y-133575820D01*
X119370306Y-133575821D01*
X119378818Y-133640914D01*
X119387980Y-133710979D01*
X119390821Y-133717435D01*
X119390821Y-133717436D01*
X119441461Y-133832523D01*
X119445720Y-133842203D01*
X119468737Y-133869585D01*
X119533431Y-133946549D01*
X119533434Y-133946551D01*
X119537970Y-133951948D01*
X119657313Y-134031390D01*
X119746243Y-134059173D01*
X119787425Y-134072039D01*
X119787426Y-134072039D01*
X119794157Y-134074142D01*
X119865828Y-134075456D01*
X119930445Y-134076641D01*
X119930447Y-134076641D01*
X119937499Y-134076770D01*
X119944302Y-134074915D01*
X119944304Y-134074915D01*
X120019503Y-134054413D01*
X120075817Y-134039060D01*
X120197991Y-133964045D01*
X120202727Y-133958813D01*
X120226035Y-133933063D01*
X120279103Y-133902610D01*
X120299432Y-133900500D01*
X127006466Y-133900500D01*
X127015095Y-133900877D01*
X127053807Y-133904264D01*
X127091350Y-133894204D01*
X127099784Y-133892334D01*
X127129517Y-133887092D01*
X127129519Y-133887091D01*
X127138045Y-133885588D01*
X127145544Y-133881258D01*
X127151029Y-133879262D01*
X127156316Y-133876796D01*
X127164684Y-133874554D01*
X127196511Y-133852268D01*
X127203795Y-133847627D01*
X127237455Y-133828194D01*
X127262431Y-133798429D01*
X127268265Y-133792061D01*
X128800996Y-132259330D01*
X128855513Y-132231553D01*
X128915945Y-132241124D01*
X128959210Y-132284389D01*
X128970000Y-132329334D01*
X128970000Y-139318025D01*
X128969687Y-139325894D01*
X128968825Y-139336704D01*
X128969643Y-139342250D01*
X128969718Y-139344485D01*
X128970000Y-139346989D01*
X128970000Y-139352546D01*
X128972434Y-139363218D01*
X128973849Y-139370769D01*
X128989944Y-139479887D01*
X129002644Y-139565985D01*
X129007056Y-139595900D01*
X128996843Y-139656227D01*
X128953120Y-139699029D01*
X128892590Y-139707957D01*
X128838372Y-139679601D01*
X128834118Y-139674970D01*
X128812006Y-139649308D01*
X128812004Y-139649306D01*
X128807400Y-139643963D01*
X128687095Y-139565985D01*
X128549739Y-139524907D01*
X128527266Y-139524770D01*
X128475182Y-139524451D01*
X128417108Y-139505188D01*
X128405783Y-139495457D01*
X128393269Y-139482943D01*
X128387434Y-139476575D01*
X128385122Y-139473819D01*
X128362455Y-139446806D01*
X128328792Y-139427371D01*
X128321511Y-139422732D01*
X128313472Y-139417103D01*
X128289684Y-139400446D01*
X128281316Y-139398204D01*
X128276029Y-139395738D01*
X128270544Y-139393742D01*
X128263045Y-139389412D01*
X128254519Y-139387909D01*
X128254517Y-139387908D01*
X128224784Y-139382666D01*
X128216349Y-139380796D01*
X128187174Y-139372978D01*
X128178807Y-139370736D01*
X128170178Y-139371491D01*
X128140095Y-139374123D01*
X128131466Y-139374500D01*
X124395632Y-139374500D01*
X124337441Y-139355593D01*
X124320634Y-139340124D01*
X124307006Y-139324308D01*
X124307004Y-139324306D01*
X124302400Y-139318963D01*
X124182095Y-139240985D01*
X124044739Y-139199907D01*
X123961497Y-139199398D01*
X123908427Y-139199074D01*
X123908426Y-139199074D01*
X123901376Y-139199031D01*
X123894599Y-139200968D01*
X123894598Y-139200968D01*
X123770309Y-139236490D01*
X123770307Y-139236491D01*
X123763529Y-139238428D01*
X123642280Y-139314930D01*
X123637613Y-139320214D01*
X123637611Y-139320216D01*
X123552044Y-139417103D01*
X123552042Y-139417105D01*
X123547377Y-139422388D01*
X123486447Y-139552163D01*
X123485362Y-139559132D01*
X123485361Y-139559135D01*
X123472321Y-139642891D01*
X123444687Y-139697481D01*
X123438994Y-139700401D01*
X123454593Y-139711734D01*
X123472664Y-139757089D01*
X123482980Y-139835979D01*
X123485821Y-139842435D01*
X123485821Y-139842436D01*
X123534911Y-139954000D01*
X123540720Y-139967203D01*
X123586845Y-140022076D01*
X123628431Y-140071549D01*
X123628434Y-140071551D01*
X123632970Y-140076948D01*
X123638841Y-140080856D01*
X123638842Y-140080857D01*
X123643283Y-140083813D01*
X123752313Y-140156390D01*
X123852920Y-140187821D01*
X123882425Y-140197039D01*
X123882426Y-140197039D01*
X123889157Y-140199142D01*
X123960828Y-140200456D01*
X124025445Y-140201641D01*
X124025447Y-140201641D01*
X124032499Y-140201770D01*
X124039302Y-140199915D01*
X124039304Y-140199915D01*
X124116997Y-140178733D01*
X124170817Y-140164060D01*
X124292991Y-140089045D01*
X124298479Y-140082982D01*
X124321035Y-140058063D01*
X124374103Y-140027610D01*
X124394432Y-140025500D01*
X127883367Y-140025500D01*
X127941558Y-140044407D01*
X127977522Y-140093907D01*
X127981531Y-140111663D01*
X127987980Y-140160979D01*
X127990818Y-140167430D01*
X127990819Y-140167432D01*
X128016855Y-140226602D01*
X128045720Y-140292203D01*
X128081574Y-140334857D01*
X128133431Y-140396549D01*
X128133434Y-140396551D01*
X128137970Y-140401948D01*
X128143841Y-140405856D01*
X128143842Y-140405857D01*
X128164960Y-140419914D01*
X128257313Y-140481390D01*
X128357920Y-140512821D01*
X128387425Y-140522039D01*
X128387426Y-140522039D01*
X128394157Y-140524142D01*
X128465828Y-140525456D01*
X128530445Y-140526641D01*
X128530447Y-140526641D01*
X128537499Y-140526770D01*
X128544302Y-140524915D01*
X128544304Y-140524915D01*
X128619503Y-140504413D01*
X128675817Y-140489060D01*
X128797991Y-140414045D01*
X128805403Y-140405857D01*
X128889468Y-140312982D01*
X128894200Y-140307754D01*
X128921075Y-140252284D01*
X128963463Y-140208160D01*
X129023690Y-140197378D01*
X129078754Y-140224056D01*
X129108109Y-140281004D01*
X129507585Y-142989316D01*
X130737512Y-151327804D01*
X130738572Y-151342492D01*
X130690403Y-171031242D01*
X130671353Y-171089387D01*
X130621765Y-171125229D01*
X130591403Y-171130000D01*
X90389404Y-171130000D01*
X90331213Y-171111093D01*
X90295249Y-171061593D01*
X90290404Y-171030758D01*
X90292436Y-170200500D01*
X90292878Y-170019748D01*
X117939500Y-170019748D01*
X117951133Y-170078231D01*
X117995448Y-170144552D01*
X118061769Y-170188867D01*
X118071332Y-170190769D01*
X118071334Y-170190770D01*
X118094005Y-170195279D01*
X118120252Y-170200500D01*
X119259748Y-170200500D01*
X119285995Y-170195279D01*
X119308666Y-170190770D01*
X119308668Y-170190769D01*
X119318231Y-170188867D01*
X119384552Y-170144552D01*
X119428867Y-170078231D01*
X119440500Y-170019748D01*
X126139500Y-170019748D01*
X126151133Y-170078231D01*
X126195448Y-170144552D01*
X126261769Y-170188867D01*
X126271332Y-170190769D01*
X126271334Y-170190770D01*
X126294005Y-170195279D01*
X126320252Y-170200500D01*
X127459748Y-170200500D01*
X127485995Y-170195279D01*
X127508666Y-170190770D01*
X127508668Y-170190769D01*
X127518231Y-170188867D01*
X127584552Y-170144552D01*
X127628867Y-170078231D01*
X127640500Y-170019748D01*
X127640500Y-168080252D01*
X127633644Y-168045783D01*
X127630770Y-168031334D01*
X127630769Y-168031332D01*
X127628867Y-168021769D01*
X127584552Y-167955448D01*
X127518231Y-167911133D01*
X127508668Y-167909231D01*
X127508666Y-167909230D01*
X127485995Y-167904721D01*
X127459748Y-167899500D01*
X126320252Y-167899500D01*
X126294005Y-167904721D01*
X126271334Y-167909230D01*
X126271332Y-167909231D01*
X126261769Y-167911133D01*
X126195448Y-167955448D01*
X126151133Y-168021769D01*
X126149231Y-168031332D01*
X126149230Y-168031334D01*
X126146356Y-168045783D01*
X126139500Y-168080252D01*
X126139500Y-170019748D01*
X119440500Y-170019748D01*
X119440500Y-169038753D01*
X119984514Y-169038753D01*
X119989011Y-169084612D01*
X120001499Y-169211984D01*
X120001500Y-169211989D01*
X120002039Y-169217486D01*
X120058726Y-169387896D01*
X120061591Y-169392627D01*
X120061593Y-169392631D01*
X120138304Y-169519295D01*
X120151759Y-169541512D01*
X120155607Y-169545497D01*
X120155608Y-169545498D01*
X120179593Y-169570335D01*
X120276514Y-169670699D01*
X120281139Y-169673725D01*
X120281142Y-169673728D01*
X120422163Y-169766009D01*
X120426789Y-169769036D01*
X120595116Y-169831636D01*
X120600602Y-169832368D01*
X120600606Y-169832369D01*
X120762408Y-169853957D01*
X120773130Y-169855388D01*
X120778636Y-169854887D01*
X120778638Y-169854887D01*
X120862556Y-169847250D01*
X120951981Y-169839112D01*
X120974990Y-169831636D01*
X121117517Y-169785326D01*
X121117519Y-169785325D01*
X121122782Y-169783615D01*
X121127538Y-169780780D01*
X121127540Y-169780779D01*
X121272293Y-169694489D01*
X121277044Y-169691657D01*
X121407099Y-169567807D01*
X121506483Y-169418222D01*
X121570257Y-169250336D01*
X121587092Y-169130545D01*
X121594818Y-169075575D01*
X121594818Y-169075573D01*
X121595251Y-169072493D01*
X121595295Y-169069375D01*
X121595522Y-169053116D01*
X121595522Y-169053108D01*
X121595565Y-169050000D01*
X121594921Y-169044256D01*
X121576163Y-168877025D01*
X121576162Y-168877021D01*
X121575546Y-168871528D01*
X121529832Y-168740255D01*
X121518305Y-168707153D01*
X121518305Y-168707152D01*
X121516485Y-168701927D01*
X121421316Y-168549625D01*
X121352113Y-168479937D01*
X121298671Y-168426121D01*
X121298669Y-168426120D01*
X121294770Y-168422193D01*
X121289855Y-168419074D01*
X121147810Y-168328929D01*
X121147809Y-168328928D01*
X121143136Y-168325963D01*
X121119291Y-168317472D01*
X120979160Y-168267574D01*
X120979161Y-168267574D01*
X120973951Y-168265719D01*
X120968464Y-168265065D01*
X120968461Y-168265064D01*
X120801120Y-168245110D01*
X120801117Y-168245110D01*
X120795624Y-168244455D01*
X120617017Y-168263227D01*
X120611777Y-168265011D01*
X120611776Y-168265011D01*
X120452249Y-168319318D01*
X120452245Y-168319320D01*
X120447007Y-168321103D01*
X120442297Y-168324001D01*
X120442292Y-168324003D01*
X120298907Y-168412215D01*
X120294045Y-168415206D01*
X120165732Y-168540859D01*
X120068446Y-168691817D01*
X120007022Y-168860578D01*
X119984514Y-169038753D01*
X119440500Y-169038753D01*
X119440500Y-168080252D01*
X119433644Y-168045783D01*
X119430770Y-168031334D01*
X119430769Y-168031332D01*
X119428867Y-168021769D01*
X119384552Y-167955448D01*
X119318231Y-167911133D01*
X119308668Y-167909231D01*
X119308666Y-167909230D01*
X119285995Y-167904721D01*
X119259748Y-167899500D01*
X118120252Y-167899500D01*
X118094005Y-167904721D01*
X118071334Y-167909230D01*
X118071332Y-167909231D01*
X118061769Y-167911133D01*
X117995448Y-167955448D01*
X117951133Y-168021769D01*
X117949231Y-168031332D01*
X117949230Y-168031334D01*
X117946356Y-168045783D01*
X117939500Y-168080252D01*
X117939500Y-170019748D01*
X90292878Y-170019748D01*
X90294001Y-169560852D01*
X95847109Y-169560852D01*
X95847116Y-169560897D01*
X95852639Y-169567112D01*
X95971083Y-169646253D01*
X95979029Y-169650567D01*
X96152214Y-169724973D01*
X96160809Y-169727766D01*
X96344657Y-169769367D01*
X96353617Y-169770547D01*
X96541969Y-169777947D01*
X96550996Y-169777473D01*
X96737532Y-169750427D01*
X96746331Y-169748315D01*
X96924814Y-169687728D01*
X96933078Y-169684048D01*
X97097532Y-169591950D01*
X97104985Y-169586828D01*
X97125530Y-169569741D01*
X97132646Y-169558463D01*
X97132460Y-169555630D01*
X97130458Y-169552590D01*
X96501086Y-168923218D01*
X96489203Y-168917164D01*
X96484172Y-168917960D01*
X95853163Y-169548969D01*
X95847109Y-169560852D01*
X90294001Y-169560852D01*
X90296165Y-168676267D01*
X95411062Y-168676267D01*
X95423390Y-168864361D01*
X95424803Y-168873282D01*
X95471202Y-169055978D01*
X95474222Y-169064506D01*
X95553135Y-169235680D01*
X95557653Y-169243506D01*
X95621776Y-169334239D01*
X95632461Y-169342218D01*
X95633212Y-169342228D01*
X95639341Y-169338527D01*
X96266782Y-168711086D01*
X96272024Y-168700797D01*
X96707164Y-168700797D01*
X96707960Y-168705828D01*
X97338630Y-169336498D01*
X97350513Y-169342552D01*
X97353315Y-169342109D01*
X97356161Y-169339835D01*
X97376828Y-169314985D01*
X97381950Y-169307532D01*
X97474048Y-169143078D01*
X97477728Y-169134814D01*
X97538315Y-168956331D01*
X97540427Y-168947532D01*
X97567705Y-168759402D01*
X97568202Y-168753576D01*
X97569529Y-168702913D01*
X97569339Y-168697101D01*
X97567007Y-168671726D01*
X99910262Y-168671726D01*
X99912242Y-168701927D01*
X99921780Y-168847449D01*
X99923190Y-168868966D01*
X99924306Y-168873359D01*
X99924306Y-168873361D01*
X99955913Y-168997813D01*
X99971845Y-169060547D01*
X100054599Y-169240054D01*
X100168679Y-169401474D01*
X100310266Y-169539402D01*
X100314041Y-169541924D01*
X100314043Y-169541926D01*
X100381864Y-169587242D01*
X100474617Y-169649217D01*
X100478784Y-169651007D01*
X100478789Y-169651010D01*
X100556765Y-169684511D01*
X100656228Y-169727244D01*
X100725954Y-169743021D01*
X100844592Y-169769867D01*
X100844597Y-169769868D01*
X100849018Y-169770868D01*
X101046528Y-169778628D01*
X101098821Y-169771046D01*
X101237658Y-169750916D01*
X101237661Y-169750915D01*
X101242146Y-169750265D01*
X101335733Y-169718497D01*
X101425023Y-169688187D01*
X101425026Y-169688185D01*
X101429320Y-169686728D01*
X101434106Y-169684048D01*
X101496300Y-169649217D01*
X101601780Y-169590145D01*
X101753752Y-169463752D01*
X101880145Y-169311780D01*
X101976728Y-169139320D01*
X102037260Y-168960997D01*
X105804400Y-168960997D01*
X105804732Y-168963843D01*
X105817759Y-169075575D01*
X105819478Y-169090323D01*
X105878879Y-169253972D01*
X105974335Y-169399566D01*
X106100724Y-169519295D01*
X106251267Y-169606737D01*
X106334578Y-169631970D01*
X106412383Y-169655535D01*
X106412386Y-169655535D01*
X106417888Y-169657202D01*
X106543249Y-169664979D01*
X106585910Y-169667626D01*
X106585911Y-169667626D01*
X106591650Y-169667982D01*
X106763231Y-169638499D01*
X106768526Y-169636246D01*
X106918138Y-169572586D01*
X106918139Y-169572586D01*
X106923428Y-169570335D01*
X107063647Y-169467145D01*
X107067369Y-169462763D01*
X107067372Y-169462761D01*
X107172640Y-169338852D01*
X107172641Y-169338851D01*
X107176366Y-169334466D01*
X107222684Y-169243758D01*
X107252923Y-169184539D01*
X107252924Y-169184536D01*
X107255539Y-169179415D01*
X107256906Y-169173829D01*
X107295872Y-169014588D01*
X107295872Y-169014585D01*
X107296919Y-169010308D01*
X107297600Y-168999331D01*
X107297600Y-168960997D01*
X114444400Y-168960997D01*
X114444732Y-168963843D01*
X114457759Y-169075575D01*
X114459478Y-169090323D01*
X114518879Y-169253972D01*
X114614335Y-169399566D01*
X114740724Y-169519295D01*
X114891267Y-169606737D01*
X114974578Y-169631970D01*
X115052383Y-169655535D01*
X115052386Y-169655535D01*
X115057888Y-169657202D01*
X115183249Y-169664979D01*
X115225910Y-169667626D01*
X115225911Y-169667626D01*
X115231650Y-169667982D01*
X115403231Y-169638499D01*
X115408526Y-169636246D01*
X115558138Y-169572586D01*
X115558139Y-169572586D01*
X115563428Y-169570335D01*
X115703647Y-169467145D01*
X115707369Y-169462763D01*
X115707372Y-169462761D01*
X115812640Y-169338852D01*
X115812641Y-169338851D01*
X115816366Y-169334466D01*
X115862684Y-169243758D01*
X115892923Y-169184539D01*
X115892924Y-169184536D01*
X115895539Y-169179415D01*
X115896906Y-169173829D01*
X115935872Y-169014588D01*
X115935872Y-169014585D01*
X115936919Y-169010308D01*
X115937600Y-168999331D01*
X115937600Y-168264201D01*
X115922522Y-168134875D01*
X115915679Y-168116021D01*
X115878524Y-168013660D01*
X115863121Y-167971226D01*
X115852777Y-167955448D01*
X115813707Y-167895858D01*
X115767665Y-167825632D01*
X115641276Y-167705903D01*
X115490733Y-167618461D01*
X115382648Y-167585725D01*
X115329617Y-167569663D01*
X115329614Y-167569663D01*
X115324112Y-167567996D01*
X115198751Y-167560219D01*
X115156090Y-167557572D01*
X115156089Y-167557572D01*
X115150350Y-167557216D01*
X114978769Y-167586699D01*
X114973474Y-167588952D01*
X114883597Y-167627195D01*
X114818572Y-167654863D01*
X114803368Y-167666052D01*
X114702833Y-167740038D01*
X114678353Y-167758053D01*
X114674631Y-167762435D01*
X114674628Y-167762437D01*
X114603490Y-167846172D01*
X114565634Y-167890732D01*
X114486461Y-168045783D01*
X114485094Y-168051368D01*
X114485094Y-168051369D01*
X114463476Y-168139717D01*
X114445081Y-168214890D01*
X114444400Y-168225867D01*
X114444400Y-168960997D01*
X107297600Y-168960997D01*
X107297600Y-168264201D01*
X107282522Y-168134875D01*
X107275679Y-168116021D01*
X107238524Y-168013660D01*
X107223121Y-167971226D01*
X107212777Y-167955448D01*
X107173707Y-167895858D01*
X107127665Y-167825632D01*
X107001276Y-167705903D01*
X106850733Y-167618461D01*
X106742648Y-167585725D01*
X106689617Y-167569663D01*
X106689614Y-167569663D01*
X106684112Y-167567996D01*
X106558751Y-167560219D01*
X106516090Y-167557572D01*
X106516089Y-167557572D01*
X106510350Y-167557216D01*
X106338769Y-167586699D01*
X106333474Y-167588952D01*
X106243597Y-167627195D01*
X106178572Y-167654863D01*
X106163368Y-167666052D01*
X106062833Y-167740038D01*
X106038353Y-167758053D01*
X106034631Y-167762435D01*
X106034628Y-167762437D01*
X105963490Y-167846172D01*
X105925634Y-167890732D01*
X105846461Y-168045783D01*
X105845094Y-168051368D01*
X105845094Y-168051369D01*
X105823476Y-168139717D01*
X105805081Y-168214890D01*
X105804400Y-168225867D01*
X105804400Y-168960997D01*
X102037260Y-168960997D01*
X102040265Y-168952146D01*
X102044460Y-168923218D01*
X102068211Y-168759403D01*
X102068211Y-168759402D01*
X102068628Y-168756528D01*
X102069932Y-168706718D01*
X102070032Y-168702914D01*
X102070032Y-168702909D01*
X102070108Y-168700000D01*
X102069573Y-168694172D01*
X102055912Y-168545511D01*
X102052021Y-168503166D01*
X101998368Y-168312924D01*
X101910943Y-168135645D01*
X101792677Y-167977267D01*
X101647528Y-167843093D01*
X101627483Y-167830445D01*
X101484196Y-167740038D01*
X101480359Y-167737617D01*
X101296767Y-167664371D01*
X101102902Y-167625809D01*
X101005556Y-167624535D01*
X100909796Y-167623281D01*
X100909791Y-167623281D01*
X100905256Y-167623222D01*
X100900783Y-167623991D01*
X100900778Y-167623991D01*
X100714925Y-167655926D01*
X100714919Y-167655928D01*
X100710447Y-167656696D01*
X100683780Y-167666534D01*
X100529265Y-167723537D01*
X100529262Y-167723538D01*
X100525002Y-167725110D01*
X100521099Y-167727432D01*
X100521097Y-167727433D01*
X100362690Y-167821675D01*
X100355128Y-167826174D01*
X100351713Y-167829168D01*
X100351710Y-167829171D01*
X100286515Y-167886346D01*
X100206517Y-167956503D01*
X100084145Y-168111731D01*
X100082032Y-168115746D01*
X100082032Y-168115747D01*
X100071968Y-168134875D01*
X99992110Y-168286661D01*
X99990765Y-168290992D01*
X99990764Y-168290995D01*
X99948807Y-168426121D01*
X99933495Y-168475433D01*
X99932962Y-168479937D01*
X99912581Y-168652137D01*
X99910262Y-168671726D01*
X97567007Y-168671726D01*
X97551942Y-168507776D01*
X97550295Y-168498890D01*
X97499130Y-168317472D01*
X97495889Y-168309030D01*
X97412526Y-168139985D01*
X97407796Y-168132267D01*
X97358213Y-168065867D01*
X97347319Y-168058168D01*
X97345870Y-168058187D01*
X97340779Y-168061353D01*
X96713218Y-168688914D01*
X96707164Y-168700797D01*
X96272024Y-168700797D01*
X96272836Y-168699203D01*
X96272040Y-168694172D01*
X95642074Y-168064206D01*
X95630191Y-168058152D01*
X95628074Y-168058487D01*
X95624343Y-168061549D01*
X95587379Y-168108438D01*
X95582454Y-168116021D01*
X95494685Y-168282842D01*
X95491231Y-168291182D01*
X95435334Y-168471198D01*
X95433453Y-168480048D01*
X95411298Y-168667235D01*
X95411062Y-168676267D01*
X90296165Y-168676267D01*
X90298211Y-167840186D01*
X95846162Y-167840186D01*
X95846485Y-167843702D01*
X95847853Y-167845721D01*
X96478914Y-168476782D01*
X96490797Y-168482836D01*
X96495828Y-168482040D01*
X97128260Y-167849608D01*
X97134138Y-167838070D01*
X97128045Y-167831392D01*
X96983968Y-167740486D01*
X96975914Y-167736383D01*
X96800836Y-167666534D01*
X96792178Y-167663969D01*
X96607303Y-167627195D01*
X96598310Y-167626250D01*
X96409834Y-167623782D01*
X96400819Y-167624492D01*
X96215047Y-167656414D01*
X96206323Y-167658752D01*
X96029481Y-167723991D01*
X96021313Y-167727887D01*
X95859325Y-167824260D01*
X95852829Y-167828979D01*
X95846162Y-167840186D01*
X90298211Y-167840186D01*
X90302199Y-166210000D01*
X93974723Y-166210000D01*
X93993793Y-166427977D01*
X94050425Y-166639330D01*
X94142898Y-166837638D01*
X94268402Y-167016877D01*
X94423123Y-167171598D01*
X94602361Y-167297102D01*
X94800670Y-167389575D01*
X94887220Y-167412766D01*
X95007846Y-167445088D01*
X95007848Y-167445088D01*
X95012023Y-167446207D01*
X95230000Y-167465277D01*
X95447977Y-167446207D01*
X95452152Y-167445088D01*
X95452154Y-167445088D01*
X95572780Y-167412766D01*
X95659330Y-167389575D01*
X95857639Y-167297102D01*
X96036877Y-167171598D01*
X96191598Y-167016877D01*
X96317102Y-166837638D01*
X96409575Y-166639330D01*
X96466207Y-166427977D01*
X96485277Y-166210000D01*
X100984723Y-166210000D01*
X101003793Y-166427977D01*
X101060425Y-166639330D01*
X101152898Y-166837638D01*
X101278402Y-167016877D01*
X101433123Y-167171598D01*
X101612361Y-167297102D01*
X101810670Y-167389575D01*
X101897220Y-167412766D01*
X102017846Y-167445088D01*
X102017848Y-167445088D01*
X102022023Y-167446207D01*
X102240000Y-167465277D01*
X102457977Y-167446207D01*
X102462152Y-167445088D01*
X102462154Y-167445088D01*
X102582780Y-167412766D01*
X102669330Y-167389575D01*
X102867639Y-167297102D01*
X103046877Y-167171598D01*
X103201598Y-167016877D01*
X103327102Y-166837638D01*
X103419575Y-166639330D01*
X103476207Y-166427977D01*
X103495277Y-166210000D01*
X103476207Y-165992023D01*
X103419575Y-165780670D01*
X103327102Y-165582362D01*
X103310953Y-165559298D01*
X103237203Y-165453973D01*
X103201598Y-165403123D01*
X103046877Y-165248402D01*
X102922051Y-165160998D01*
X105804400Y-165160998D01*
X105804732Y-165163844D01*
X105817439Y-165272832D01*
X105819478Y-165290324D01*
X105878879Y-165453973D01*
X105974335Y-165599567D01*
X106100724Y-165719296D01*
X106251267Y-165806738D01*
X106334578Y-165831971D01*
X106412383Y-165855536D01*
X106412386Y-165855536D01*
X106417888Y-165857203D01*
X106543249Y-165864980D01*
X106585910Y-165867627D01*
X106585911Y-165867627D01*
X106591650Y-165867983D01*
X106763231Y-165838500D01*
X106768526Y-165836247D01*
X106918138Y-165772587D01*
X106918139Y-165772587D01*
X106923428Y-165770336D01*
X107063647Y-165667146D01*
X107067369Y-165662764D01*
X107067372Y-165662762D01*
X107172640Y-165538853D01*
X107172641Y-165538852D01*
X107176366Y-165534467D01*
X107238291Y-165413194D01*
X107252923Y-165384540D01*
X107252924Y-165384537D01*
X107255539Y-165379416D01*
X107282748Y-165268222D01*
X107295872Y-165214589D01*
X107295872Y-165214586D01*
X107296919Y-165210309D01*
X107297600Y-165199332D01*
X107297600Y-165160998D01*
X114444400Y-165160998D01*
X114444732Y-165163844D01*
X114457439Y-165272832D01*
X114459478Y-165290324D01*
X114518879Y-165453973D01*
X114614335Y-165599567D01*
X114740724Y-165719296D01*
X114891267Y-165806738D01*
X114974578Y-165831971D01*
X115052383Y-165855536D01*
X115052386Y-165855536D01*
X115057888Y-165857203D01*
X115183249Y-165864980D01*
X115225910Y-165867627D01*
X115225911Y-165867627D01*
X115231650Y-165867983D01*
X115403231Y-165838500D01*
X115408526Y-165836247D01*
X115558138Y-165772587D01*
X115558139Y-165772587D01*
X115563428Y-165770336D01*
X115703647Y-165667146D01*
X115707369Y-165662764D01*
X115707372Y-165662762D01*
X115812640Y-165538853D01*
X115812641Y-165538852D01*
X115816366Y-165534467D01*
X115878291Y-165413194D01*
X115892923Y-165384540D01*
X115892924Y-165384537D01*
X115895539Y-165379416D01*
X115922748Y-165268222D01*
X115935872Y-165214589D01*
X115935872Y-165214586D01*
X115936919Y-165210309D01*
X115937600Y-165199332D01*
X115937600Y-164888753D01*
X121619514Y-164888753D01*
X121626019Y-164955100D01*
X121636499Y-165061984D01*
X121636500Y-165061989D01*
X121637039Y-165067486D01*
X121693726Y-165237896D01*
X121696591Y-165242627D01*
X121696593Y-165242631D01*
X121783890Y-165386775D01*
X121786759Y-165391512D01*
X121790607Y-165395497D01*
X121790608Y-165395498D01*
X121801391Y-165406664D01*
X121911514Y-165520699D01*
X121924721Y-165529341D01*
X121925708Y-165529987D01*
X121964047Y-165577670D01*
X121970500Y-165612827D01*
X121970500Y-168652137D01*
X121969814Y-168663773D01*
X121965593Y-168699438D01*
X121975480Y-168753576D01*
X121976304Y-168758087D01*
X121976813Y-168761144D01*
X121985685Y-168820151D01*
X121988815Y-168826669D01*
X121988848Y-168826771D01*
X121990147Y-168833883D01*
X121993558Y-168840450D01*
X121995955Y-168847449D01*
X121994035Y-168848107D01*
X122002563Y-168895875D01*
X121984514Y-169038753D01*
X121989011Y-169084612D01*
X122001499Y-169211984D01*
X122001500Y-169211989D01*
X122002039Y-169217486D01*
X122058726Y-169387896D01*
X122061591Y-169392627D01*
X122061593Y-169392631D01*
X122138304Y-169519295D01*
X122151759Y-169541512D01*
X122155607Y-169545497D01*
X122155608Y-169545498D01*
X122179593Y-169570335D01*
X122276514Y-169670699D01*
X122281139Y-169673725D01*
X122281142Y-169673728D01*
X122422163Y-169766009D01*
X122426789Y-169769036D01*
X122595116Y-169831636D01*
X122600602Y-169832368D01*
X122600606Y-169832369D01*
X122762408Y-169853957D01*
X122773130Y-169855388D01*
X122778636Y-169854887D01*
X122778638Y-169854887D01*
X122862556Y-169847250D01*
X122951981Y-169839112D01*
X122974990Y-169831636D01*
X123117517Y-169785326D01*
X123117519Y-169785325D01*
X123122782Y-169783615D01*
X123127538Y-169780780D01*
X123127540Y-169780779D01*
X123272293Y-169694489D01*
X123277044Y-169691657D01*
X123407099Y-169567807D01*
X123506483Y-169418222D01*
X123570257Y-169250336D01*
X123587092Y-169130545D01*
X123594818Y-169075575D01*
X123594818Y-169075573D01*
X123595251Y-169072493D01*
X123595295Y-169069375D01*
X123595522Y-169053116D01*
X123595522Y-169053108D01*
X123595565Y-169050000D01*
X123594921Y-169044256D01*
X123594304Y-169038753D01*
X123984514Y-169038753D01*
X123989011Y-169084612D01*
X124001499Y-169211984D01*
X124001500Y-169211989D01*
X124002039Y-169217486D01*
X124058726Y-169387896D01*
X124061591Y-169392627D01*
X124061593Y-169392631D01*
X124138304Y-169519295D01*
X124151759Y-169541512D01*
X124155607Y-169545497D01*
X124155608Y-169545498D01*
X124179593Y-169570335D01*
X124276514Y-169670699D01*
X124281139Y-169673725D01*
X124281142Y-169673728D01*
X124422163Y-169766009D01*
X124426789Y-169769036D01*
X124595116Y-169831636D01*
X124600602Y-169832368D01*
X124600606Y-169832369D01*
X124762408Y-169853957D01*
X124773130Y-169855388D01*
X124778636Y-169854887D01*
X124778638Y-169854887D01*
X124862556Y-169847250D01*
X124951981Y-169839112D01*
X124974990Y-169831636D01*
X125117517Y-169785326D01*
X125117519Y-169785325D01*
X125122782Y-169783615D01*
X125127538Y-169780780D01*
X125127540Y-169780779D01*
X125272293Y-169694489D01*
X125277044Y-169691657D01*
X125407099Y-169567807D01*
X125506483Y-169418222D01*
X125570257Y-169250336D01*
X125587092Y-169130545D01*
X125594818Y-169075575D01*
X125594818Y-169075573D01*
X125595251Y-169072493D01*
X125595295Y-169069375D01*
X125595522Y-169053116D01*
X125595522Y-169053108D01*
X125595565Y-169050000D01*
X125594921Y-169044256D01*
X125576163Y-168877025D01*
X125576162Y-168877021D01*
X125575546Y-168871528D01*
X125529832Y-168740255D01*
X125518305Y-168707153D01*
X125518305Y-168707152D01*
X125516485Y-168701927D01*
X125421316Y-168549625D01*
X125352113Y-168479937D01*
X125298671Y-168426121D01*
X125298669Y-168426120D01*
X125294770Y-168422193D01*
X125289855Y-168419074D01*
X125147810Y-168328929D01*
X125147809Y-168328928D01*
X125143136Y-168325963D01*
X125119291Y-168317472D01*
X124979160Y-168267574D01*
X124979161Y-168267574D01*
X124973951Y-168265719D01*
X124968464Y-168265065D01*
X124968461Y-168265064D01*
X124801120Y-168245110D01*
X124801117Y-168245110D01*
X124795624Y-168244455D01*
X124617017Y-168263227D01*
X124611777Y-168265011D01*
X124611776Y-168265011D01*
X124452249Y-168319318D01*
X124452245Y-168319320D01*
X124447007Y-168321103D01*
X124442297Y-168324001D01*
X124442292Y-168324003D01*
X124298907Y-168412215D01*
X124294045Y-168415206D01*
X124165732Y-168540859D01*
X124068446Y-168691817D01*
X124007022Y-168860578D01*
X123984514Y-169038753D01*
X123594304Y-169038753D01*
X123576163Y-168877025D01*
X123576162Y-168877021D01*
X123575546Y-168871528D01*
X123529832Y-168740255D01*
X123518305Y-168707153D01*
X123518305Y-168707152D01*
X123516485Y-168701927D01*
X123421316Y-168549625D01*
X123352113Y-168479937D01*
X123298671Y-168426121D01*
X123298669Y-168426120D01*
X123294770Y-168422193D01*
X123289855Y-168419074D01*
X123147810Y-168328929D01*
X123147809Y-168328928D01*
X123143136Y-168325963D01*
X123124475Y-168319318D01*
X122979167Y-168267576D01*
X122979164Y-168267575D01*
X122973951Y-168265719D01*
X122968455Y-168265064D01*
X122968452Y-168265063D01*
X122966781Y-168264864D01*
X122965934Y-168264473D01*
X122963066Y-168263800D01*
X122963204Y-168263211D01*
X122911237Y-168239201D01*
X122881386Y-168185792D01*
X122879500Y-168166560D01*
X122879500Y-165614728D01*
X122898407Y-165556537D01*
X122912506Y-165542142D01*
X122912044Y-165541657D01*
X122938237Y-165516714D01*
X123042099Y-165417807D01*
X123049503Y-165406664D01*
X123138420Y-165272832D01*
X123141483Y-165268222D01*
X123205257Y-165100336D01*
X123230251Y-164922493D01*
X123230565Y-164900000D01*
X123229921Y-164894256D01*
X123211163Y-164727025D01*
X123211162Y-164727021D01*
X123210546Y-164721528D01*
X123151485Y-164551927D01*
X123073663Y-164427386D01*
X123059247Y-164404315D01*
X123059245Y-164404313D01*
X123056316Y-164399625D01*
X122929770Y-164272193D01*
X122924855Y-164269074D01*
X122782810Y-164178929D01*
X122782809Y-164178928D01*
X122778136Y-164175963D01*
X122608951Y-164115719D01*
X122603464Y-164115065D01*
X122603461Y-164115064D01*
X122436120Y-164095110D01*
X122436117Y-164095110D01*
X122430624Y-164094455D01*
X122252017Y-164113227D01*
X122246777Y-164115011D01*
X122246776Y-164115011D01*
X122087249Y-164169318D01*
X122087245Y-164169320D01*
X122082007Y-164171103D01*
X122077297Y-164174001D01*
X122077292Y-164174003D01*
X121968944Y-164240660D01*
X121929045Y-164265206D01*
X121800732Y-164390859D01*
X121703446Y-164541817D01*
X121642022Y-164710578D01*
X121619514Y-164888753D01*
X115937600Y-164888753D01*
X115937600Y-164464202D01*
X115922522Y-164334876D01*
X115899770Y-164272193D01*
X115865086Y-164176641D01*
X115863121Y-164171227D01*
X115767665Y-164025633D01*
X115641276Y-163905904D01*
X115490733Y-163818462D01*
X115382648Y-163785726D01*
X115329617Y-163769664D01*
X115329614Y-163769664D01*
X115324112Y-163767997D01*
X115198751Y-163760220D01*
X115156090Y-163757573D01*
X115156089Y-163757573D01*
X115150350Y-163757217D01*
X114978769Y-163786700D01*
X114973474Y-163788953D01*
X114908041Y-163816795D01*
X114818572Y-163854864D01*
X114678353Y-163958054D01*
X114674631Y-163962436D01*
X114674628Y-163962438D01*
X114569360Y-164086347D01*
X114565634Y-164090733D01*
X114486461Y-164245784D01*
X114485094Y-164251369D01*
X114485094Y-164251370D01*
X114448817Y-164399625D01*
X114445081Y-164414891D01*
X114444400Y-164425868D01*
X114444400Y-165160998D01*
X107297600Y-165160998D01*
X107297600Y-164464202D01*
X107282522Y-164334876D01*
X107259770Y-164272193D01*
X107225086Y-164176641D01*
X107223121Y-164171227D01*
X107127665Y-164025633D01*
X107001276Y-163905904D01*
X106850733Y-163818462D01*
X106742648Y-163785726D01*
X106689617Y-163769664D01*
X106689614Y-163769664D01*
X106684112Y-163767997D01*
X106558751Y-163760220D01*
X106516090Y-163757573D01*
X106516089Y-163757573D01*
X106510350Y-163757217D01*
X106338769Y-163786700D01*
X106333474Y-163788953D01*
X106268041Y-163816795D01*
X106178572Y-163854864D01*
X106038353Y-163958054D01*
X106034631Y-163962436D01*
X106034628Y-163962438D01*
X105929360Y-164086347D01*
X105925634Y-164090733D01*
X105846461Y-164245784D01*
X105845094Y-164251369D01*
X105845094Y-164251370D01*
X105808817Y-164399625D01*
X105805081Y-164414891D01*
X105804400Y-164425868D01*
X105804400Y-165160998D01*
X102922051Y-165160998D01*
X102867639Y-165122898D01*
X102669330Y-165030425D01*
X102582780Y-165007234D01*
X102462154Y-164974912D01*
X102462152Y-164974912D01*
X102457977Y-164973793D01*
X102240000Y-164954723D01*
X102022023Y-164973793D01*
X102017848Y-164974912D01*
X102017846Y-164974912D01*
X101897220Y-165007234D01*
X101810670Y-165030425D01*
X101612362Y-165122898D01*
X101433123Y-165248402D01*
X101278402Y-165403123D01*
X101242797Y-165453973D01*
X101169048Y-165559298D01*
X101152898Y-165582362D01*
X101060425Y-165780670D01*
X101003793Y-165992023D01*
X100984723Y-166210000D01*
X96485277Y-166210000D01*
X96466207Y-165992023D01*
X96409575Y-165780670D01*
X96317102Y-165582362D01*
X96300953Y-165559298D01*
X96227203Y-165453973D01*
X96191598Y-165403123D01*
X96036877Y-165248402D01*
X95857639Y-165122898D01*
X95659330Y-165030425D01*
X95572780Y-165007234D01*
X95452154Y-164974912D01*
X95452152Y-164974912D01*
X95447977Y-164973793D01*
X95230000Y-164954723D01*
X95012023Y-164973793D01*
X95007848Y-164974912D01*
X95007846Y-164974912D01*
X94887220Y-165007234D01*
X94800670Y-165030425D01*
X94602362Y-165122898D01*
X94423123Y-165248402D01*
X94268402Y-165403123D01*
X94232797Y-165453973D01*
X94159048Y-165559298D01*
X94142898Y-165582362D01*
X94050425Y-165780670D01*
X93993793Y-165992023D01*
X93974723Y-166210000D01*
X90302199Y-166210000D01*
X90312842Y-161859614D01*
X90314162Y-161320000D01*
X95699000Y-161320000D01*
X109501908Y-161320000D01*
X109560099Y-161338907D01*
X109571113Y-161348207D01*
X109673386Y-161448185D01*
X109890509Y-161606225D01*
X109893672Y-161607889D01*
X109893675Y-161607891D01*
X110057354Y-161694006D01*
X110128172Y-161731265D01*
X110381397Y-161820688D01*
X110384919Y-161821382D01*
X110384922Y-161821383D01*
X110578891Y-161859614D01*
X110644878Y-161872620D01*
X110913095Y-161885972D01*
X110916657Y-161885632D01*
X110916664Y-161885632D01*
X111176861Y-161860807D01*
X111176866Y-161860806D01*
X111180431Y-161860466D01*
X111441285Y-161796636D01*
X111690192Y-161695818D01*
X111921938Y-161560125D01*
X111924733Y-161557890D01*
X111924737Y-161557887D01*
X112128874Y-161394634D01*
X112131669Y-161392399D01*
X112169950Y-161351419D01*
X112223489Y-161321803D01*
X112242295Y-161320000D01*
X123699000Y-161320000D01*
X123699000Y-150520000D01*
X95699000Y-150520000D01*
X95699000Y-161320000D01*
X90314162Y-161320000D01*
X90330430Y-154670805D01*
X90331490Y-154656601D01*
X92586111Y-139371036D01*
X92587569Y-139363296D01*
X92588744Y-139358186D01*
X92588744Y-139358184D01*
X92590000Y-139352723D01*
X92590000Y-139347121D01*
X92590251Y-139344910D01*
X92590338Y-139342379D01*
X92591149Y-139336880D01*
X92590300Y-139325992D01*
X92590000Y-139318296D01*
X92589999Y-126397846D01*
X95352681Y-126397846D01*
X95354847Y-126423643D01*
X95356585Y-126433112D01*
X95410674Y-126621743D01*
X95414225Y-126630711D01*
X95503919Y-126805236D01*
X95509142Y-126813341D01*
X95631037Y-126967134D01*
X95637720Y-126974055D01*
X95787164Y-127101241D01*
X95795078Y-127106742D01*
X95966373Y-127202475D01*
X95975201Y-127206332D01*
X96161836Y-127266973D01*
X96171239Y-127269041D01*
X96227431Y-127275741D01*
X96240516Y-127273151D01*
X96241954Y-127271597D01*
X96243000Y-127266841D01*
X96243000Y-127263928D01*
X96543000Y-127263928D01*
X96547122Y-127276613D01*
X96549735Y-127278512D01*
X96552679Y-127278863D01*
X96571384Y-127277424D01*
X96580877Y-127275750D01*
X96769882Y-127222978D01*
X96778862Y-127219496D01*
X96954020Y-127131017D01*
X96962155Y-127125854D01*
X97116787Y-127005042D01*
X97123771Y-126998391D01*
X97251990Y-126849848D01*
X97257546Y-126841973D01*
X97354471Y-126671353D01*
X97358392Y-126662546D01*
X97420334Y-126476346D01*
X97422469Y-126466945D01*
X97430477Y-126403556D01*
X97427977Y-126390454D01*
X97426567Y-126389130D01*
X97421512Y-126388000D01*
X96558680Y-126388000D01*
X96545995Y-126392122D01*
X96543000Y-126396243D01*
X96543000Y-127263928D01*
X96243000Y-127263928D01*
X96243000Y-126403680D01*
X96238878Y-126390995D01*
X96234757Y-126388000D01*
X95367534Y-126388000D01*
X95354849Y-126392122D01*
X95353058Y-126394586D01*
X95352681Y-126397846D01*
X92589999Y-126397846D01*
X92589999Y-126072417D01*
X95354943Y-126072417D01*
X95357625Y-126085484D01*
X95359328Y-126087039D01*
X95363774Y-126088000D01*
X96227320Y-126088000D01*
X96240005Y-126083878D01*
X96243000Y-126079757D01*
X96243000Y-126072320D01*
X96543000Y-126072320D01*
X96547122Y-126085005D01*
X96551243Y-126088000D01*
X97417693Y-126088000D01*
X97430378Y-126083878D01*
X97431952Y-126081712D01*
X97432375Y-126077820D01*
X97428460Y-126037886D01*
X97426587Y-126028431D01*
X97369869Y-125840572D01*
X97366199Y-125831668D01*
X97274072Y-125658401D01*
X97268740Y-125650376D01*
X97144716Y-125498307D01*
X97137922Y-125491466D01*
X96986721Y-125366381D01*
X96978738Y-125360997D01*
X96806114Y-125267660D01*
X96797243Y-125263931D01*
X96609775Y-125205900D01*
X96600341Y-125203963D01*
X96558594Y-125199575D01*
X96545547Y-125202348D01*
X96543881Y-125204198D01*
X96543000Y-125208343D01*
X96543000Y-126072320D01*
X96243000Y-126072320D01*
X96243000Y-125212946D01*
X96238878Y-125200261D01*
X96236563Y-125198578D01*
X96232987Y-125198177D01*
X96200117Y-125201168D01*
X96190654Y-125202974D01*
X96002407Y-125258378D01*
X95993466Y-125261991D01*
X95819573Y-125352899D01*
X95811497Y-125358184D01*
X95658571Y-125481140D01*
X95651687Y-125487881D01*
X95525551Y-125638205D01*
X95520104Y-125646159D01*
X95425573Y-125818111D01*
X95421773Y-125826976D01*
X95362439Y-126014021D01*
X95360435Y-126023449D01*
X95354943Y-126072417D01*
X92589999Y-126072417D01*
X92589996Y-62734000D01*
X105217543Y-62734000D01*
X115311543Y-62734000D01*
X115311543Y-47546665D01*
X124104994Y-47546665D01*
X124120592Y-47732414D01*
X124121925Y-47737062D01*
X124121925Y-47737063D01*
X124131829Y-47771601D01*
X124171971Y-47911595D01*
X124257176Y-48077385D01*
X124372959Y-48223468D01*
X124376646Y-48226606D01*
X124376648Y-48226608D01*
X124511224Y-48341141D01*
X124511229Y-48341144D01*
X124514912Y-48344279D01*
X124519134Y-48346639D01*
X124519139Y-48346642D01*
X124623578Y-48405010D01*
X124677627Y-48435217D01*
X124682225Y-48436711D01*
X124850302Y-48491323D01*
X124850304Y-48491324D01*
X124854907Y-48492819D01*
X125039998Y-48514890D01*
X125044820Y-48514519D01*
X125044823Y-48514519D01*
X125221023Y-48500961D01*
X125221028Y-48500960D01*
X125225851Y-48500589D01*
X125405387Y-48450462D01*
X125409700Y-48448283D01*
X125409706Y-48448281D01*
X125567447Y-48368600D01*
X125567449Y-48368598D01*
X125571768Y-48366417D01*
X125718655Y-48251656D01*
X125840454Y-48110550D01*
X125932526Y-47948474D01*
X125943361Y-47915905D01*
X125989837Y-47776192D01*
X125989837Y-47776190D01*
X125991364Y-47771601D01*
X126014727Y-47586668D01*
X126015099Y-47560000D01*
X125996909Y-47374487D01*
X125943033Y-47196040D01*
X125855522Y-47031456D01*
X125737710Y-46887005D01*
X125733981Y-46883920D01*
X125597812Y-46771270D01*
X125597810Y-46771269D01*
X125594085Y-46768187D01*
X125430116Y-46679529D01*
X125252049Y-46624409D01*
X125247239Y-46623903D01*
X125247237Y-46623903D01*
X125071484Y-46605430D01*
X125071482Y-46605430D01*
X125066668Y-46604924D01*
X125004673Y-46610566D01*
X124885852Y-46621379D01*
X124885848Y-46621380D01*
X124881032Y-46621818D01*
X124876390Y-46623184D01*
X124876386Y-46623185D01*
X124706861Y-46673080D01*
X124706858Y-46673081D01*
X124702214Y-46674448D01*
X124537023Y-46760807D01*
X124533247Y-46763843D01*
X124533244Y-46763845D01*
X124395523Y-46874576D01*
X124391752Y-46877608D01*
X124388644Y-46881312D01*
X124275044Y-47016695D01*
X124275041Y-47016699D01*
X124271935Y-47020401D01*
X124182135Y-47183746D01*
X124180672Y-47188359D01*
X124180670Y-47188363D01*
X124131013Y-47344902D01*
X124125772Y-47361424D01*
X124104994Y-47546665D01*
X115311543Y-47546665D01*
X115311543Y-45006665D01*
X124104994Y-45006665D01*
X124120592Y-45192414D01*
X124121925Y-45197062D01*
X124121925Y-45197063D01*
X124131829Y-45231601D01*
X124171971Y-45371595D01*
X124257176Y-45537385D01*
X124372959Y-45683468D01*
X124376646Y-45686606D01*
X124376648Y-45686608D01*
X124511224Y-45801141D01*
X124511229Y-45801144D01*
X124514912Y-45804279D01*
X124519134Y-45806639D01*
X124519139Y-45806642D01*
X124549191Y-45823437D01*
X124677627Y-45895217D01*
X124682225Y-45896711D01*
X124850302Y-45951323D01*
X124850304Y-45951324D01*
X124854907Y-45952819D01*
X125039998Y-45974890D01*
X125044820Y-45974519D01*
X125044823Y-45974519D01*
X125221023Y-45960961D01*
X125221028Y-45960960D01*
X125225851Y-45960589D01*
X125405387Y-45910462D01*
X125409700Y-45908283D01*
X125409706Y-45908281D01*
X125567447Y-45828600D01*
X125567449Y-45828598D01*
X125571768Y-45826417D01*
X125718655Y-45711656D01*
X125840454Y-45570550D01*
X125932526Y-45408474D01*
X125943361Y-45375905D01*
X125989837Y-45236192D01*
X125989837Y-45236190D01*
X125991364Y-45231601D01*
X126014727Y-45046668D01*
X126015099Y-45020000D01*
X125996909Y-44834487D01*
X125943033Y-44656040D01*
X125855522Y-44491456D01*
X125737710Y-44347005D01*
X125733981Y-44343920D01*
X125597812Y-44231270D01*
X125597810Y-44231269D01*
X125594085Y-44228187D01*
X125430116Y-44139529D01*
X125252049Y-44084409D01*
X125247239Y-44083903D01*
X125247237Y-44083903D01*
X125071484Y-44065430D01*
X125071482Y-44065430D01*
X125066668Y-44064924D01*
X125004673Y-44070566D01*
X124885852Y-44081379D01*
X124885848Y-44081380D01*
X124881032Y-44081818D01*
X124876390Y-44083184D01*
X124876386Y-44083185D01*
X124706861Y-44133080D01*
X124706858Y-44133081D01*
X124702214Y-44134448D01*
X124537023Y-44220807D01*
X124533247Y-44223843D01*
X124533244Y-44223845D01*
X124484017Y-44263425D01*
X124391752Y-44337608D01*
X124388644Y-44341312D01*
X124275044Y-44476695D01*
X124275041Y-44476699D01*
X124271935Y-44480401D01*
X124182135Y-44643746D01*
X124180672Y-44648359D01*
X124180670Y-44648363D01*
X124131013Y-44804902D01*
X124125772Y-44821424D01*
X124104994Y-45006665D01*
X115311543Y-45006665D01*
X115311543Y-43244840D01*
X124110000Y-43244840D01*
X124110948Y-43254462D01*
X124119702Y-43298474D01*
X124127021Y-43316142D01*
X124160389Y-43366082D01*
X124173918Y-43379611D01*
X124223858Y-43412979D01*
X124241526Y-43420298D01*
X124285538Y-43429052D01*
X124295160Y-43430000D01*
X124894320Y-43430000D01*
X124907005Y-43425878D01*
X124910000Y-43421757D01*
X124910000Y-43414320D01*
X125210000Y-43414320D01*
X125214122Y-43427005D01*
X125218243Y-43430000D01*
X125824840Y-43430000D01*
X125834462Y-43429052D01*
X125878474Y-43420298D01*
X125896142Y-43412979D01*
X125946082Y-43379611D01*
X125959611Y-43366082D01*
X125992979Y-43316142D01*
X126000298Y-43298474D01*
X126009052Y-43254462D01*
X126010000Y-43244840D01*
X126010000Y-42645680D01*
X126005878Y-42632995D01*
X126001757Y-42630000D01*
X125225680Y-42630000D01*
X125212995Y-42634122D01*
X125210000Y-42638243D01*
X125210000Y-43414320D01*
X124910000Y-43414320D01*
X124910000Y-42645680D01*
X124905878Y-42632995D01*
X124901757Y-42630000D01*
X124125680Y-42630000D01*
X124112995Y-42634122D01*
X124110000Y-42638243D01*
X124110000Y-43244840D01*
X115311543Y-43244840D01*
X115311543Y-42314320D01*
X124110000Y-42314320D01*
X124114122Y-42327005D01*
X124118243Y-42330000D01*
X124894320Y-42330000D01*
X124907005Y-42325878D01*
X124910000Y-42321757D01*
X124910000Y-42314320D01*
X125210000Y-42314320D01*
X125214122Y-42327005D01*
X125218243Y-42330000D01*
X125994320Y-42330000D01*
X126007005Y-42325878D01*
X126010000Y-42321757D01*
X126010000Y-41715160D01*
X126009052Y-41705538D01*
X126000298Y-41661526D01*
X125992979Y-41643858D01*
X125959611Y-41593918D01*
X125946082Y-41580389D01*
X125896142Y-41547021D01*
X125878474Y-41539702D01*
X125834462Y-41530948D01*
X125824840Y-41530000D01*
X125225680Y-41530000D01*
X125212995Y-41534122D01*
X125210000Y-41538243D01*
X125210000Y-42314320D01*
X124910000Y-42314320D01*
X124910000Y-41545680D01*
X124905878Y-41532995D01*
X124901757Y-41530000D01*
X124295160Y-41530000D01*
X124285538Y-41530948D01*
X124241526Y-41539702D01*
X124223858Y-41547021D01*
X124173918Y-41580389D01*
X124160389Y-41593918D01*
X124127021Y-41643858D01*
X124119702Y-41661526D01*
X124110948Y-41705538D01*
X124110000Y-41715160D01*
X124110000Y-42314320D01*
X115311543Y-42314320D01*
X115311543Y-33909000D01*
X105217543Y-33909000D01*
X105217543Y-62734000D01*
X92589996Y-62734000D01*
X92589996Y-50124222D01*
X92592553Y-50101867D01*
X92593871Y-50096181D01*
X92595138Y-50090716D01*
X92595139Y-50090000D01*
X92593207Y-50081530D01*
X92590753Y-50057223D01*
X92609353Y-49252192D01*
X92609565Y-49247624D01*
X92667433Y-48413920D01*
X92667855Y-48409366D01*
X92764164Y-47579228D01*
X92764795Y-47574698D01*
X92800338Y-47356809D01*
X92899351Y-46749826D01*
X92900190Y-46745343D01*
X92913588Y-46681829D01*
X93072690Y-45927609D01*
X93073732Y-45923177D01*
X93076697Y-45911763D01*
X93283810Y-45114296D01*
X93285061Y-45109897D01*
X93532282Y-44311544D01*
X93533736Y-44307208D01*
X93817547Y-43521170D01*
X93819199Y-43516905D01*
X94069117Y-42913552D01*
X94139024Y-42744781D01*
X94140868Y-42740605D01*
X94188921Y-42638243D01*
X94335556Y-42325878D01*
X94496008Y-41984081D01*
X94498047Y-41979987D01*
X94887732Y-41240700D01*
X94889957Y-41236704D01*
X95313394Y-40516160D01*
X95315802Y-40512272D01*
X95772038Y-39812092D01*
X95774622Y-39808319D01*
X96127774Y-39317495D01*
X96262729Y-39129929D01*
X96265479Y-39126287D01*
X96784399Y-38471159D01*
X96787321Y-38467641D01*
X97335920Y-37837204D01*
X97339001Y-37833824D01*
X97596795Y-37563835D01*
X97916160Y-37229364D01*
X97919362Y-37226162D01*
X98253833Y-36906797D01*
X98523822Y-36649003D01*
X98527202Y-36645922D01*
X99157639Y-36097323D01*
X99161157Y-36094401D01*
X99816285Y-35575481D01*
X99819935Y-35572725D01*
X100498317Y-35084624D01*
X100502090Y-35082040D01*
X101202270Y-34625804D01*
X101206158Y-34623396D01*
X101926702Y-34199959D01*
X101930698Y-34197734D01*
X102669985Y-33808049D01*
X102674079Y-33806010D01*
X103430603Y-33450870D01*
X103434786Y-33449023D01*
X104206903Y-33129201D01*
X104211161Y-33127552D01*
X104511646Y-33019057D01*
X104997206Y-32843738D01*
X105001542Y-32842284D01*
X105799895Y-32595063D01*
X105804294Y-32593812D01*
X105966965Y-32551564D01*
X106613195Y-32383729D01*
X106617607Y-32382692D01*
X107435352Y-32210190D01*
X107439824Y-32209353D01*
X108264699Y-32074797D01*
X108269222Y-32074167D01*
X108419341Y-32056750D01*
X109099364Y-31977857D01*
X109103918Y-31977435D01*
X109937622Y-31919567D01*
X109942190Y-31919355D01*
X110777711Y-31900051D01*
X110782285Y-31900051D01*
X111617806Y-31919355D01*
G37*
G04 #@! TD.AperFunction*
G04 #@! TA.AperFunction,Conductor*
G36*
X110904330Y-110399480D02*
G01*
X110904332Y-110399480D01*
X110904901Y-110399483D01*
X110930698Y-110399641D01*
X110958454Y-110403790D01*
X111013766Y-110420331D01*
X111039246Y-110432104D01*
X111087688Y-110463503D01*
X111108840Y-110481955D01*
X111146519Y-110525684D01*
X111161642Y-110549332D01*
X111185535Y-110601883D01*
X111193413Y-110628823D01*
X111201953Y-110688456D01*
X111201581Y-110718917D01*
X111191586Y-110778324D01*
X111183052Y-110805064D01*
X111157881Y-110857017D01*
X111142185Y-110880287D01*
X111103447Y-110923085D01*
X111081850Y-110941015D01*
X111032661Y-110971217D01*
X111006900Y-110982365D01*
X110951202Y-110997550D01*
X110923347Y-111001019D01*
X110913690Y-111000842D01*
X110897138Y-111000538D01*
X110897127Y-111000538D01*
X110865638Y-110999961D01*
X110837934Y-110995475D01*
X110782823Y-110978257D01*
X110757488Y-110966173D01*
X110719694Y-110941015D01*
X110709437Y-110934187D01*
X110688514Y-110915479D01*
X110651370Y-110871290D01*
X110636537Y-110847461D01*
X110613288Y-110794624D01*
X110605740Y-110767588D01*
X110598255Y-110710348D01*
X110598598Y-110682281D01*
X110607479Y-110625243D01*
X110615685Y-110598400D01*
X110640217Y-110546148D01*
X110655628Y-110522687D01*
X110693844Y-110479416D01*
X110715220Y-110461224D01*
X110764038Y-110430423D01*
X110789658Y-110418962D01*
X110845166Y-110403098D01*
X110872974Y-110399289D01*
X110904330Y-110399480D01*
G37*
G04 #@! TD.AperFunction*
M02*
