M48
; DRILL file {KiCad (6.0.1-0)} date 2022 July 26, Tuesday 14:00:08
; FORMAT={-:-/ absolute / inch / decimal}
; #@! TF.CreationDate,2022-07-26T14:00:08+03:00
; #@! TF.GenerationSoftware,Kicad,Pcbnew,(6.0.1-0)
; #@! TF.FileFunction,Plated,1,2,PTH
FMAT,2
INCH
; #@! TA.AperFunction,Plated,PTH,ViaDrill
T1C0.0118
; #@! TA.AperFunction,Plated,PTH,ViaDrill
T2C0.0157
; #@! TA.AperFunction,Plated,PTH,ViaDrill
T3C0.0236
; #@! TA.AperFunction,Plated,PTH,ComponentDrill
T4C0.0236
; #@! TA.AperFunction,Plated,PTH,ComponentDrill
T5C0.0315
; #@! TA.AperFunction,Plated,PTH,ComponentDrill
T6C0.0390
; #@! TA.AperFunction,Plated,PTH,ComponentDrill
T7C0.0394
; #@! TA.AperFunction,Plated,PTH,ComponentDrill
T8C0.0512
; #@! TA.AperFunction,Plated,PTH,ComponentDrill
T9C0.0728
%
G90
G05
T1
X3.8Y-5.22
X3.8281Y-5.2343
X3.9Y-5.66
X3.9Y-5.71
X3.92Y-5.46
X3.92Y-5.81
X3.95Y-5.145
X4.0077Y-4.2523
X4.0185Y-4.9327
X4.02Y-5.04
X4.03Y-4.455
X4.055Y-5.31
X4.055Y-5.36
X4.07Y-4.46
X4.07Y-4.5346
X4.075Y-5.51
X4.12Y-4.22
X4.188Y-5.2431
X4.195Y-4.22
X4.205Y-4.255
X4.4626Y-4.2669
X4.485Y-5.82
X4.4941Y-5.2382
X4.525Y-5.82
X4.565Y-5.76
X4.565Y-5.82
X4.7094Y-3.126
X4.7195Y-5.2589
X4.7215Y-5.2087
X4.7579Y-4.5315
X4.7587Y-4.7398
X4.8343Y-4.7547
X4.865Y-5.78
X4.87Y-5.86
X4.8807Y-5.5
X5.0581Y-5.5128
T2
X3.695Y-5.8568
X4.1969Y-1.4921
X4.1969Y-1.7185
X4.1998Y-2.3957
X4.2009Y-2.1142
X4.2369Y-1.4921
X4.2369Y-1.7185
X4.2398Y-2.3957
X4.2409Y-2.1142
X4.2567Y-6.5333
X4.2769Y-1.4921
X4.2769Y-1.7185
X4.2798Y-2.3957
X4.2809Y-2.1142
X4.3169Y-1.4921
X4.3169Y-1.7185
X4.3198Y-2.3957
X4.3209Y-2.1142
X4.3661Y-4.3583
X4.3869Y-1.4921
X4.3869Y-1.7185
X4.3898Y-2.3957
X4.3909Y-2.1142
X4.4319Y-1.4921
X4.4319Y-1.7185
X4.4348Y-2.3957
X4.4359Y-2.1142
X4.4719Y-1.4921
X4.4719Y-1.7185
X4.4733Y-6.5367
X4.4748Y-2.3957
X4.4759Y-2.1142
X4.5827Y-4.5433
X4.6299Y-4.502
X4.6545Y-5.0896
X4.7207Y-5.7943
X4.875Y-5.622
X4.8809Y-5.435
X4.9Y-4.76
X4.98Y-4.72
X4.98Y-4.76
T3
X4.8199Y-6.4921
T5
X4.7555Y-6.6555
X4.8343Y-6.6555
X4.913Y-6.6555
X4.9236Y-1.6724
X4.9236Y-1.7724
X4.9236Y-1.8724
T6
X3.7988Y-6.6417
X3.976Y-6.6417
T7
X3.795Y-4.37
X3.795Y-4.47
X3.795Y-4.57
X3.795Y-4.67
X3.795Y-4.77
X3.795Y-4.87
X3.795Y-4.97
X4.3642Y-3.5748
X4.3681Y-3.3465
X4.626Y-4.1831
X4.7472Y-3.0311
X4.7598Y-4.9488
X4.8484Y-5.065
X4.9754Y-3.4744
X4.9754Y-3.628
X4.9754Y-3.7815
X4.9754Y-3.935
T8
X3.7492Y-6.5437
X4.0252Y-6.5437
T9
X4.36Y-1.6187
X4.36Y-2.2486
X4.36Y-3.8332
X4.36Y-4.4632
T4
G00X4.1949Y-6.4769
M15
G01X4.1949Y-6.5005
M16
G05
G00X4.1949Y-6.6265
M15
G01X4.1949Y-6.6501
M16
G05
G00X4.5351Y-6.4769
M15
G01X4.5351Y-6.5005
M16
G05
G00X4.5351Y-6.6265
M15
G01X4.5351Y-6.6501
M16
G05
T0
M30
